<?xml version="1.0" encoding="utf-8" standalone="no"?>
<!DOCTYPE svg PUBLIC "-//W3C//DTD SVG 1.1//EN"
  "http://www.w3.org/Graphics/SVG/1.1/DTD/svg11.dtd">
<svg xmlns:xlink="http://www.w3.org/1999/xlink" width="492.510937pt" height="251.19625pt" viewBox="0 0 492.510937 251.19625" xmlns="http://www.w3.org/2000/svg" version="1.1">
 <metadata>
  <rdf:RDF xmlns:dc="http://purl.org/dc/elements/1.1/" xmlns:cc="http://creativecommons.org/ns#" xmlns:rdf="http://www.w3.org/1999/02/22-rdf-syntax-ns#">
   <cc:Work>
    <dc:type rdf:resource="http://purl.org/dc/dcmitype/StillImage"/>
    <dc:date>2026-05-10T19:44:34.497506</dc:date>
    <dc:format>image/svg+xml</dc:format>
    <dc:creator>
     <cc:Agent>
      <dc:title>Matplotlib v3.9.0, https://matplotlib.org/</dc:title>
     </cc:Agent>
    </dc:creator>
   </cc:Work>
  </rdf:RDF>
 </metadata>
 <defs>
  <style type="text/css">*{stroke-linejoin: round; stroke-linecap: butt}</style>
 </defs>
 <g id="figure_1">
  <g id="patch_1">
   <path d="M -0 251.19625 
L 492.510937 251.19625 
L 492.510937 0 
L -0 0 
z
" style="fill: #ffffff"/>
  </g>
  <g id="axes_1">
   <g id="patch_2">
    <path d="M 43.742188 213.64 
L 475.767187 213.64 
L 475.767187 7.2 
L 43.742188 7.2 
z
" style="fill: #ffffff"/>
   </g>
   <g id="PolyCollection_1">
    <defs>
     <path id="m96319925dd" d="M 248.129484 -201.865667 
L 248.129484 -201.883717 
L 248.670191 -201.976499 
L 249.210898 -202.068685 
L 249.751606 -202.160275 
L 250.292313 -202.251273 
L 250.83302 -202.341681 
L 251.373727 -202.431501 
L 251.914434 -202.520736 
L 252.455141 -202.609389 
L 252.995848 -202.697461 
L 253.536555 -202.784956 
L 254.077263 -202.871876 
L 254.61797 -202.958225 
L 255.158677 -203.044004 
L 255.699384 -203.129217 
L 256.240091 -203.213868 
L 256.780798 -203.297958 
L 257.321505 -203.381491 
L 257.862213 -203.46447 
L 258.40292 -203.546899 
L 258.943627 -203.62878 
L 259.484334 -203.710117 
L 260.025041 -203.790913 
L 260.565748 -203.871171 
L 261.106455 -203.950896 
L 261.647162 -204.030089 
L 262.18787 -204.108755 
L 262.728577 -204.186898 
L 263.269284 -204.26452 
L 263.809991 -204.341626 
L 264.350698 -204.418219 
L 264.891405 -204.494302 
L 265.432112 -204.56988 
L 265.97282 -204.644955 
L 266.513527 -204.719533 
L 267.054234 -204.793616 
L 267.594941 -204.867208 
L 268.135648 -204.940314 
L 268.676355 -205.012936 
L 269.217062 -205.08508 
L 269.757769 -205.156748 
L 270.298477 -205.227944 
L 270.839184 -205.298673 
L 271.379891 -205.368939 
L 271.920598 -205.438745 
L 272.461305 -205.508095 
L 273.002012 -205.576993 
L 273.542719 -205.645444 
L 274.083427 -205.713451 
L 274.624134 -205.781018 
L 275.164841 -205.84815 
L 275.705548 -205.914849 
L 276.246255 -205.981121 
L 276.786962 -206.04697 
L 277.327669 -206.112398 
L 277.868376 -206.177411 
L 278.409084 -206.242013 
L 278.949791 -206.306207 
L 279.490498 -206.369997 
L 280.031205 -206.433388 
L 280.571912 -206.496383 
L 281.112619 -206.558987 
L 281.653326 -206.621204 
L 282.194034 -206.683037 
L 282.734741 -206.744491 
L 283.275448 -206.80557 
L 283.816155 -206.866277 
L 284.356862 -206.926616 
L 284.897569 -206.986593 
L 285.438276 -207.04621 
L 285.978983 -207.105471 
L 286.519691 -207.164381 
L 287.060398 -207.222944 
L 287.601105 -207.281163 
L 288.141812 -207.339042 
L 288.682519 -207.396585 
L 289.223226 -207.453797 
L 289.763933 -207.51068 
L 290.304641 -207.56724 
L 290.845348 -207.623479 
L 291.386055 -207.679401 
L 291.926762 -207.735011 
L 292.467469 -207.790312 
L 293.008176 -207.845307 
L 293.548883 -207.900002 
L 294.089591 -207.954398 
L 294.630298 -208.008501 
L 295.171005 -208.062314 
L 295.711712 -208.11584 
L 296.252419 -208.169083 
L 296.793126 -208.222046 
L 297.333833 -208.274734 
L 297.87454 -208.32715 
L 298.415248 -208.379297 
L 298.955955 -208.431179 
L 299.496662 -208.4828 
L 300.037369 -208.534163 
L 300.578076 -208.585271 
L 301.118783 -208.636128 
L 301.65949 -208.686737 
L 302.200198 -208.737102 
L 302.740905 -208.787226 
L 303.281612 -208.837112 
L 303.822319 -208.886764 
L 304.363026 -208.936185 
L 304.903733 -208.985378 
L 305.44444 -209.034347 
L 305.985147 -209.083094 
L 306.525855 -209.131623 
L 307.066562 -209.179937 
L 307.607269 -209.228039 
L 308.147976 -209.275932 
L 308.688683 -209.323619 
L 309.22939 -209.371104 
L 309.770097 -209.418389 
L 310.310805 -209.465477 
L 310.851512 -209.512371 
L 311.392219 -209.559074 
L 311.932926 -209.60559 
L 312.473633 -209.65192 
L 313.01434 -209.698068 
L 313.555047 -209.744037 
L 314.095754 -209.789828 
L 314.636462 -209.835446 
L 315.177169 -209.880892 
L 315.717876 -209.92617 
L 316.258583 -209.971282 
L 316.79929 -210.016231 
L 317.339997 -210.061019 
L 317.880704 -210.105649 
L 318.421412 -210.150124 
L 318.962119 -210.194445 
L 319.502826 -210.238616 
L 320.043533 -210.282639 
L 320.58424 -210.326516 
L 321.124947 -210.37025 
L 321.665654 -210.413843 
L 322.206361 -210.457297 
L 322.747069 -210.500615 
L 323.287776 -210.5438 
L 323.828483 -210.586852 
L 324.36919 -210.629776 
L 324.909897 -210.672572 
L 325.450604 -210.715242 
L 325.991311 -210.757791 
L 326.532019 -210.800218 
L 327.072726 -210.842526 
L 327.613433 -210.884718 
L 328.15414 -210.926796 
L 328.694847 -210.96876 
L 329.235554 -211.010615 
L 329.776261 -211.05236 
L 330.316968 -211.093999 
L 330.857676 -211.135533 
L 331.398383 -211.176964 
L 331.93909 -211.218295 
L 332.479797 -211.259526 
L 333.020504 -211.300659 
L 333.561211 -211.341697 
L 334.101918 -211.382641 
L 334.642626 -211.423493 
L 335.183333 -211.464254 
L 335.72404 -211.504927 
L 336.264747 -211.545512 
L 336.805454 -211.586012 
L 337.346161 -211.626429 
L 337.886868 -211.666762 
L 338.427575 -211.707015 
L 338.968283 -211.747189 
L 339.50899 -211.787285 
L 340.049697 -211.827305 
L 340.590404 -211.86725 
L 341.131111 -211.907122 
L 341.671818 -211.946922 
L 342.212525 -211.986651 
L 342.753233 -212.026312 
L 343.29394 -212.065904 
L 343.834647 -212.10543 
L 344.375354 -212.144891 
L 344.916061 -212.184288 
L 345.456768 -212.223622 
L 345.997475 -212.262896 
L 346.538182 -212.302109 
L 347.07889 -212.341263 
L 347.619597 -212.380359 
L 348.160304 -212.419399 
L 348.701011 -212.458384 
L 349.241718 -212.497314 
L 349.782425 -212.536191 
L 350.323132 -212.575016 
L 350.86384 -212.61379 
L 351.404547 -212.652514 
L 351.945254 -212.691189 
L 352.485961 -212.729817 
L 353.026668 -212.768397 
L 353.567375 -212.806931 
L 354.108082 -212.845421 
L 354.64879 -212.883867 
L 355.189497 -212.922269 
L 355.730204 -212.960629 
L 356.270911 -212.998948 
L 356.811618 -213.037227 
L 357.352325 -213.075466 
L 357.893032 -213.113667 
L 358.433739 -213.15183 
L 358.974447 -213.189955 
L 359.515154 -213.228045 
L 360.055861 -213.266099 
L 360.596568 -213.304119 
L 361.137275 -213.342104 
L 361.677982 -213.380057 
L 362.218689 -213.417977 
L 362.759397 -213.455865 
L 363.300104 -213.493723 
L 363.840811 -213.53155 
L 364.381518 -213.569347 
L 364.922225 -213.607116 
L 365.462932 -213.644856 
L 366.003639 -213.682569 
L 366.544346 -213.720255 
L 367.085054 -213.757914 
L 367.625761 -213.795547 
L 368.166468 -213.833155 
L 368.707175 -213.870739 
L 369.247882 -213.908298 
L 369.788589 -213.945834 
L 370.329296 -213.983347 
L 370.870004 -214.020837 
L 371.410711 -214.058306 
L 371.951418 -214.095753 
L 372.492125 -214.133179 
L 373.032832 -214.170585 
L 373.573539 -214.207971 
L 374.114246 -214.245337 
L 374.654953 -214.282685 
L 375.195661 -214.320013 
L 375.736368 -214.357324 
L 376.277075 -214.394617 
L 376.817782 -214.431893 
L 377.358489 -214.469152 
L 377.899196 -214.506394 
L 378.439903 -214.543621 
L 378.980611 -214.580832 
L 379.521318 -214.618027 
L 380.062025 -214.655208 
L 380.602732 -214.692375 
L 381.143439 -214.729527 
L 381.684146 -214.766665 
L 382.224853 -214.80379 
L 382.76556 -214.840902 
L 383.306268 -214.878002 
L 383.846975 -214.915089 
L 384.387682 -214.952164 
L 384.928389 -214.989227 
L 385.469096 -215.02628 
L 386.009803 -215.063321 
L 386.55051 -215.100352 
L 387.091218 -215.137372 
L 387.631925 -215.174383 
L 388.172632 -215.211385 
L 388.713339 -215.248377 
L 389.254046 -215.285361 
L 389.794753 -215.322337 
L 390.33546 -215.359305 
L 390.876167 -215.396266 
L 391.416875 -215.433221 
L 391.957582 -215.47017 
L 392.498289 -215.507114 
L 393.038996 -215.544053 
L 393.579703 -215.580988 
L 394.12041 -215.617921 
L 394.661117 -215.654853 
L 395.201825 -215.691784 
L 395.742532 -215.728716 
L 396.283239 -215.76565 
L 396.823946 -215.802588 
L 397.364653 -215.839532 
L 397.90536 -215.876485 
L 398.446067 -215.913448 
L 398.986774 -215.950424 
L 399.527482 -215.987416 
L 400.068189 -216.024428 
L 400.608896 -216.061465 
L 401.149603 -216.098529 
L 401.69031 -216.135627 
L 402.231017 -216.172764 
L 402.771724 -216.209947 
L 403.312432 -216.247183 
L 403.853139 -216.284479 
L 404.393846 -216.321846 
L 404.934553 -216.359294 
L 405.47526 -216.396833 
L 406.015967 -216.434478 
L 406.556674 -216.472242 
L 407.097381 -216.510141 
L 407.638089 -216.548194 
L 408.178796 -216.58642 
L 408.719503 -216.62484 
L 409.26021 -216.663481 
L 409.800917 -216.702368 
L 410.341624 -216.741531 
L 410.882331 -216.781003 
L 411.423039 -216.82082 
L 411.963746 -216.861022 
L 412.504453 -216.901652 
L 413.04516 -216.942757 
L 413.585867 -216.98439 
L 414.126574 -217.026607 
L 414.667281 -217.06947 
L 415.207989 -217.113044 
L 415.748696 -217.157403 
L 416.289403 -217.202625 
L 416.83011 -217.248794 
L 417.370817 -217.296 
L 417.911524 -217.344343 
L 418.452231 -217.393926 
L 418.992938 -217.444862 
L 419.533646 -217.49727 
L 420.074353 -217.551278 
L 420.61506 -217.607022 
L 421.155767 -217.664646 
L 421.696474 -217.724302 
L 422.237181 -217.78615 
L 422.777888 -217.85036 
L 423.318596 -217.91711 
L 423.859303 -217.986585 
L 424.40001 -218.05898 
L 424.940717 -218.134498 
L 425.481424 -218.213348 
L 426.022131 -218.295749 
L 426.562838 -218.381924 
L 427.103545 -218.472105 
L 427.644253 -218.566529 
L 428.18496 -218.665437 
L 428.725667 -218.769076 
L 429.266374 -218.877694 
L 429.807081 -218.991544 
L 430.347788 -219.110876 
L 430.888495 -219.235944 
L 431.429203 -219.366998 
L 431.96991 -219.504283 
L 432.510617 -219.648044 
L 433.051324 -219.798514 
L 433.592031 -219.955921 
L 434.132738 -220.120482 
L 434.673445 -220.292402 
L 435.214152 -220.471869 
L 435.75486 -220.659058 
L 436.295567 -220.854124 
L 436.836274 -221.0572 
L 437.376981 -221.268397 
L 437.917688 -221.487801 
L 438.458395 -221.71547 
L 438.999102 -221.951431 
L 439.53981 -222.195682 
L 440.080517 -222.448185 
L 440.621224 -222.708866 
L 441.161931 -222.977615 
L 441.702638 -223.254282 
L 442.243345 -223.538675 
L 442.784052 -223.830562 
L 443.324759 -224.129667 
L 443.865467 -224.435669 
L 444.406174 -224.748204 
L 444.946881 -225.066861 
L 445.487588 -225.391184 
L 446.028295 -225.720674 
L 446.569002 -226.054786 
L 447.109709 -226.392932 
L 447.650417 -226.73448 
L 448.191124 -227.07876 
L 448.731831 -227.42506 
L 449.272538 -227.772633 
L 449.813245 -228.120698 
L 450.353952 -228.468442 
L 450.894659 -228.815022 
L 451.435366 -229.159573 
L 451.976074 -229.501207 
L 452.516781 -229.83902 
L 453.057488 -230.172096 
L 453.598195 -230.499509 
L 454.138902 -230.82033 
L 454.679609 -231.133632 
L 455.220316 -231.438494 
L 455.761024 -231.734006 
L 456.301731 -232.019274 
L 456.842438 -232.293428 
L 457.383145 -232.55562 
L 457.923852 -232.805039 
L 458.464559 -233.040905 
L 459.005266 -233.262484 
L 459.545973 -233.469083 
L 460.086681 -233.660064 
L 460.627388 -233.834838 
L 461.168095 -233.992877 
L 461.708802 -234.133714 
L 462.249509 -234.256944 
L 462.790216 -234.362231 
L 463.330923 -234.449305 
L 463.871631 -234.51797 
L 464.412338 -234.5681 
L 464.953045 -234.599641 
L 465.493752 -234.612614 
L 466.034459 -234.607111 
L 466.575166 -234.583299 
L 467.115873 -234.541413 
L 467.65658 -234.48176 
L 468.197288 -234.404713 
L 468.737995 -234.310713 
L 469.278702 -234.200261 
L 469.819409 -234.073918 
L 470.360116 -233.932301 
L 470.900823 -233.776077 
L 471.44153 -233.605965 
L 471.982238 -233.422722 
L 472.522945 -233.227147 
L 473.063652 -233.020072 
L 473.604359 -232.802357 
L 474.145066 -232.574886 
L 474.685773 -232.338563 
L 475.22648 -232.094304 
L 475.767187 -231.843035 
L 475.767187 -201.865667 
L 475.767187 -201.865667 
L 475.22648 -201.865667 
L 474.685773 -201.865667 
L 474.145066 -201.865667 
L 473.604359 -201.865667 
L 473.063652 -201.865667 
L 472.522945 -201.865667 
L 471.982238 -201.865667 
L 471.44153 -201.865667 
L 470.900823 -201.865667 
L 470.360116 -201.865667 
L 469.819409 -201.865667 
L 469.278702 -201.865667 
L 468.737995 -201.865667 
L 468.197288 -201.865667 
L 467.65658 -201.865667 
L 467.115873 -201.865667 
L 466.575166 -201.865667 
L 466.034459 -201.865667 
L 465.493752 -201.865667 
L 464.953045 -201.865667 
L 464.412338 -201.865667 
L 463.871631 -201.865667 
L 463.330923 -201.865667 
L 462.790216 -201.865667 
L 462.249509 -201.865667 
L 461.708802 -201.865667 
L 461.168095 -201.865667 
L 460.627388 -201.865667 
L 460.086681 -201.865667 
L 459.545973 -201.865667 
L 459.005266 -201.865667 
L 458.464559 -201.865667 
L 457.923852 -201.865667 
L 457.383145 -201.865667 
L 456.842438 -201.865667 
L 456.301731 -201.865667 
L 455.761024 -201.865667 
L 455.220316 -201.865667 
L 454.679609 -201.865667 
L 454.138902 -201.865667 
L 453.598195 -201.865667 
L 453.057488 -201.865667 
L 452.516781 -201.865667 
L 451.976074 -201.865667 
L 451.435366 -201.865667 
L 450.894659 -201.865667 
L 450.353952 -201.865667 
L 449.813245 -201.865667 
L 449.272538 -201.865667 
L 448.731831 -201.865667 
L 448.191124 -201.865667 
L 447.650417 -201.865667 
L 447.109709 -201.865667 
L 446.569002 -201.865667 
L 446.028295 -201.865667 
L 445.487588 -201.865667 
L 444.946881 -201.865667 
L 444.406174 -201.865667 
L 443.865467 -201.865667 
L 443.324759 -201.865667 
L 442.784052 -201.865667 
L 442.243345 -201.865667 
L 441.702638 -201.865667 
L 441.161931 -201.865667 
L 440.621224 -201.865667 
L 440.080517 -201.865667 
L 439.53981 -201.865667 
L 438.999102 -201.865667 
L 438.458395 -201.865667 
L 437.917688 -201.865667 
L 437.376981 -201.865667 
L 436.836274 -201.865667 
L 436.295567 -201.865667 
L 435.75486 -201.865667 
L 435.214152 -201.865667 
L 434.673445 -201.865667 
L 434.132738 -201.865667 
L 433.592031 -201.865667 
L 433.051324 -201.865667 
L 432.510617 -201.865667 
L 431.96991 -201.865667 
L 431.429203 -201.865667 
L 430.888495 -201.865667 
L 430.347788 -201.865667 
L 429.807081 -201.865667 
L 429.266374 -201.865667 
L 428.725667 -201.865667 
L 428.18496 -201.865667 
L 427.644253 -201.865667 
L 427.103545 -201.865667 
L 426.562838 -201.865667 
L 426.022131 -201.865667 
L 425.481424 -201.865667 
L 424.940717 -201.865667 
L 424.40001 -201.865667 
L 423.859303 -201.865667 
L 423.318596 -201.865667 
L 422.777888 -201.865667 
L 422.237181 -201.865667 
L 421.696474 -201.865667 
L 421.155767 -201.865667 
L 420.61506 -201.865667 
L 420.074353 -201.865667 
L 419.533646 -201.865667 
L 418.992938 -201.865667 
L 418.452231 -201.865667 
L 417.911524 -201.865667 
L 417.370817 -201.865667 
L 416.83011 -201.865667 
L 416.289403 -201.865667 
L 415.748696 -201.865667 
L 415.207989 -201.865667 
L 414.667281 -201.865667 
L 414.126574 -201.865667 
L 413.585867 -201.865667 
L 413.04516 -201.865667 
L 412.504453 -201.865667 
L 411.963746 -201.865667 
L 411.423039 -201.865667 
L 410.882331 -201.865667 
L 410.341624 -201.865667 
L 409.800917 -201.865667 
L 409.26021 -201.865667 
L 408.719503 -201.865667 
L 408.178796 -201.865667 
L 407.638089 -201.865667 
L 407.097381 -201.865667 
L 406.556674 -201.865667 
L 406.015967 -201.865667 
L 405.47526 -201.865667 
L 404.934553 -201.865667 
L 404.393846 -201.865667 
L 403.853139 -201.865667 
L 403.312432 -201.865667 
L 402.771724 -201.865667 
L 402.231017 -201.865667 
L 401.69031 -201.865667 
L 401.149603 -201.865667 
L 400.608896 -201.865667 
L 400.068189 -201.865667 
L 399.527482 -201.865667 
L 398.986774 -201.865667 
L 398.446067 -201.865667 
L 397.90536 -201.865667 
L 397.364653 -201.865667 
L 396.823946 -201.865667 
L 396.283239 -201.865667 
L 395.742532 -201.865667 
L 395.201825 -201.865667 
L 394.661117 -201.865667 
L 394.12041 -201.865667 
L 393.579703 -201.865667 
L 393.038996 -201.865667 
L 392.498289 -201.865667 
L 391.957582 -201.865667 
L 391.416875 -201.865667 
L 390.876167 -201.865667 
L 390.33546 -201.865667 
L 389.794753 -201.865667 
L 389.254046 -201.865667 
L 388.713339 -201.865667 
L 388.172632 -201.865667 
L 387.631925 -201.865667 
L 387.091218 -201.865667 
L 386.55051 -201.865667 
L 386.009803 -201.865667 
L 385.469096 -201.865667 
L 384.928389 -201.865667 
L 384.387682 -201.865667 
L 383.846975 -201.865667 
L 383.306268 -201.865667 
L 382.76556 -201.865667 
L 382.224853 -201.865667 
L 381.684146 -201.865667 
L 381.143439 -201.865667 
L 380.602732 -201.865667 
L 380.062025 -201.865667 
L 379.521318 -201.865667 
L 378.980611 -201.865667 
L 378.439903 -201.865667 
L 377.899196 -201.865667 
L 377.358489 -201.865667 
L 376.817782 -201.865667 
L 376.277075 -201.865667 
L 375.736368 -201.865667 
L 375.195661 -201.865667 
L 374.654953 -201.865667 
L 374.114246 -201.865667 
L 373.573539 -201.865667 
L 373.032832 -201.865667 
L 372.492125 -201.865667 
L 371.951418 -201.865667 
L 371.410711 -201.865667 
L 370.870004 -201.865667 
L 370.329296 -201.865667 
L 369.788589 -201.865667 
L 369.247882 -201.865667 
L 368.707175 -201.865667 
L 368.166468 -201.865667 
L 367.625761 -201.865667 
L 367.085054 -201.865667 
L 366.544346 -201.865667 
L 366.003639 -201.865667 
L 365.462932 -201.865667 
L 364.922225 -201.865667 
L 364.381518 -201.865667 
L 363.840811 -201.865667 
L 363.300104 -201.865667 
L 362.759397 -201.865667 
L 362.218689 -201.865667 
L 361.677982 -201.865667 
L 361.137275 -201.865667 
L 360.596568 -201.865667 
L 360.055861 -201.865667 
L 359.515154 -201.865667 
L 358.974447 -201.865667 
L 358.433739 -201.865667 
L 357.893032 -201.865667 
L 357.352325 -201.865667 
L 356.811618 -201.865667 
L 356.270911 -201.865667 
L 355.730204 -201.865667 
L 355.189497 -201.865667 
L 354.64879 -201.865667 
L 354.108082 -201.865667 
L 353.567375 -201.865667 
L 353.026668 -201.865667 
L 352.485961 -201.865667 
L 351.945254 -201.865667 
L 351.404547 -201.865667 
L 350.86384 -201.865667 
L 350.323132 -201.865667 
L 349.782425 -201.865667 
L 349.241718 -201.865667 
L 348.701011 -201.865667 
L 348.160304 -201.865667 
L 347.619597 -201.865667 
L 347.07889 -201.865667 
L 346.538182 -201.865667 
L 345.997475 -201.865667 
L 345.456768 -201.865667 
L 344.916061 -201.865667 
L 344.375354 -201.865667 
L 343.834647 -201.865667 
L 343.29394 -201.865667 
L 342.753233 -201.865667 
L 342.212525 -201.865667 
L 341.671818 -201.865667 
L 341.131111 -201.865667 
L 340.590404 -201.865667 
L 340.049697 -201.865667 
L 339.50899 -201.865667 
L 338.968283 -201.865667 
L 338.427575 -201.865667 
L 337.886868 -201.865667 
L 337.346161 -201.865667 
L 336.805454 -201.865667 
L 336.264747 -201.865667 
L 335.72404 -201.865667 
L 335.183333 -201.865667 
L 334.642626 -201.865667 
L 334.101918 -201.865667 
L 333.561211 -201.865667 
L 333.020504 -201.865667 
L 332.479797 -201.865667 
L 331.93909 -201.865667 
L 331.398383 -201.865667 
L 330.857676 -201.865667 
L 330.316968 -201.865667 
L 329.776261 -201.865667 
L 329.235554 -201.865667 
L 328.694847 -201.865667 
L 328.15414 -201.865667 
L 327.613433 -201.865667 
L 327.072726 -201.865667 
L 326.532019 -201.865667 
L 325.991311 -201.865667 
L 325.450604 -201.865667 
L 324.909897 -201.865667 
L 324.36919 -201.865667 
L 323.828483 -201.865667 
L 323.287776 -201.865667 
L 322.747069 -201.865667 
L 322.206361 -201.865667 
L 321.665654 -201.865667 
L 321.124947 -201.865667 
L 320.58424 -201.865667 
L 320.043533 -201.865667 
L 319.502826 -201.865667 
L 318.962119 -201.865667 
L 318.421412 -201.865667 
L 317.880704 -201.865667 
L 317.339997 -201.865667 
L 316.79929 -201.865667 
L 316.258583 -201.865667 
L 315.717876 -201.865667 
L 315.177169 -201.865667 
L 314.636462 -201.865667 
L 314.095754 -201.865667 
L 313.555047 -201.865667 
L 313.01434 -201.865667 
L 312.473633 -201.865667 
L 311.932926 -201.865667 
L 311.392219 -201.865667 
L 310.851512 -201.865667 
L 310.310805 -201.865667 
L 309.770097 -201.865667 
L 309.22939 -201.865667 
L 308.688683 -201.865667 
L 308.147976 -201.865667 
L 307.607269 -201.865667 
L 307.066562 -201.865667 
L 306.525855 -201.865667 
L 305.985147 -201.865667 
L 305.44444 -201.865667 
L 304.903733 -201.865667 
L 304.363026 -201.865667 
L 303.822319 -201.865667 
L 303.281612 -201.865667 
L 302.740905 -201.865667 
L 302.200198 -201.865667 
L 301.65949 -201.865667 
L 301.118783 -201.865667 
L 300.578076 -201.865667 
L 300.037369 -201.865667 
L 299.496662 -201.865667 
L 298.955955 -201.865667 
L 298.415248 -201.865667 
L 297.87454 -201.865667 
L 297.333833 -201.865667 
L 296.793126 -201.865667 
L 296.252419 -201.865667 
L 295.711712 -201.865667 
L 295.171005 -201.865667 
L 294.630298 -201.865667 
L 294.089591 -201.865667 
L 293.548883 -201.865667 
L 293.008176 -201.865667 
L 292.467469 -201.865667 
L 291.926762 -201.865667 
L 291.386055 -201.865667 
L 290.845348 -201.865667 
L 290.304641 -201.865667 
L 289.763933 -201.865667 
L 289.223226 -201.865667 
L 288.682519 -201.865667 
L 288.141812 -201.865667 
L 287.601105 -201.865667 
L 287.060398 -201.865667 
L 286.519691 -201.865667 
L 285.978983 -201.865667 
L 285.438276 -201.865667 
L 284.897569 -201.865667 
L 284.356862 -201.865667 
L 283.816155 -201.865667 
L 283.275448 -201.865667 
L 282.734741 -201.865667 
L 282.194034 -201.865667 
L 281.653326 -201.865667 
L 281.112619 -201.865667 
L 280.571912 -201.865667 
L 280.031205 -201.865667 
L 279.490498 -201.865667 
L 278.949791 -201.865667 
L 278.409084 -201.865667 
L 277.868376 -201.865667 
L 277.327669 -201.865667 
L 276.786962 -201.865667 
L 276.246255 -201.865667 
L 275.705548 -201.865667 
L 275.164841 -201.865667 
L 274.624134 -201.865667 
L 274.083427 -201.865667 
L 273.542719 -201.865667 
L 273.002012 -201.865667 
L 272.461305 -201.865667 
L 271.920598 -201.865667 
L 271.379891 -201.865667 
L 270.839184 -201.865667 
L 270.298477 -201.865667 
L 269.757769 -201.865667 
L 269.217062 -201.865667 
L 268.676355 -201.865667 
L 268.135648 -201.865667 
L 267.594941 -201.865667 
L 267.054234 -201.865667 
L 266.513527 -201.865667 
L 265.97282 -201.865667 
L 265.432112 -201.865667 
L 264.891405 -201.865667 
L 264.350698 -201.865667 
L 263.809991 -201.865667 
L 263.269284 -201.865667 
L 262.728577 -201.865667 
L 262.18787 -201.865667 
L 261.647162 -201.865667 
L 261.106455 -201.865667 
L 260.565748 -201.865667 
L 260.025041 -201.865667 
L 259.484334 -201.865667 
L 258.943627 -201.865667 
L 258.40292 -201.865667 
L 257.862213 -201.865667 
L 257.321505 -201.865667 
L 256.780798 -201.865667 
L 256.240091 -201.865667 
L 255.699384 -201.865667 
L 255.158677 -201.865667 
L 254.61797 -201.865667 
L 254.077263 -201.865667 
L 253.536555 -201.865667 
L 252.995848 -201.865667 
L 252.455141 -201.865667 
L 251.914434 -201.865667 
L 251.373727 -201.865667 
L 250.83302 -201.865667 
L 250.292313 -201.865667 
L 249.751606 -201.865667 
L 249.210898 -201.865667 
L 248.670191 -201.865667 
L 248.129484 -201.865667 
z
" style="stroke: #d95f5f; stroke-opacity: 0.18"/>
    </defs>
    <g clip-path="url(#pcce3978a43)">
     <use xlink:href="#m96319925dd" x="0" y="251.19625" style="fill: #d95f5f; fill-opacity: 0.18; stroke: #d95f5f; stroke-opacity: 0.18"/>
    </g>
   </g>
   <g id="PolyCollection_2">
    <defs>
     <path id="ma12e26fe6a" d="M 43.742188 -201.865667 
L 43.742188 -139.944746 
L 44.282895 -138.725399 
L 44.823602 -137.486324 
L 45.364309 -136.227833 
L 45.905016 -134.950265 
L 46.445723 -133.653995 
L 46.98643 -132.339426 
L 47.527137 -131.006997 
L 48.067845 -129.657175 
L 48.608552 -128.290465 
L 49.149259 -126.9074 
L 49.689966 -125.508549 
L 50.230673 -124.094513 
L 50.77138 -122.665927 
L 51.312087 -121.223456 
L 51.852795 -119.767802 
L 52.393502 -118.299696 
L 52.934209 -116.819902 
L 53.474916 -115.329218 
L 54.015623 -113.828471 
L 54.55633 -112.318519 
L 55.097037 -110.800254 
L 55.637744 -109.274592 
L 56.178452 -107.742483 
L 56.719159 -106.204903 
L 57.259866 -104.662856 
L 57.800573 -103.117373 
L 58.34128 -101.569509 
L 58.881987 -100.020345 
L 59.422694 -98.470985 
L 59.963402 -96.922556 
L 60.504109 -95.376204 
L 61.044816 -93.833096 
L 61.585523 -92.294417 
L 62.12623 -90.761369 
L 62.666937 -89.235169 
L 63.207644 -87.717048 
L 63.748351 -86.208249 
L 64.289059 -84.710026 
L 64.829766 -83.22364 
L 65.370473 -81.750361 
L 65.91118 -80.291464 
L 66.451887 -78.848227 
L 66.992594 -77.421929 
L 67.533301 -76.01385 
L 68.074009 -74.625266 
L 68.614716 -73.25745 
L 69.155423 -71.91167 
L 69.69613 -70.589183 
L 70.236837 -69.291238 
L 70.777544 -68.019071 
L 71.318251 -66.773904 
L 71.858958 -65.556944 
L 72.399666 -64.369379 
L 72.940373 -63.212375 
L 73.48108 -62.08708 
L 74.021787 -60.994616 
L 74.562494 -59.936078 
L 75.103201 -58.912535 
L 75.643908 -57.925027 
L 76.184616 -56.97456 
L 76.725323 -56.062109 
L 77.26603 -55.188615 
L 77.806737 -54.354979 
L 78.347444 -53.562068 
L 78.888151 -52.810706 
L 79.428858 -52.101679 
L 79.969565 -51.435728 
L 80.510273 -50.813552 
L 81.05098 -50.235803 
L 81.591687 -49.703089 
L 82.132394 -49.215968 
L 82.673101 -48.774953 
L 83.213808 -48.380504 
L 83.754515 -48.033034 
L 84.295223 -47.732903 
L 84.83593 -47.48042 
L 85.376637 -47.275843 
L 85.917344 -47.119376 
L 86.458051 -47.011171 
L 86.998758 -46.951326 
L 87.539465 -46.939886 
L 88.080172 -46.976844 
L 88.62088 -47.062136 
L 89.161587 -47.195649 
L 89.702294 -47.377214 
L 90.243001 -47.606611 
L 90.783708 -47.883566 
L 91.324415 -48.207755 
L 91.865122 -48.578802 
L 92.40583 -48.996281 
L 92.946537 -49.459716 
L 93.487244 -49.968582 
L 94.027951 -50.522307 
L 94.568658 -51.120273 
L 95.109365 -51.761814 
L 95.650072 -52.446223 
L 96.190779 -53.172747 
L 96.731487 -53.940594 
L 97.272194 -54.748931 
L 97.812901 -55.596885 
L 98.353608 -56.483547 
L 98.894315 -57.407974 
L 99.435022 -58.369187 
L 99.975729 -59.366177 
L 100.516437 -60.397903 
L 101.057144 -61.463296 
L 101.597851 -62.561263 
L 102.138558 -63.690683 
L 102.679265 -64.850414 
L 103.219972 -66.039293 
L 103.760679 -67.256138 
L 104.301386 -68.499751 
L 104.842094 -69.768918 
L 105.382801 -71.062413 
L 105.923508 -72.378999 
L 106.464215 -73.71743 
L 107.004922 -75.076453 
L 107.545629 -76.45481 
L 108.086336 -77.851241 
L 108.627044 -79.264483 
L 109.167751 -80.693275 
L 109.708458 -82.13636 
L 110.249165 -83.592483 
L 110.789872 -85.060398 
L 111.330579 -86.538863 
L 111.871286 -88.02665 
L 112.411994 -89.522541 
L 112.952701 -91.025331 
L 113.493408 -92.533829 
L 114.034115 -94.04686 
L 114.574822 -95.563269 
L 115.115529 -97.081916 
L 115.656236 -98.601686 
L 116.196943 -100.121483 
L 116.737651 -101.640232 
L 117.278358 -103.156886 
L 117.819065 -104.67042 
L 118.359772 -106.179837 
L 118.900479 -107.684164 
L 119.441186 -109.182459 
L 119.981893 -110.673807 
L 120.522601 -112.157323 
L 121.063308 -113.632152 
L 121.604015 -115.097467 
L 122.144722 -116.552477 
L 122.685429 -117.996417 
L 123.226136 -119.428558 
L 123.766843 -120.848201 
L 124.30755 -122.254681 
L 124.848258 -123.647363 
L 125.388965 -125.025648 
L 125.929672 -126.388967 
L 126.470379 -127.736784 
L 127.011086 -129.068597 
L 127.551793 -130.383936 
L 128.0925 -131.682362 
L 128.633208 -132.963469 
L 129.173915 -134.226884 
L 129.714622 -135.472262 
L 130.255329 -136.699292 
L 130.796036 -137.907693 
L 131.336743 -139.097211 
L 131.87745 -140.267627 
L 132.418157 -141.418745 
L 132.958865 -142.550401 
L 133.499572 -143.662458 
L 134.040279 -144.754806 
L 134.580986 -145.827359 
L 135.121693 -146.88006 
L 135.6624 -147.912875 
L 136.203107 -148.925794 
L 136.743815 -149.91883 
L 137.284522 -150.892019 
L 137.825229 -151.845419 
L 138.365936 -152.779107 
L 138.906643 -153.693181 
L 139.44735 -154.587759 
L 139.988057 -155.462975 
L 140.528764 -156.318982 
L 141.069472 -157.155949 
L 141.610179 -157.974061 
L 142.150886 -158.773516 
L 142.691593 -159.554528 
L 143.2323 -160.317323 
L 143.773007 -161.062138 
L 144.313714 -161.789225 
L 144.854422 -162.498842 
L 145.395129 -163.191259 
L 145.935836 -163.866756 
L 146.476543 -164.525619 
L 147.01725 -165.168141 
L 147.557957 -165.794625 
L 148.098664 -166.405377 
L 148.639371 -167.000708 
L 149.180079 -167.580935 
L 149.720786 -168.146378 
L 150.261493 -168.697361 
L 150.8022 -169.234208 
L 151.342907 -169.757248 
L 151.883614 -170.26681 
L 152.424321 -170.763223 
L 152.965029 -171.246818 
L 153.505736 -171.717924 
L 154.046443 -172.176871 
L 154.58715 -172.623986 
L 155.127857 -173.059595 
L 155.668564 -173.484022 
L 156.209271 -173.897589 
L 156.749978 -174.300613 
L 157.290686 -174.693411 
L 157.831393 -175.076295 
L 158.3721 -175.449571 
L 158.912807 -175.813544 
L 159.453514 -176.168513 
L 159.994221 -176.514772 
L 160.534928 -176.852612 
L 161.075636 -177.182316 
L 161.616343 -177.504165 
L 162.15705 -177.818432 
L 162.697757 -178.125385 
L 163.238464 -178.425287 
L 163.779171 -178.718395 
L 164.319878 -179.004959 
L 164.860585 -179.285225 
L 165.401293 -179.55943 
L 165.942 -179.827808 
L 166.482707 -180.090585 
L 167.023414 -180.347982 
L 167.564121 -180.600211 
L 168.104828 -180.847482 
L 168.645535 -181.089996 
L 169.186243 -181.327949 
L 169.72695 -181.561529 
L 170.267657 -181.790921 
L 170.808364 -182.016301 
L 171.349071 -182.237841 
L 171.889778 -182.455707 
L 172.430485 -182.670058 
L 172.971193 -182.881049 
L 173.5119 -183.088827 
L 174.052607 -183.293535 
L 174.593314 -183.49531 
L 175.134021 -183.694286 
L 175.674728 -183.890587 
L 176.215435 -184.084336 
L 176.756142 -184.27565 
L 177.29685 -184.46464 
L 177.837557 -184.651413 
L 178.378264 -184.83607 
L 178.918971 -185.018711 
L 179.459678 -185.199428 
L 180.000385 -185.37831 
L 180.541092 -185.555442 
L 181.0818 -185.730904 
L 181.622507 -185.904774 
L 182.163214 -186.077125 
L 182.703921 -186.248025 
L 183.244628 -186.41754 
L 183.785335 -186.585734 
L 184.326042 -186.752664 
L 184.866749 -186.918387 
L 185.407457 -187.082955 
L 185.948164 -187.246419 
L 186.488871 -187.408825 
L 187.029578 -187.570217 
L 187.570285 -187.730638 
L 188.110992 -187.890125 
L 188.651699 -188.048715 
L 189.192407 -188.206444 
L 189.733114 -188.363342 
L 190.273821 -188.51944 
L 190.814528 -188.674766 
L 191.355235 -188.829346 
L 191.895942 -188.983203 
L 192.436649 -189.136361 
L 192.977356 -189.288839 
L 193.518064 -189.440658 
L 194.058771 -189.591834 
L 194.599478 -189.742384 
L 195.140185 -189.892322 
L 195.680892 -190.041663 
L 196.221599 -190.190417 
L 196.762306 -190.338598 
L 197.303014 -190.486213 
L 197.843721 -190.633273 
L 198.384428 -190.779786 
L 198.925135 -190.925758 
L 199.465842 -191.071196 
L 200.006549 -191.216106 
L 200.547256 -191.360491 
L 201.087963 -191.504356 
L 201.628671 -191.647705 
L 202.169378 -191.79054 
L 202.710085 -191.932862 
L 203.250792 -192.074675 
L 203.791499 -192.215978 
L 204.332206 -192.356773 
L 204.872913 -192.49706 
L 205.413621 -192.636838 
L 205.954328 -192.776107 
L 206.495035 -192.914866 
L 207.035742 -193.053113 
L 207.576449 -193.190849 
L 208.117156 -193.32807 
L 208.657863 -193.464774 
L 209.19857 -193.600961 
L 209.739278 -193.736627 
L 210.279985 -193.871769 
L 210.820692 -194.006386 
L 211.361399 -194.140474 
L 211.902106 -194.274031 
L 212.442813 -194.407054 
L 212.98352 -194.539539 
L 213.524228 -194.671485 
L 214.064935 -194.802886 
L 214.605642 -194.933741 
L 215.146349 -195.064046 
L 215.687056 -195.193798 
L 216.227763 -195.322994 
L 216.76847 -195.451631 
L 217.309177 -195.579705 
L 217.849885 -195.707213 
L 218.390592 -195.834152 
L 218.931299 -195.96052 
L 219.472006 -196.086313 
L 220.012713 -196.211528 
L 220.55342 -196.336163 
L 221.094127 -196.460214 
L 221.634835 -196.583679 
L 222.175542 -196.706555 
L 222.716249 -196.828839 
L 223.256956 -196.95053 
L 223.797663 -197.071623 
L 224.33837 -197.192118 
L 224.879077 -197.312012 
L 225.419784 -197.431303 
L 225.960492 -197.549989 
L 226.501199 -197.668067 
L 227.041906 -197.785536 
L 227.582613 -197.902394 
L 228.12332 -198.01864 
L 228.664027 -198.134272 
L 229.204734 -198.249288 
L 229.745442 -198.363688 
L 230.286149 -198.477469 
L 230.826856 -198.590631 
L 231.367563 -198.703174 
L 231.90827 -198.815095 
L 232.448977 -198.926394 
L 232.989684 -199.03707 
L 233.530392 -199.147124 
L 234.071099 -199.256553 
L 234.611806 -199.365359 
L 235.152513 -199.47354 
L 235.69322 -199.581097 
L 236.233927 -199.68803 
L 236.774634 -199.794338 
L 237.315341 -199.900022 
L 237.856049 -200.005082 
L 238.396756 -200.109518 
L 238.937463 -200.213331 
L 239.47817 -200.316522 
L 240.018877 -200.41909 
L 240.559584 -200.521038 
L 241.100291 -200.622365 
L 241.640999 -200.723072 
L 242.181706 -200.823161 
L 242.722413 -200.922633 
L 243.26312 -201.021489 
L 243.803827 -201.11973 
L 244.344534 -201.217358 
L 244.885241 -201.314374 
L 245.425948 -201.41078 
L 245.966656 -201.506578 
L 246.507363 -201.601768 
L 247.04807 -201.696354 
L 247.588777 -201.790336 
L 247.588777 -201.865667 
L 247.588777 -201.865667 
L 247.04807 -201.865667 
L 246.507363 -201.865667 
L 245.966656 -201.865667 
L 245.425948 -201.865667 
L 244.885241 -201.865667 
L 244.344534 -201.865667 
L 243.803827 -201.865667 
L 243.26312 -201.865667 
L 242.722413 -201.865667 
L 242.181706 -201.865667 
L 241.640999 -201.865667 
L 241.100291 -201.865667 
L 240.559584 -201.865667 
L 240.018877 -201.865667 
L 239.47817 -201.865667 
L 238.937463 -201.865667 
L 238.396756 -201.865667 
L 237.856049 -201.865667 
L 237.315341 -201.865667 
L 236.774634 -201.865667 
L 236.233927 -201.865667 
L 235.69322 -201.865667 
L 235.152513 -201.865667 
L 234.611806 -201.865667 
L 234.071099 -201.865667 
L 233.530392 -201.865667 
L 232.989684 -201.865667 
L 232.448977 -201.865667 
L 231.90827 -201.865667 
L 231.367563 -201.865667 
L 230.826856 -201.865667 
L 230.286149 -201.865667 
L 229.745442 -201.865667 
L 229.204734 -201.865667 
L 228.664027 -201.865667 
L 228.12332 -201.865667 
L 227.582613 -201.865667 
L 227.041906 -201.865667 
L 226.501199 -201.865667 
L 225.960492 -201.865667 
L 225.419784 -201.865667 
L 224.879077 -201.865667 
L 224.33837 -201.865667 
L 223.797663 -201.865667 
L 223.256956 -201.865667 
L 222.716249 -201.865667 
L 222.175542 -201.865667 
L 221.634835 -201.865667 
L 221.094127 -201.865667 
L 220.55342 -201.865667 
L 220.012713 -201.865667 
L 219.472006 -201.865667 
L 218.931299 -201.865667 
L 218.390592 -201.865667 
L 217.849885 -201.865667 
L 217.309177 -201.865667 
L 216.76847 -201.865667 
L 216.227763 -201.865667 
L 215.687056 -201.865667 
L 215.146349 -201.865667 
L 214.605642 -201.865667 
L 214.064935 -201.865667 
L 213.524228 -201.865667 
L 212.98352 -201.865667 
L 212.442813 -201.865667 
L 211.902106 -201.865667 
L 211.361399 -201.865667 
L 210.820692 -201.865667 
L 210.279985 -201.865667 
L 209.739278 -201.865667 
L 209.19857 -201.865667 
L 208.657863 -201.865667 
L 208.117156 -201.865667 
L 207.576449 -201.865667 
L 207.035742 -201.865667 
L 206.495035 -201.865667 
L 205.954328 -201.865667 
L 205.413621 -201.865667 
L 204.872913 -201.865667 
L 204.332206 -201.865667 
L 203.791499 -201.865667 
L 203.250792 -201.865667 
L 202.710085 -201.865667 
L 202.169378 -201.865667 
L 201.628671 -201.865667 
L 201.087963 -201.865667 
L 200.547256 -201.865667 
L 200.006549 -201.865667 
L 199.465842 -201.865667 
L 198.925135 -201.865667 
L 198.384428 -201.865667 
L 197.843721 -201.865667 
L 197.303014 -201.865667 
L 196.762306 -201.865667 
L 196.221599 -201.865667 
L 195.680892 -201.865667 
L 195.140185 -201.865667 
L 194.599478 -201.865667 
L 194.058771 -201.865667 
L 193.518064 -201.865667 
L 192.977356 -201.865667 
L 192.436649 -201.865667 
L 191.895942 -201.865667 
L 191.355235 -201.865667 
L 190.814528 -201.865667 
L 190.273821 -201.865667 
L 189.733114 -201.865667 
L 189.192407 -201.865667 
L 188.651699 -201.865667 
L 188.110992 -201.865667 
L 187.570285 -201.865667 
L 187.029578 -201.865667 
L 186.488871 -201.865667 
L 185.948164 -201.865667 
L 185.407457 -201.865667 
L 184.866749 -201.865667 
L 184.326042 -201.865667 
L 183.785335 -201.865667 
L 183.244628 -201.865667 
L 182.703921 -201.865667 
L 182.163214 -201.865667 
L 181.622507 -201.865667 
L 181.0818 -201.865667 
L 180.541092 -201.865667 
L 180.000385 -201.865667 
L 179.459678 -201.865667 
L 178.918971 -201.865667 
L 178.378264 -201.865667 
L 177.837557 -201.865667 
L 177.29685 -201.865667 
L 176.756142 -201.865667 
L 176.215435 -201.865667 
L 175.674728 -201.865667 
L 175.134021 -201.865667 
L 174.593314 -201.865667 
L 174.052607 -201.865667 
L 173.5119 -201.865667 
L 172.971193 -201.865667 
L 172.430485 -201.865667 
L 171.889778 -201.865667 
L 171.349071 -201.865667 
L 170.808364 -201.865667 
L 170.267657 -201.865667 
L 169.72695 -201.865667 
L 169.186243 -201.865667 
L 168.645535 -201.865667 
L 168.104828 -201.865667 
L 167.564121 -201.865667 
L 167.023414 -201.865667 
L 166.482707 -201.865667 
L 165.942 -201.865667 
L 165.401293 -201.865667 
L 164.860585 -201.865667 
L 164.319878 -201.865667 
L 163.779171 -201.865667 
L 163.238464 -201.865667 
L 162.697757 -201.865667 
L 162.15705 -201.865667 
L 161.616343 -201.865667 
L 161.075636 -201.865667 
L 160.534928 -201.865667 
L 159.994221 -201.865667 
L 159.453514 -201.865667 
L 158.912807 -201.865667 
L 158.3721 -201.865667 
L 157.831393 -201.865667 
L 157.290686 -201.865667 
L 156.749978 -201.865667 
L 156.209271 -201.865667 
L 155.668564 -201.865667 
L 155.127857 -201.865667 
L 154.58715 -201.865667 
L 154.046443 -201.865667 
L 153.505736 -201.865667 
L 152.965029 -201.865667 
L 152.424321 -201.865667 
L 151.883614 -201.865667 
L 151.342907 -201.865667 
L 150.8022 -201.865667 
L 150.261493 -201.865667 
L 149.720786 -201.865667 
L 149.180079 -201.865667 
L 148.639371 -201.865667 
L 148.098664 -201.865667 
L 147.557957 -201.865667 
L 147.01725 -201.865667 
L 146.476543 -201.865667 
L 145.935836 -201.865667 
L 145.395129 -201.865667 
L 144.854422 -201.865667 
L 144.313714 -201.865667 
L 143.773007 -201.865667 
L 143.2323 -201.865667 
L 142.691593 -201.865667 
L 142.150886 -201.865667 
L 141.610179 -201.865667 
L 141.069472 -201.865667 
L 140.528764 -201.865667 
L 139.988057 -201.865667 
L 139.44735 -201.865667 
L 138.906643 -201.865667 
L 138.365936 -201.865667 
L 137.825229 -201.865667 
L 137.284522 -201.865667 
L 136.743815 -201.865667 
L 136.203107 -201.865667 
L 135.6624 -201.865667 
L 135.121693 -201.865667 
L 134.580986 -201.865667 
L 134.040279 -201.865667 
L 133.499572 -201.865667 
L 132.958865 -201.865667 
L 132.418157 -201.865667 
L 131.87745 -201.865667 
L 131.336743 -201.865667 
L 130.796036 -201.865667 
L 130.255329 -201.865667 
L 129.714622 -201.865667 
L 129.173915 -201.865667 
L 128.633208 -201.865667 
L 128.0925 -201.865667 
L 127.551793 -201.865667 
L 127.011086 -201.865667 
L 126.470379 -201.865667 
L 125.929672 -201.865667 
L 125.388965 -201.865667 
L 124.848258 -201.865667 
L 124.30755 -201.865667 
L 123.766843 -201.865667 
L 123.226136 -201.865667 
L 122.685429 -201.865667 
L 122.144722 -201.865667 
L 121.604015 -201.865667 
L 121.063308 -201.865667 
L 120.522601 -201.865667 
L 119.981893 -201.865667 
L 119.441186 -201.865667 
L 118.900479 -201.865667 
L 118.359772 -201.865667 
L 117.819065 -201.865667 
L 117.278358 -201.865667 
L 116.737651 -201.865667 
L 116.196943 -201.865667 
L 115.656236 -201.865667 
L 115.115529 -201.865667 
L 114.574822 -201.865667 
L 114.034115 -201.865667 
L 113.493408 -201.865667 
L 112.952701 -201.865667 
L 112.411994 -201.865667 
L 111.871286 -201.865667 
L 111.330579 -201.865667 
L 110.789872 -201.865667 
L 110.249165 -201.865667 
L 109.708458 -201.865667 
L 109.167751 -201.865667 
L 108.627044 -201.865667 
L 108.086336 -201.865667 
L 107.545629 -201.865667 
L 107.004922 -201.865667 
L 106.464215 -201.865667 
L 105.923508 -201.865667 
L 105.382801 -201.865667 
L 104.842094 -201.865667 
L 104.301386 -201.865667 
L 103.760679 -201.865667 
L 103.219972 -201.865667 
L 102.679265 -201.865667 
L 102.138558 -201.865667 
L 101.597851 -201.865667 
L 101.057144 -201.865667 
L 100.516437 -201.865667 
L 99.975729 -201.865667 
L 99.435022 -201.865667 
L 98.894315 -201.865667 
L 98.353608 -201.865667 
L 97.812901 -201.865667 
L 97.272194 -201.865667 
L 96.731487 -201.865667 
L 96.190779 -201.865667 
L 95.650072 -201.865667 
L 95.109365 -201.865667 
L 94.568658 -201.865667 
L 94.027951 -201.865667 
L 93.487244 -201.865667 
L 92.946537 -201.865667 
L 92.40583 -201.865667 
L 91.865122 -201.865667 
L 91.324415 -201.865667 
L 90.783708 -201.865667 
L 90.243001 -201.865667 
L 89.702294 -201.865667 
L 89.161587 -201.865667 
L 88.62088 -201.865667 
L 88.080172 -201.865667 
L 87.539465 -201.865667 
L 86.998758 -201.865667 
L 86.458051 -201.865667 
L 85.917344 -201.865667 
L 85.376637 -201.865667 
L 84.83593 -201.865667 
L 84.295223 -201.865667 
L 83.754515 -201.865667 
L 83.213808 -201.865667 
L 82.673101 -201.865667 
L 82.132394 -201.865667 
L 81.591687 -201.865667 
L 81.05098 -201.865667 
L 80.510273 -201.865667 
L 79.969565 -201.865667 
L 79.428858 -201.865667 
L 78.888151 -201.865667 
L 78.347444 -201.865667 
L 77.806737 -201.865667 
L 77.26603 -201.865667 
L 76.725323 -201.865667 
L 76.184616 -201.865667 
L 75.643908 -201.865667 
L 75.103201 -201.865667 
L 74.562494 -201.865667 
L 74.021787 -201.865667 
L 73.48108 -201.865667 
L 72.940373 -201.865667 
L 72.399666 -201.865667 
L 71.858958 -201.865667 
L 71.318251 -201.865667 
L 70.777544 -201.865667 
L 70.236837 -201.865667 
L 69.69613 -201.865667 
L 69.155423 -201.865667 
L 68.614716 -201.865667 
L 68.074009 -201.865667 
L 67.533301 -201.865667 
L 66.992594 -201.865667 
L 66.451887 -201.865667 
L 65.91118 -201.865667 
L 65.370473 -201.865667 
L 64.829766 -201.865667 
L 64.289059 -201.865667 
L 63.748351 -201.865667 
L 63.207644 -201.865667 
L 62.666937 -201.865667 
L 62.12623 -201.865667 
L 61.585523 -201.865667 
L 61.044816 -201.865667 
L 60.504109 -201.865667 
L 59.963402 -201.865667 
L 59.422694 -201.865667 
L 58.881987 -201.865667 
L 58.34128 -201.865667 
L 57.800573 -201.865667 
L 57.259866 -201.865667 
L 56.719159 -201.865667 
L 56.178452 -201.865667 
L 55.637744 -201.865667 
L 55.097037 -201.865667 
L 54.55633 -201.865667 
L 54.015623 -201.865667 
L 53.474916 -201.865667 
L 52.934209 -201.865667 
L 52.393502 -201.865667 
L 51.852795 -201.865667 
L 51.312087 -201.865667 
L 50.77138 -201.865667 
L 50.230673 -201.865667 
L 49.689966 -201.865667 
L 49.149259 -201.865667 
L 48.608552 -201.865667 
L 48.067845 -201.865667 
L 47.527137 -201.865667 
L 46.98643 -201.865667 
L 46.445723 -201.865667 
L 45.905016 -201.865667 
L 45.364309 -201.865667 
L 44.823602 -201.865667 
L 44.282895 -201.865667 
L 43.742188 -201.865667 
z
" style="stroke: #4a90d9; stroke-opacity: 0.18"/>
    </defs>
    <g clip-path="url(#pcce3978a43)">
     <use xlink:href="#ma12e26fe6a" x="0" y="251.19625" style="fill: #4a90d9; fill-opacity: 0.18; stroke: #4a90d9; stroke-opacity: 0.18"/>
    </g>
   </g>
   <g id="matplotlib.axis_1">
    <g id="xtick_1">
     <g id="line2d_1">
      <defs>
       <path id="mb8d35a110f" d="M 0 0 
L 0 3.5 
" style="stroke: #000000; stroke-width: 0.8"/>
      </defs>
      <g>
       <use xlink:href="#mb8d35a110f" x="43.742188" y="213.64" style="stroke: #000000; stroke-width: 0.8"/>
      </g>
     </g>
     <g id="text_1">
      <!-- 0 -->
      <g transform="translate(40.560938 228.238437) scale(0.1 -0.1)">
       <defs>
        <path id="DejaVuSans-30" d="M 2034 4250 
Q 1547 4250 1301 3770 
Q 1056 3291 1056 2328 
Q 1056 1369 1301 889 
Q 1547 409 2034 409 
Q 2525 409 2770 889 
Q 3016 1369 3016 2328 
Q 3016 3291 2770 3770 
Q 2525 4250 2034 4250 
z
M 2034 4750 
Q 2819 4750 3233 4129 
Q 3647 3509 3647 2328 
Q 3647 1150 3233 529 
Q 2819 -91 2034 -91 
Q 1250 -91 836 529 
Q 422 1150 422 2328 
Q 422 3509 836 4129 
Q 1250 4750 2034 4750 
z
" transform="scale(0.015625)"/>
       </defs>
       <use xlink:href="#DejaVuSans-30"/>
      </g>
     </g>
    </g>
    <g id="xtick_2">
     <g id="line2d_2">
      <g>
       <use xlink:href="#mb8d35a110f" x="130.147188" y="213.64" style="stroke: #000000; stroke-width: 0.8"/>
      </g>
     </g>
     <g id="text_2">
      <!-- 20 -->
      <g transform="translate(123.784688 228.238437) scale(0.1 -0.1)">
       <defs>
        <path id="DejaVuSans-32" d="M 1228 531 
L 3431 531 
L 3431 0 
L 469 0 
L 469 531 
Q 828 903 1448 1529 
Q 2069 2156 2228 2338 
Q 2531 2678 2651 2914 
Q 2772 3150 2772 3378 
Q 2772 3750 2511 3984 
Q 2250 4219 1831 4219 
Q 1534 4219 1204 4116 
Q 875 4013 500 3803 
L 500 4441 
Q 881 4594 1212 4672 
Q 1544 4750 1819 4750 
Q 2544 4750 2975 4387 
Q 3406 4025 3406 3419 
Q 3406 3131 3298 2873 
Q 3191 2616 2906 2266 
Q 2828 2175 2409 1742 
Q 1991 1309 1228 531 
z
" transform="scale(0.015625)"/>
       </defs>
       <use xlink:href="#DejaVuSans-32"/>
       <use xlink:href="#DejaVuSans-30" x="63.623047"/>
      </g>
     </g>
    </g>
    <g id="xtick_3">
     <g id="line2d_3">
      <g>
       <use xlink:href="#mb8d35a110f" x="216.552188" y="213.64" style="stroke: #000000; stroke-width: 0.8"/>
      </g>
     </g>
     <g id="text_3">
      <!-- 40 -->
      <g transform="translate(210.189687 228.238437) scale(0.1 -0.1)">
       <defs>
        <path id="DejaVuSans-34" d="M 2419 4116 
L 825 1625 
L 2419 1625 
L 2419 4116 
z
M 2253 4666 
L 3047 4666 
L 3047 1625 
L 3713 1625 
L 3713 1100 
L 3047 1100 
L 3047 0 
L 2419 0 
L 2419 1100 
L 313 1100 
L 313 1709 
L 2253 4666 
z
" transform="scale(0.015625)"/>
       </defs>
       <use xlink:href="#DejaVuSans-34"/>
       <use xlink:href="#DejaVuSans-30" x="63.623047"/>
      </g>
     </g>
    </g>
    <g id="xtick_4">
     <g id="line2d_4">
      <g>
       <use xlink:href="#mb8d35a110f" x="302.957187" y="213.64" style="stroke: #000000; stroke-width: 0.8"/>
      </g>
     </g>
     <g id="text_4">
      <!-- 60 -->
      <g transform="translate(296.594687 228.238437) scale(0.1 -0.1)">
       <defs>
        <path id="DejaVuSans-36" d="M 2113 2584 
Q 1688 2584 1439 2293 
Q 1191 2003 1191 1497 
Q 1191 994 1439 701 
Q 1688 409 2113 409 
Q 2538 409 2786 701 
Q 3034 994 3034 1497 
Q 3034 2003 2786 2293 
Q 2538 2584 2113 2584 
z
M 3366 4563 
L 3366 3988 
Q 3128 4100 2886 4159 
Q 2644 4219 2406 4219 
Q 1781 4219 1451 3797 
Q 1122 3375 1075 2522 
Q 1259 2794 1537 2939 
Q 1816 3084 2150 3084 
Q 2853 3084 3261 2657 
Q 3669 2231 3669 1497 
Q 3669 778 3244 343 
Q 2819 -91 2113 -91 
Q 1303 -91 875 529 
Q 447 1150 447 2328 
Q 447 3434 972 4092 
Q 1497 4750 2381 4750 
Q 2619 4750 2861 4703 
Q 3103 4656 3366 4563 
z
" transform="scale(0.015625)"/>
       </defs>
       <use xlink:href="#DejaVuSans-36"/>
       <use xlink:href="#DejaVuSans-30" x="63.623047"/>
      </g>
     </g>
    </g>
    <g id="xtick_5">
     <g id="line2d_5">
      <g>
       <use xlink:href="#mb8d35a110f" x="389.362188" y="213.64" style="stroke: #000000; stroke-width: 0.8"/>
      </g>
     </g>
     <g id="text_5">
      <!-- 80 -->
      <g transform="translate(382.999687 228.238437) scale(0.1 -0.1)">
       <defs>
        <path id="DejaVuSans-38" d="M 2034 2216 
Q 1584 2216 1326 1975 
Q 1069 1734 1069 1313 
Q 1069 891 1326 650 
Q 1584 409 2034 409 
Q 2484 409 2743 651 
Q 3003 894 3003 1313 
Q 3003 1734 2745 1975 
Q 2488 2216 2034 2216 
z
M 1403 2484 
Q 997 2584 770 2862 
Q 544 3141 544 3541 
Q 544 4100 942 4425 
Q 1341 4750 2034 4750 
Q 2731 4750 3128 4425 
Q 3525 4100 3525 3541 
Q 3525 3141 3298 2862 
Q 3072 2584 2669 2484 
Q 3125 2378 3379 2068 
Q 3634 1759 3634 1313 
Q 3634 634 3220 271 
Q 2806 -91 2034 -91 
Q 1263 -91 848 271 
Q 434 634 434 1313 
Q 434 1759 690 2068 
Q 947 2378 1403 2484 
z
M 1172 3481 
Q 1172 3119 1398 2916 
Q 1625 2713 2034 2713 
Q 2441 2713 2670 2916 
Q 2900 3119 2900 3481 
Q 2900 3844 2670 4047 
Q 2441 4250 2034 4250 
Q 1625 4250 1398 4047 
Q 1172 3844 1172 3481 
z
" transform="scale(0.015625)"/>
       </defs>
       <use xlink:href="#DejaVuSans-38"/>
       <use xlink:href="#DejaVuSans-30" x="63.623047"/>
      </g>
     </g>
    </g>
    <g id="xtick_6">
     <g id="line2d_6">
      <g>
       <use xlink:href="#mb8d35a110f" x="475.767187" y="213.64" style="stroke: #000000; stroke-width: 0.8"/>
      </g>
     </g>
     <g id="text_6">
      <!-- 100 -->
      <g transform="translate(466.223437 228.238437) scale(0.1 -0.1)">
       <defs>
        <path id="DejaVuSans-31" d="M 794 531 
L 1825 531 
L 1825 4091 
L 703 3866 
L 703 4441 
L 1819 4666 
L 2450 4666 
L 2450 531 
L 3481 531 
L 3481 0 
L 794 0 
L 794 531 
z
" transform="scale(0.015625)"/>
       </defs>
       <use xlink:href="#DejaVuSans-31"/>
       <use xlink:href="#DejaVuSans-30" x="63.623047"/>
       <use xlink:href="#DejaVuSans-30" x="127.246094"/>
      </g>
     </g>
    </g>
    <g id="text_7">
     <!-- SOC (%) -->
     <g transform="translate(238.911719 241.916562) scale(0.1 -0.1)">
      <defs>
       <path id="DejaVuSans-53" d="M 3425 4513 
L 3425 3897 
Q 3066 4069 2747 4153 
Q 2428 4238 2131 4238 
Q 1616 4238 1336 4038 
Q 1056 3838 1056 3469 
Q 1056 3159 1242 3001 
Q 1428 2844 1947 2747 
L 2328 2669 
Q 3034 2534 3370 2195 
Q 3706 1856 3706 1288 
Q 3706 609 3251 259 
Q 2797 -91 1919 -91 
Q 1588 -91 1214 -16 
Q 841 59 441 206 
L 441 856 
Q 825 641 1194 531 
Q 1563 422 1919 422 
Q 2459 422 2753 634 
Q 3047 847 3047 1241 
Q 3047 1584 2836 1778 
Q 2625 1972 2144 2069 
L 1759 2144 
Q 1053 2284 737 2584 
Q 422 2884 422 3419 
Q 422 4038 858 4394 
Q 1294 4750 2059 4750 
Q 2388 4750 2728 4690 
Q 3069 4631 3425 4513 
z
" transform="scale(0.015625)"/>
       <path id="DejaVuSans-4f" d="M 2522 4238 
Q 1834 4238 1429 3725 
Q 1025 3213 1025 2328 
Q 1025 1447 1429 934 
Q 1834 422 2522 422 
Q 3209 422 3611 934 
Q 4013 1447 4013 2328 
Q 4013 3213 3611 3725 
Q 3209 4238 2522 4238 
z
M 2522 4750 
Q 3503 4750 4090 4092 
Q 4678 3434 4678 2328 
Q 4678 1225 4090 567 
Q 3503 -91 2522 -91 
Q 1538 -91 948 565 
Q 359 1222 359 2328 
Q 359 3434 948 4092 
Q 1538 4750 2522 4750 
z
" transform="scale(0.015625)"/>
       <path id="DejaVuSans-43" d="M 4122 4306 
L 4122 3641 
Q 3803 3938 3442 4084 
Q 3081 4231 2675 4231 
Q 1875 4231 1450 3742 
Q 1025 3253 1025 2328 
Q 1025 1406 1450 917 
Q 1875 428 2675 428 
Q 3081 428 3442 575 
Q 3803 722 4122 1019 
L 4122 359 
Q 3791 134 3420 21 
Q 3050 -91 2638 -91 
Q 1578 -91 968 557 
Q 359 1206 359 2328 
Q 359 3453 968 4101 
Q 1578 4750 2638 4750 
Q 3056 4750 3426 4639 
Q 3797 4528 4122 4306 
z
" transform="scale(0.015625)"/>
       <path id="DejaVuSans-20" transform="scale(0.015625)"/>
       <path id="DejaVuSans-28" d="M 1984 4856 
Q 1566 4138 1362 3434 
Q 1159 2731 1159 2009 
Q 1159 1288 1364 580 
Q 1569 -128 1984 -844 
L 1484 -844 
Q 1016 -109 783 600 
Q 550 1309 550 2009 
Q 550 2706 781 3412 
Q 1013 4119 1484 4856 
L 1984 4856 
z
" transform="scale(0.015625)"/>
       <path id="DejaVuSans-25" d="M 4653 2053 
Q 4381 2053 4226 1822 
Q 4072 1591 4072 1178 
Q 4072 772 4226 539 
Q 4381 306 4653 306 
Q 4919 306 5073 539 
Q 5228 772 5228 1178 
Q 5228 1588 5073 1820 
Q 4919 2053 4653 2053 
z
M 4653 2450 
Q 5147 2450 5437 2106 
Q 5728 1763 5728 1178 
Q 5728 594 5436 251 
Q 5144 -91 4653 -91 
Q 4153 -91 3862 251 
Q 3572 594 3572 1178 
Q 3572 1766 3864 2108 
Q 4156 2450 4653 2450 
z
M 1428 4353 
Q 1159 4353 1004 4120 
Q 850 3888 850 3481 
Q 850 3069 1003 2837 
Q 1156 2606 1428 2606 
Q 1700 2606 1854 2837 
Q 2009 3069 2009 3481 
Q 2009 3884 1853 4118 
Q 1697 4353 1428 4353 
z
M 4250 4750 
L 4750 4750 
L 1831 -91 
L 1331 -91 
L 4250 4750 
z
M 1428 4750 
Q 1922 4750 2215 4408 
Q 2509 4066 2509 3481 
Q 2509 2891 2217 2550 
Q 1925 2209 1428 2209 
Q 931 2209 642 2551 
Q 353 2894 353 3481 
Q 353 4063 643 4406 
Q 934 4750 1428 4750 
z
" transform="scale(0.015625)"/>
       <path id="DejaVuSans-29" d="M 513 4856 
L 1013 4856 
Q 1481 4119 1714 3412 
Q 1947 2706 1947 2009 
Q 1947 1309 1714 600 
Q 1481 -109 1013 -844 
L 513 -844 
Q 928 -128 1133 580 
Q 1338 1288 1338 2009 
Q 1338 2731 1133 3434 
Q 928 4138 513 4856 
z
" transform="scale(0.015625)"/>
      </defs>
      <use xlink:href="#DejaVuSans-53"/>
      <use xlink:href="#DejaVuSans-4f" x="63.476562"/>
      <use xlink:href="#DejaVuSans-43" x="142.1875"/>
      <use xlink:href="#DejaVuSans-20" x="212.011719"/>
      <use xlink:href="#DejaVuSans-28" x="243.798828"/>
      <use xlink:href="#DejaVuSans-25" x="282.8125"/>
      <use xlink:href="#DejaVuSans-29" x="377.832031"/>
     </g>
    </g>
   </g>
   <g id="matplotlib.axis_2">
    <g id="ytick_1">
     <g id="line2d_7">
      <defs>
       <path id="mda33122569" d="M 0 0 
L -3.5 0 
" style="stroke: #000000; stroke-width: 0.8"/>
      </defs>
      <g>
       <use xlink:href="#mda33122569" x="43.742188" y="190.915712" style="stroke: #000000; stroke-width: 0.8"/>
      </g>
     </g>
     <g id="text_8">
      <!-- −4 -->
      <g transform="translate(22 194.714931) scale(0.1 -0.1)">
       <defs>
        <path id="DejaVuSans-2212" d="M 678 2272 
L 4684 2272 
L 4684 1741 
L 678 1741 
L 678 2272 
z
" transform="scale(0.015625)"/>
       </defs>
       <use xlink:href="#DejaVuSans-2212"/>
       <use xlink:href="#DejaVuSans-34" x="83.789062"/>
      </g>
     </g>
    </g>
    <g id="ytick_2">
     <g id="line2d_8">
      <g>
       <use xlink:href="#mda33122569" x="43.742188" y="155.51943" style="stroke: #000000; stroke-width: 0.8"/>
      </g>
     </g>
     <g id="text_9">
      <!-- −3 -->
      <g transform="translate(22 159.318649) scale(0.1 -0.1)">
       <defs>
        <path id="DejaVuSans-33" d="M 2597 2516 
Q 3050 2419 3304 2112 
Q 3559 1806 3559 1356 
Q 3559 666 3084 287 
Q 2609 -91 1734 -91 
Q 1441 -91 1130 -33 
Q 819 25 488 141 
L 488 750 
Q 750 597 1062 519 
Q 1375 441 1716 441 
Q 2309 441 2620 675 
Q 2931 909 2931 1356 
Q 2931 1769 2642 2001 
Q 2353 2234 1838 2234 
L 1294 2234 
L 1294 2753 
L 1863 2753 
Q 2328 2753 2575 2939 
Q 2822 3125 2822 3475 
Q 2822 3834 2567 4026 
Q 2313 4219 1838 4219 
Q 1578 4219 1281 4162 
Q 984 4106 628 3988 
L 628 4550 
Q 988 4650 1302 4700 
Q 1616 4750 1894 4750 
Q 2613 4750 3031 4423 
Q 3450 4097 3450 3541 
Q 3450 3153 3228 2886 
Q 3006 2619 2597 2516 
z
" transform="scale(0.015625)"/>
       </defs>
       <use xlink:href="#DejaVuSans-2212"/>
       <use xlink:href="#DejaVuSans-33" x="83.789062"/>
      </g>
     </g>
    </g>
    <g id="ytick_3">
     <g id="line2d_9">
      <g>
       <use xlink:href="#mda33122569" x="43.742188" y="120.123148" style="stroke: #000000; stroke-width: 0.8"/>
      </g>
     </g>
     <g id="text_10">
      <!-- −2 -->
      <g transform="translate(22 123.922366) scale(0.1 -0.1)">
       <use xlink:href="#DejaVuSans-2212"/>
       <use xlink:href="#DejaVuSans-32" x="83.789062"/>
      </g>
     </g>
    </g>
    <g id="ytick_4">
     <g id="line2d_10">
      <g>
       <use xlink:href="#mda33122569" x="43.742188" y="84.726865" style="stroke: #000000; stroke-width: 0.8"/>
      </g>
     </g>
     <g id="text_11">
      <!-- −1 -->
      <g transform="translate(22 88.526084) scale(0.1 -0.1)">
       <use xlink:href="#DejaVuSans-2212"/>
       <use xlink:href="#DejaVuSans-31" x="83.789062"/>
      </g>
     </g>
    </g>
    <g id="ytick_5">
     <g id="line2d_11">
      <g>
       <use xlink:href="#mda33122569" x="43.742188" y="49.330583" style="stroke: #000000; stroke-width: 0.8"/>
      </g>
     </g>
     <g id="text_12">
      <!-- 0 -->
      <g transform="translate(30.379688 53.129802) scale(0.1 -0.1)">
       <use xlink:href="#DejaVuSans-30"/>
      </g>
     </g>
    </g>
    <g id="ytick_6">
     <g id="line2d_12">
      <g>
       <use xlink:href="#mda33122569" x="43.742188" y="13.9343" style="stroke: #000000; stroke-width: 0.8"/>
      </g>
     </g>
     <g id="text_13">
      <!-- 1 -->
      <g transform="translate(30.379688 17.733519) scale(0.1 -0.1)">
       <use xlink:href="#DejaVuSans-31"/>
      </g>
     </g>
    </g>
    <g id="text_14">
     <!-- $\partial E_{oc}/\partial T\;(\times10^{-4}\ \mathrm{V\,K^{-1}})$ -->
     <g transform="translate(15.920313 163.32) rotate(-90) scale(0.1 -0.1)">
      <defs>
       <path id="DejaVuSans-2202" d="M 1366 -91 
Q 925 -91 638 175 
Q 297 491 297 1063 
Q 297 1656 597 2119 
Q 906 2594 1463 2594 
Q 1828 2594 2116 2366 
Q 2284 2231 2400 2006 
Q 2441 2259 2441 2547 
Q 2441 2969 2341 3213 
Q 2119 3753 1531 3753 
Q 1309 3753 966 3616 
L 966 4141 
Q 1328 4238 1653 4238 
Q 2491 4238 2847 3469 
Q 3013 3106 3013 2566 
Q 3013 2213 2934 1803 
Q 2738 778 2228 291 
Q 1828 -91 1366 -91 
z
M 831 969 
Q 831 656 969 488 
Q 1116 309 1341 309 
Q 1541 309 1700 450 
Q 1925 644 2091 959 
Q 2228 1219 2297 1497 
Q 2019 2169 1538 2169 
Q 1125 2169 944 1625 
Q 831 1288 831 969 
z
" transform="scale(0.015625)"/>
       <path id="DejaVuSans-Oblique-45" d="M 1081 4666 
L 4031 4666 
L 3928 4134 
L 1606 4134 
L 1338 2753 
L 3566 2753 
L 3463 2222 
L 1234 2222 
L 909 531 
L 3284 531 
L 3181 0 
L 172 0 
L 1081 4666 
z
" transform="scale(0.015625)"/>
       <path id="DejaVuSans-Oblique-6f" d="M 1625 -91 
Q 1009 -91 651 289 
Q 294 669 294 1325 
Q 294 1706 417 2101 
Q 541 2497 738 2766 
Q 1047 3184 1428 3384 
Q 1809 3584 2291 3584 
Q 2888 3584 3255 3212 
Q 3622 2841 3622 2241 
Q 3622 1825 3500 1412 
Q 3378 1000 3181 728 
Q 2875 309 2494 109 
Q 2113 -91 1625 -91 
z
M 891 1344 
Q 891 869 1089 633 
Q 1288 397 1691 397 
Q 2269 397 2648 901 
Q 3028 1406 3028 2181 
Q 3028 2634 2825 2865 
Q 2622 3097 2228 3097 
Q 1903 3097 1650 2945 
Q 1397 2794 1197 2484 
Q 1050 2253 970 1956 
Q 891 1659 891 1344 
z
" transform="scale(0.015625)"/>
       <path id="DejaVuSans-Oblique-63" d="M 3431 3366 
L 3316 2797 
Q 3109 2947 2876 3022 
Q 2644 3097 2394 3097 
Q 2119 3097 1870 3000 
Q 1622 2903 1453 2725 
Q 1184 2453 1037 2087 
Q 891 1722 891 1331 
Q 891 859 1127 628 
Q 1363 397 1844 397 
Q 2081 397 2348 469 
Q 2616 541 2906 684 
L 2797 116 
Q 2547 13 2283 -39 
Q 2019 -91 1741 -91 
Q 1044 -91 669 257 
Q 294 606 294 1253 
Q 294 1797 489 2255 
Q 684 2713 1069 3078 
Q 1331 3328 1684 3456 
Q 2038 3584 2456 3584 
Q 2700 3584 2940 3529 
Q 3181 3475 3431 3366 
z
" transform="scale(0.015625)"/>
       <path id="DejaVuSans-2f" d="M 1625 4666 
L 2156 4666 
L 531 -594 
L 0 -594 
L 1625 4666 
z
" transform="scale(0.015625)"/>
       <path id="DejaVuSans-Oblique-54" d="M 378 4666 
L 4325 4666 
L 4225 4134 
L 2559 4134 
L 1759 0 
L 1125 0 
L 1925 4134 
L 275 4134 
L 378 4666 
z
" transform="scale(0.015625)"/>
       <path id="DejaVuSans-d7" d="M 4488 3438 
L 3059 2003 
L 4488 575 
L 4116 197 
L 2681 1631 
L 1247 197 
L 878 575 
L 2303 2003 
L 878 3438 
L 1247 3816 
L 2681 2381 
L 4116 3816 
L 4488 3438 
z
" transform="scale(0.015625)"/>
       <path id="DejaVuSans-56" d="M 1831 0 
L 50 4666 
L 709 4666 
L 2188 738 
L 3669 4666 
L 4325 4666 
L 2547 0 
L 1831 0 
z
" transform="scale(0.015625)"/>
       <path id="DejaVuSans-4b" d="M 628 4666 
L 1259 4666 
L 1259 2694 
L 3353 4666 
L 4166 4666 
L 1850 2491 
L 4331 0 
L 3500 0 
L 1259 2247 
L 1259 0 
L 628 0 
L 628 4666 
z
" transform="scale(0.015625)"/>
      </defs>
      <use xlink:href="#DejaVuSans-2202" transform="translate(0 0.684375)"/>
      <use xlink:href="#DejaVuSans-Oblique-45" transform="translate(51.708984 0.684375)"/>
      <use xlink:href="#DejaVuSans-Oblique-6f" transform="translate(114.892578 -15.721875) scale(0.7)"/>
      <use xlink:href="#DejaVuSans-Oblique-63" transform="translate(157.719727 -15.721875) scale(0.7)"/>
      <use xlink:href="#DejaVuSans-2f" transform="translate(198.94043 0.684375)"/>
      <use xlink:href="#DejaVuSans-2202" transform="translate(232.631836 0.684375)"/>
      <use xlink:href="#DejaVuSans-Oblique-54" transform="translate(284.34082 0.684375)"/>
      <use xlink:href="#DejaVuSans-28" transform="translate(372.48394 0.684375)"/>
      <use xlink:href="#DejaVuSans-d7" transform="translate(411.497612 0.684375)"/>
      <use xlink:href="#DejaVuSans-31" transform="translate(495.286675 0.684375)"/>
      <use xlink:href="#DejaVuSans-30" transform="translate(558.909722 0.684375)"/>
      <use xlink:href="#DejaVuSans-2212" transform="translate(623.4898 38.965625) scale(0.7)"/>
      <use xlink:href="#DejaVuSans-34" transform="translate(682.142144 38.965625) scale(0.7)"/>
      <use xlink:href="#DejaVuSans-56" transform="translate(761.88303 0.684375)"/>
      <use xlink:href="#DejaVuSans-4b" transform="translate(846.526909 0.684375)"/>
      <use xlink:href="#DejaVuSans-2212" transform="translate(913.060112 38.965625) scale(0.7)"/>
      <use xlink:href="#DejaVuSans-31" transform="translate(971.712456 38.965625) scale(0.7)"/>
      <use xlink:href="#DejaVuSans-29" transform="translate(1018.982964 0.684375)"/>
     </g>
    </g>
   </g>
   <g id="line2d_13">
    <path d="M 43.742188 49.330583 
L 475.767187 49.330583 
" clip-path="url(#pcce3978a43)" style="fill: none; stroke-dasharray: 2.96,1.28; stroke-dashoffset: 0; stroke: #aaaaaa; stroke-width: 0.8"/>
   </g>
   <g id="line2d_14">
    <path d="M 43.742188 111.251504 
L 46.445723 117.542255 
L 49.689966 125.687701 
L 53.474916 135.867032 
L 58.881987 151.175905 
L 65.370473 169.445889 
L 68.614716 177.9388 
L 71.318251 184.422346 
L 73.48108 189.10917 
L 75.643908 193.271223 
L 77.26603 196.007635 
L 78.888151 198.385544 
L 80.510273 200.382698 
L 82.132394 201.980282 
L 83.754515 203.163216 
L 84.83593 203.71583 
L 85.917344 204.076874 
L 86.998758 204.244924 
L 88.080172 204.219406 
L 89.161587 204.000601 
L 90.243001 203.589639 
L 91.324415 202.988495 
L 92.40583 202.199969 
L 94.027951 200.673943 
L 95.650072 198.750027 
L 97.272194 196.447319 
L 98.894315 193.788276 
L 101.057144 189.732954 
L 103.219972 185.156957 
L 105.923508 178.817251 
L 109.167751 170.502975 
L 113.493408 158.662421 
L 122.685429 133.199833 
L 126.470379 123.459466 
L 129.714622 115.723988 
L 132.418157 109.777505 
L 135.121693 104.31619 
L 137.825229 99.350831 
L 140.528764 94.877268 
L 143.2323 90.878927 
L 145.935836 87.329494 
L 148.639371 84.195542 
L 151.342907 81.439002 
L 154.046443 79.019379 
L 156.749978 76.895637 
L 159.453514 75.027737 
L 162.697757 73.070865 
L 165.942 71.368442 
L 169.72695 69.634721 
L 174.052607 67.902715 
L 179.459678 65.996822 
L 186.488871 63.787425 
L 195.680892 61.154587 
L 207.035742 58.143137 
L 218.390592 55.362098 
L 229.204734 52.946962 
L 239.47817 50.879728 
L 249.751606 49.035975 
L 260.565748 47.325079 
L 271.920598 45.757505 
L 284.356862 44.269634 
L 298.415248 42.816953 
L 315.177169 41.315358 
L 337.346161 39.569821 
L 371.410711 37.137944 
L 419.533646 33.69898 
L 424.940717 33.061752 
L 428.725667 32.427174 
L 431.96991 31.691967 
L 435.214152 30.724381 
L 437.917688 29.708449 
L 440.621224 28.487384 
L 443.865467 26.760581 
L 447.650417 24.46177 
L 455.220316 19.757756 
L 457.923852 18.391211 
L 460.086681 17.536186 
L 462.249509 16.939306 
L 464.412338 16.62815 
L 466.575166 16.612951 
L 468.737995 16.885537 
L 470.900823 17.420173 
L 473.063652 18.176178 
L 475.767187 19.353215 
L 475.767187 19.353215 
" clip-path="url(#pcce3978a43)" style="fill: none; stroke: #1a1a2e; stroke-width: 1.8; stroke-linecap: square"/>
   </g>
   <g id="line2d_15">
    <path d="M 247.588777 213.64 
L 247.588777 7.2 
" clip-path="url(#pcce3978a43)" style="fill: none; stroke-dasharray: 0.8,1.32; stroke-dashoffset: 0; stroke: #888888; stroke-width: 0.8"/>
   </g>
   <g id="patch_3">
    <path d="M 43.742188 213.64 
L 43.742188 7.2 
" style="fill: none; stroke: #000000; stroke-width: 0.8; stroke-linejoin: miter; stroke-linecap: square"/>
   </g>
   <g id="patch_4">
    <path d="M 43.742188 213.64 
L 475.767187 213.64 
" style="fill: none; stroke: #000000; stroke-width: 0.8; stroke-linejoin: miter; stroke-linecap: square"/>
   </g>
   <g id="text_15">
    <!-- ~47% SOC -->
    <g style="fill: #555555" transform="translate(252.773077 28.092813) scale(0.075 -0.075)">
     <defs>
      <path id="DejaVuSans-7e" d="M 4684 2553 
L 4684 1997 
Q 4356 1750 4076 1644 
Q 3797 1538 3494 1538 
Q 3150 1538 2694 1722 
Q 2659 1734 2644 1741 
Q 2622 1750 2575 1766 
Q 2091 1959 1797 1959 
Q 1522 1959 1253 1839 
Q 984 1719 678 1459 
L 678 2016 
Q 1006 2263 1286 2370 
Q 1566 2478 1869 2478 
Q 2213 2478 2672 2291 
Q 2703 2278 2719 2272 
Q 2744 2263 2788 2247 
Q 3272 2053 3566 2053 
Q 3834 2053 4098 2172 
Q 4363 2291 4684 2553 
z
" transform="scale(0.015625)"/>
      <path id="DejaVuSans-37" d="M 525 4666 
L 3525 4666 
L 3525 4397 
L 1831 0 
L 1172 0 
L 2766 4134 
L 525 4134 
L 525 4666 
z
" transform="scale(0.015625)"/>
     </defs>
     <use xlink:href="#DejaVuSans-7e"/>
     <use xlink:href="#DejaVuSans-34" x="83.789062"/>
     <use xlink:href="#DejaVuSans-37" x="147.412109"/>
     <use xlink:href="#DejaVuSans-25" x="211.035156"/>
     <use xlink:href="#DejaVuSans-20" x="306.054688"/>
     <use xlink:href="#DejaVuSans-53" x="337.841797"/>
     <use xlink:href="#DejaVuSans-4f" x="401.318359"/>
     <use xlink:href="#DejaVuSans-43" x="480.029297"/>
    </g>
   </g>
   <g id="text_16">
    <!-- NMC811/graphite (LG M50) — O'Regan et al., Electrochim. Acta 425 (2022) 140700 -->
    <g style="fill: #999999" transform="translate(200.094281 210.223803) scale(0.065 -0.065)">
     <defs>
      <path id="DejaVuSans-4e" d="M 628 4666 
L 1478 4666 
L 3547 763 
L 3547 4666 
L 4159 4666 
L 4159 0 
L 3309 0 
L 1241 3903 
L 1241 0 
L 628 0 
L 628 4666 
z
" transform="scale(0.015625)"/>
      <path id="DejaVuSans-4d" d="M 628 4666 
L 1569 4666 
L 2759 1491 
L 3956 4666 
L 4897 4666 
L 4897 0 
L 4281 0 
L 4281 4097 
L 3078 897 
L 2444 897 
L 1241 4097 
L 1241 0 
L 628 0 
L 628 4666 
z
" transform="scale(0.015625)"/>
      <path id="DejaVuSans-67" d="M 2906 1791 
Q 2906 2416 2648 2759 
Q 2391 3103 1925 3103 
Q 1463 3103 1205 2759 
Q 947 2416 947 1791 
Q 947 1169 1205 825 
Q 1463 481 1925 481 
Q 2391 481 2648 825 
Q 2906 1169 2906 1791 
z
M 3481 434 
Q 3481 -459 3084 -895 
Q 2688 -1331 1869 -1331 
Q 1566 -1331 1297 -1286 
Q 1028 -1241 775 -1147 
L 775 -588 
Q 1028 -725 1275 -790 
Q 1522 -856 1778 -856 
Q 2344 -856 2625 -561 
Q 2906 -266 2906 331 
L 2906 616 
Q 2728 306 2450 153 
Q 2172 0 1784 0 
Q 1141 0 747 490 
Q 353 981 353 1791 
Q 353 2603 747 3093 
Q 1141 3584 1784 3584 
Q 2172 3584 2450 3431 
Q 2728 3278 2906 2969 
L 2906 3500 
L 3481 3500 
L 3481 434 
z
" transform="scale(0.015625)"/>
      <path id="DejaVuSans-72" d="M 2631 2963 
Q 2534 3019 2420 3045 
Q 2306 3072 2169 3072 
Q 1681 3072 1420 2755 
Q 1159 2438 1159 1844 
L 1159 0 
L 581 0 
L 581 3500 
L 1159 3500 
L 1159 2956 
Q 1341 3275 1631 3429 
Q 1922 3584 2338 3584 
Q 2397 3584 2469 3576 
Q 2541 3569 2628 3553 
L 2631 2963 
z
" transform="scale(0.015625)"/>
      <path id="DejaVuSans-61" d="M 2194 1759 
Q 1497 1759 1228 1600 
Q 959 1441 959 1056 
Q 959 750 1161 570 
Q 1363 391 1709 391 
Q 2188 391 2477 730 
Q 2766 1069 2766 1631 
L 2766 1759 
L 2194 1759 
z
M 3341 1997 
L 3341 0 
L 2766 0 
L 2766 531 
Q 2569 213 2275 61 
Q 1981 -91 1556 -91 
Q 1019 -91 701 211 
Q 384 513 384 1019 
Q 384 1609 779 1909 
Q 1175 2209 1959 2209 
L 2766 2209 
L 2766 2266 
Q 2766 2663 2505 2880 
Q 2244 3097 1772 3097 
Q 1472 3097 1187 3025 
Q 903 2953 641 2809 
L 641 3341 
Q 956 3463 1253 3523 
Q 1550 3584 1831 3584 
Q 2591 3584 2966 3190 
Q 3341 2797 3341 1997 
z
" transform="scale(0.015625)"/>
      <path id="DejaVuSans-70" d="M 1159 525 
L 1159 -1331 
L 581 -1331 
L 581 3500 
L 1159 3500 
L 1159 2969 
Q 1341 3281 1617 3432 
Q 1894 3584 2278 3584 
Q 2916 3584 3314 3078 
Q 3713 2572 3713 1747 
Q 3713 922 3314 415 
Q 2916 -91 2278 -91 
Q 1894 -91 1617 61 
Q 1341 213 1159 525 
z
M 3116 1747 
Q 3116 2381 2855 2742 
Q 2594 3103 2138 3103 
Q 1681 3103 1420 2742 
Q 1159 2381 1159 1747 
Q 1159 1113 1420 752 
Q 1681 391 2138 391 
Q 2594 391 2855 752 
Q 3116 1113 3116 1747 
z
" transform="scale(0.015625)"/>
      <path id="DejaVuSans-68" d="M 3513 2113 
L 3513 0 
L 2938 0 
L 2938 2094 
Q 2938 2591 2744 2837 
Q 2550 3084 2163 3084 
Q 1697 3084 1428 2787 
Q 1159 2491 1159 1978 
L 1159 0 
L 581 0 
L 581 4863 
L 1159 4863 
L 1159 2956 
Q 1366 3272 1645 3428 
Q 1925 3584 2291 3584 
Q 2894 3584 3203 3211 
Q 3513 2838 3513 2113 
z
" transform="scale(0.015625)"/>
      <path id="DejaVuSans-69" d="M 603 3500 
L 1178 3500 
L 1178 0 
L 603 0 
L 603 3500 
z
M 603 4863 
L 1178 4863 
L 1178 4134 
L 603 4134 
L 603 4863 
z
" transform="scale(0.015625)"/>
      <path id="DejaVuSans-74" d="M 1172 4494 
L 1172 3500 
L 2356 3500 
L 2356 3053 
L 1172 3053 
L 1172 1153 
Q 1172 725 1289 603 
Q 1406 481 1766 481 
L 2356 481 
L 2356 0 
L 1766 0 
Q 1100 0 847 248 
Q 594 497 594 1153 
L 594 3053 
L 172 3053 
L 172 3500 
L 594 3500 
L 594 4494 
L 1172 4494 
z
" transform="scale(0.015625)"/>
      <path id="DejaVuSans-65" d="M 3597 1894 
L 3597 1613 
L 953 1613 
Q 991 1019 1311 708 
Q 1631 397 2203 397 
Q 2534 397 2845 478 
Q 3156 559 3463 722 
L 3463 178 
Q 3153 47 2828 -22 
Q 2503 -91 2169 -91 
Q 1331 -91 842 396 
Q 353 884 353 1716 
Q 353 2575 817 3079 
Q 1281 3584 2069 3584 
Q 2775 3584 3186 3129 
Q 3597 2675 3597 1894 
z
M 3022 2063 
Q 3016 2534 2758 2815 
Q 2500 3097 2075 3097 
Q 1594 3097 1305 2825 
Q 1016 2553 972 2059 
L 3022 2063 
z
" transform="scale(0.015625)"/>
      <path id="DejaVuSans-4c" d="M 628 4666 
L 1259 4666 
L 1259 531 
L 3531 531 
L 3531 0 
L 628 0 
L 628 4666 
z
" transform="scale(0.015625)"/>
      <path id="DejaVuSans-47" d="M 3809 666 
L 3809 1919 
L 2778 1919 
L 2778 2438 
L 4434 2438 
L 4434 434 
Q 4069 175 3628 42 
Q 3188 -91 2688 -91 
Q 1594 -91 976 548 
Q 359 1188 359 2328 
Q 359 3472 976 4111 
Q 1594 4750 2688 4750 
Q 3144 4750 3555 4637 
Q 3966 4525 4313 4306 
L 4313 3634 
Q 3963 3931 3569 4081 
Q 3175 4231 2741 4231 
Q 1884 4231 1454 3753 
Q 1025 3275 1025 2328 
Q 1025 1384 1454 906 
Q 1884 428 2741 428 
Q 3075 428 3337 486 
Q 3600 544 3809 666 
z
" transform="scale(0.015625)"/>
      <path id="DejaVuSans-35" d="M 691 4666 
L 3169 4666 
L 3169 4134 
L 1269 4134 
L 1269 2991 
Q 1406 3038 1543 3061 
Q 1681 3084 1819 3084 
Q 2600 3084 3056 2656 
Q 3513 2228 3513 1497 
Q 3513 744 3044 326 
Q 2575 -91 1722 -91 
Q 1428 -91 1123 -41 
Q 819 9 494 109 
L 494 744 
Q 775 591 1075 516 
Q 1375 441 1709 441 
Q 2250 441 2565 725 
Q 2881 1009 2881 1497 
Q 2881 1984 2565 2268 
Q 2250 2553 1709 2553 
Q 1456 2553 1204 2497 
Q 953 2441 691 2322 
L 691 4666 
z
" transform="scale(0.015625)"/>
      <path id="DejaVuSans-2014" d="M 313 1978 
L 6088 1978 
L 6088 1528 
L 313 1528 
L 313 1978 
z
" transform="scale(0.015625)"/>
      <path id="DejaVuSans-27" d="M 1147 4666 
L 1147 2931 
L 616 2931 
L 616 4666 
L 1147 4666 
z
" transform="scale(0.015625)"/>
      <path id="DejaVuSans-52" d="M 2841 2188 
Q 3044 2119 3236 1894 
Q 3428 1669 3622 1275 
L 4263 0 
L 3584 0 
L 2988 1197 
Q 2756 1666 2539 1819 
Q 2322 1972 1947 1972 
L 1259 1972 
L 1259 0 
L 628 0 
L 628 4666 
L 2053 4666 
Q 2853 4666 3247 4331 
Q 3641 3997 3641 3322 
Q 3641 2881 3436 2590 
Q 3231 2300 2841 2188 
z
M 1259 4147 
L 1259 2491 
L 2053 2491 
Q 2509 2491 2742 2702 
Q 2975 2913 2975 3322 
Q 2975 3731 2742 3939 
Q 2509 4147 2053 4147 
L 1259 4147 
z
" transform="scale(0.015625)"/>
      <path id="DejaVuSans-6e" d="M 3513 2113 
L 3513 0 
L 2938 0 
L 2938 2094 
Q 2938 2591 2744 2837 
Q 2550 3084 2163 3084 
Q 1697 3084 1428 2787 
Q 1159 2491 1159 1978 
L 1159 0 
L 581 0 
L 581 3500 
L 1159 3500 
L 1159 2956 
Q 1366 3272 1645 3428 
Q 1925 3584 2291 3584 
Q 2894 3584 3203 3211 
Q 3513 2838 3513 2113 
z
" transform="scale(0.015625)"/>
      <path id="DejaVuSans-6c" d="M 603 4863 
L 1178 4863 
L 1178 0 
L 603 0 
L 603 4863 
z
" transform="scale(0.015625)"/>
      <path id="DejaVuSans-2e" d="M 684 794 
L 1344 794 
L 1344 0 
L 684 0 
L 684 794 
z
" transform="scale(0.015625)"/>
      <path id="DejaVuSans-2c" d="M 750 794 
L 1409 794 
L 1409 256 
L 897 -744 
L 494 -744 
L 750 256 
L 750 794 
z
" transform="scale(0.015625)"/>
      <path id="DejaVuSans-45" d="M 628 4666 
L 3578 4666 
L 3578 4134 
L 1259 4134 
L 1259 2753 
L 3481 2753 
L 3481 2222 
L 1259 2222 
L 1259 531 
L 3634 531 
L 3634 0 
L 628 0 
L 628 4666 
z
" transform="scale(0.015625)"/>
      <path id="DejaVuSans-63" d="M 3122 3366 
L 3122 2828 
Q 2878 2963 2633 3030 
Q 2388 3097 2138 3097 
Q 1578 3097 1268 2742 
Q 959 2388 959 1747 
Q 959 1106 1268 751 
Q 1578 397 2138 397 
Q 2388 397 2633 464 
Q 2878 531 3122 666 
L 3122 134 
Q 2881 22 2623 -34 
Q 2366 -91 2075 -91 
Q 1284 -91 818 406 
Q 353 903 353 1747 
Q 353 2603 823 3093 
Q 1294 3584 2113 3584 
Q 2378 3584 2631 3529 
Q 2884 3475 3122 3366 
z
" transform="scale(0.015625)"/>
      <path id="DejaVuSans-6f" d="M 1959 3097 
Q 1497 3097 1228 2736 
Q 959 2375 959 1747 
Q 959 1119 1226 758 
Q 1494 397 1959 397 
Q 2419 397 2687 759 
Q 2956 1122 2956 1747 
Q 2956 2369 2687 2733 
Q 2419 3097 1959 3097 
z
M 1959 3584 
Q 2709 3584 3137 3096 
Q 3566 2609 3566 1747 
Q 3566 888 3137 398 
Q 2709 -91 1959 -91 
Q 1206 -91 779 398 
Q 353 888 353 1747 
Q 353 2609 779 3096 
Q 1206 3584 1959 3584 
z
" transform="scale(0.015625)"/>
      <path id="DejaVuSans-6d" d="M 3328 2828 
Q 3544 3216 3844 3400 
Q 4144 3584 4550 3584 
Q 5097 3584 5394 3201 
Q 5691 2819 5691 2113 
L 5691 0 
L 5113 0 
L 5113 2094 
Q 5113 2597 4934 2840 
Q 4756 3084 4391 3084 
Q 3944 3084 3684 2787 
Q 3425 2491 3425 1978 
L 3425 0 
L 2847 0 
L 2847 2094 
Q 2847 2600 2669 2842 
Q 2491 3084 2119 3084 
Q 1678 3084 1418 2786 
Q 1159 2488 1159 1978 
L 1159 0 
L 581 0 
L 581 3500 
L 1159 3500 
L 1159 2956 
Q 1356 3278 1631 3431 
Q 1906 3584 2284 3584 
Q 2666 3584 2933 3390 
Q 3200 3197 3328 2828 
z
" transform="scale(0.015625)"/>
      <path id="DejaVuSans-41" d="M 2188 4044 
L 1331 1722 
L 3047 1722 
L 2188 4044 
z
M 1831 4666 
L 2547 4666 
L 4325 0 
L 3669 0 
L 3244 1197 
L 1141 1197 
L 716 0 
L 50 0 
L 1831 4666 
z
" transform="scale(0.015625)"/>
     </defs>
     <use xlink:href="#DejaVuSans-4e"/>
     <use xlink:href="#DejaVuSans-4d" x="74.804688"/>
     <use xlink:href="#DejaVuSans-43" x="161.083984"/>
     <use xlink:href="#DejaVuSans-38" x="230.908203"/>
     <use xlink:href="#DejaVuSans-31" x="294.53125"/>
     <use xlink:href="#DejaVuSans-31" x="358.154297"/>
     <use xlink:href="#DejaVuSans-2f" x="421.777344"/>
     <use xlink:href="#DejaVuSans-67" x="455.46875"/>
     <use xlink:href="#DejaVuSans-72" x="518.945312"/>
     <use xlink:href="#DejaVuSans-61" x="560.058594"/>
     <use xlink:href="#DejaVuSans-70" x="621.337891"/>
     <use xlink:href="#DejaVuSans-68" x="684.814453"/>
     <use xlink:href="#DejaVuSans-69" x="748.193359"/>
     <use xlink:href="#DejaVuSans-74" x="775.976562"/>
     <use xlink:href="#DejaVuSans-65" x="815.185547"/>
     <use xlink:href="#DejaVuSans-20" x="876.708984"/>
     <use xlink:href="#DejaVuSans-28" x="908.496094"/>
     <use xlink:href="#DejaVuSans-4c" x="947.509766"/>
     <use xlink:href="#DejaVuSans-47" x="1003.222656"/>
     <use xlink:href="#DejaVuSans-20" x="1080.712891"/>
     <use xlink:href="#DejaVuSans-4d" x="1112.5"/>
     <use xlink:href="#DejaVuSans-35" x="1198.779297"/>
     <use xlink:href="#DejaVuSans-30" x="1262.402344"/>
     <use xlink:href="#DejaVuSans-29" x="1326.025391"/>
     <use xlink:href="#DejaVuSans-20" x="1365.039062"/>
     <use xlink:href="#DejaVuSans-2014" x="1396.826172"/>
     <use xlink:href="#DejaVuSans-20" x="1496.826172"/>
     <use xlink:href="#DejaVuSans-4f" x="1528.613281"/>
     <use xlink:href="#DejaVuSans-27" x="1607.324219"/>
     <use xlink:href="#DejaVuSans-52" x="1634.814453"/>
     <use xlink:href="#DejaVuSans-65" x="1699.796875"/>
     <use xlink:href="#DejaVuSans-67" x="1761.320312"/>
     <use xlink:href="#DejaVuSans-61" x="1824.796875"/>
     <use xlink:href="#DejaVuSans-6e" x="1886.076172"/>
     <use xlink:href="#DejaVuSans-20" x="1949.455078"/>
     <use xlink:href="#DejaVuSans-65" x="1981.242188"/>
     <use xlink:href="#DejaVuSans-74" x="2042.765625"/>
     <use xlink:href="#DejaVuSans-20" x="2081.974609"/>
     <use xlink:href="#DejaVuSans-61" x="2113.761719"/>
     <use xlink:href="#DejaVuSans-6c" x="2175.041016"/>
     <use xlink:href="#DejaVuSans-2e" x="2202.824219"/>
     <use xlink:href="#DejaVuSans-2c" x="2234.611328"/>
     <use xlink:href="#DejaVuSans-20" x="2266.398438"/>
     <use xlink:href="#DejaVuSans-45" x="2298.185547"/>
     <use xlink:href="#DejaVuSans-6c" x="2361.369141"/>
     <use xlink:href="#DejaVuSans-65" x="2389.152344"/>
     <use xlink:href="#DejaVuSans-63" x="2450.675781"/>
     <use xlink:href="#DejaVuSans-74" x="2505.65625"/>
     <use xlink:href="#DejaVuSans-72" x="2544.865234"/>
     <use xlink:href="#DejaVuSans-6f" x="2583.728516"/>
     <use xlink:href="#DejaVuSans-63" x="2644.910156"/>
     <use xlink:href="#DejaVuSans-68" x="2699.890625"/>
     <use xlink:href="#DejaVuSans-69" x="2763.269531"/>
     <use xlink:href="#DejaVuSans-6d" x="2791.052734"/>
     <use xlink:href="#DejaVuSans-2e" x="2888.464844"/>
     <use xlink:href="#DejaVuSans-20" x="2920.251953"/>
     <use xlink:href="#DejaVuSans-41" x="2952.039062"/>
     <use xlink:href="#DejaVuSans-63" x="3018.697266"/>
     <use xlink:href="#DejaVuSans-74" x="3073.677734"/>
     <use xlink:href="#DejaVuSans-61" x="3112.886719"/>
     <use xlink:href="#DejaVuSans-20" x="3174.166016"/>
     <use xlink:href="#DejaVuSans-34" x="3205.953125"/>
     <use xlink:href="#DejaVuSans-32" x="3269.576172"/>
     <use xlink:href="#DejaVuSans-35" x="3333.199219"/>
     <use xlink:href="#DejaVuSans-20" x="3396.822266"/>
     <use xlink:href="#DejaVuSans-28" x="3428.609375"/>
     <use xlink:href="#DejaVuSans-32" x="3467.623047"/>
     <use xlink:href="#DejaVuSans-30" x="3531.246094"/>
     <use xlink:href="#DejaVuSans-32" x="3594.869141"/>
     <use xlink:href="#DejaVuSans-32" x="3658.492188"/>
     <use xlink:href="#DejaVuSans-29" x="3722.115234"/>
     <use xlink:href="#DejaVuSans-20" x="3761.128906"/>
     <use xlink:href="#DejaVuSans-31" x="3792.916016"/>
     <use xlink:href="#DejaVuSans-34" x="3856.539062"/>
     <use xlink:href="#DejaVuSans-30" x="3920.162109"/>
     <use xlink:href="#DejaVuSans-37" x="3983.785156"/>
     <use xlink:href="#DejaVuSans-30" x="4047.408203"/>
     <use xlink:href="#DejaVuSans-30" x="4111.03125"/>
    </g>
   </g>
   <g id="legend_1">
    <g id="patch_5">
     <path d="M 294.407188 209.64 
L 470.167187 209.64 
Q 471.767187 209.64 471.767187 208.04 
L 471.767187 185.32 
Q 471.767187 183.72 470.167187 183.72 
L 294.407188 183.72 
Q 292.807187 183.72 292.807187 185.32 
L 292.807187 208.04 
Q 292.807187 209.64 294.407188 209.64 
z
" style="fill: #ffffff; opacity: 0.9; stroke: #cccccc; stroke-linejoin: miter"/>
    </g>
    <g id="patch_6">
     <path d="M 296.007187 193 
L 312.007187 193 
L 312.007187 187.4 
L 296.007187 187.4 
z
" style="fill: #d95f5f; fill-opacity: 0.18; stroke: #d95f5f; stroke-opacity: 0.18; stroke-linejoin: miter"/>
    </g>
    <g id="text_17">
     <!-- $&gt;0$: endothermic ($q_{rev}&lt;0$, less heat) -->
     <g transform="translate(318.407187 193) scale(0.08 -0.08)">
      <defs>
       <path id="DejaVuSans-3e" d="M 678 3150 
L 678 3719 
L 4684 2266 
L 4684 1747 
L 678 294 
L 678 863 
L 3897 2003 
L 678 3150 
z
" transform="scale(0.015625)"/>
       <path id="DejaVuSans-3a" d="M 750 794 
L 1409 794 
L 1409 0 
L 750 0 
L 750 794 
z
M 750 3309 
L 1409 3309 
L 1409 2516 
L 750 2516 
L 750 3309 
z
" transform="scale(0.015625)"/>
       <path id="DejaVuSans-64" d="M 2906 2969 
L 2906 4863 
L 3481 4863 
L 3481 0 
L 2906 0 
L 2906 525 
Q 2725 213 2448 61 
Q 2172 -91 1784 -91 
Q 1150 -91 751 415 
Q 353 922 353 1747 
Q 353 2572 751 3078 
Q 1150 3584 1784 3584 
Q 2172 3584 2448 3432 
Q 2725 3281 2906 2969 
z
M 947 1747 
Q 947 1113 1208 752 
Q 1469 391 1925 391 
Q 2381 391 2643 752 
Q 2906 1113 2906 1747 
Q 2906 2381 2643 2742 
Q 2381 3103 1925 3103 
Q 1469 3103 1208 2742 
Q 947 2381 947 1747 
z
" transform="scale(0.015625)"/>
       <path id="DejaVuSans-Oblique-71" d="M 2669 525 
Q 2438 222 2123 65 
Q 1809 -91 1428 -91 
Q 897 -91 595 267 
Q 294 625 294 1253 
Q 294 1759 480 2231 
Q 666 2703 1013 3078 
Q 1238 3322 1530 3453 
Q 1822 3584 2144 3584 
Q 2531 3584 2781 3431 
Q 3031 3278 3144 2969 
L 3244 3494 
L 3822 3494 
L 2888 -1319 
L 2309 -1319 
L 2669 525 
z
M 891 1338 
Q 891 875 1084 633 
Q 1278 391 1644 391 
Q 2188 391 2572 911 
Q 2956 1431 2956 2175 
Q 2956 2625 2757 2864 
Q 2559 3103 2188 3103 
Q 1916 3103 1684 2976 
Q 1453 2850 1281 2606 
Q 1100 2350 995 2006 
Q 891 1663 891 1338 
z
" transform="scale(0.015625)"/>
       <path id="DejaVuSans-Oblique-72" d="M 2853 2969 
Q 2766 3016 2653 3041 
Q 2541 3066 2413 3066 
Q 1953 3066 1609 2717 
Q 1266 2369 1153 1784 
L 800 0 
L 225 0 
L 909 3500 
L 1484 3500 
L 1375 2956 
Q 1603 3259 1920 3421 
Q 2238 3584 2597 3584 
Q 2691 3584 2781 3573 
Q 2872 3563 2963 3538 
L 2853 2969 
z
" transform="scale(0.015625)"/>
       <path id="DejaVuSans-Oblique-65" d="M 3078 2063 
Q 3088 2113 3092 2166 
Q 3097 2219 3097 2272 
Q 3097 2653 2873 2875 
Q 2650 3097 2266 3097 
Q 1838 3097 1509 2826 
Q 1181 2556 1013 2059 
L 3078 2063 
z
M 3578 1613 
L 903 1613 
Q 884 1494 878 1425 
Q 872 1356 872 1306 
Q 872 872 1139 634 
Q 1406 397 1894 397 
Q 2269 397 2603 481 
Q 2938 566 3225 728 
L 3116 159 
Q 2806 34 2476 -28 
Q 2147 -91 1806 -91 
Q 1078 -91 686 257 
Q 294 606 294 1247 
Q 294 1794 489 2264 
Q 684 2734 1063 3103 
Q 1306 3334 1642 3459 
Q 1978 3584 2356 3584 
Q 2950 3584 3301 3228 
Q 3653 2872 3653 2272 
Q 3653 2128 3634 1964 
Q 3616 1800 3578 1613 
z
" transform="scale(0.015625)"/>
       <path id="DejaVuSans-Oblique-76" d="M 459 3500 
L 1069 3500 
L 1581 525 
L 3256 3500 
L 3866 3500 
L 1875 0 
L 1100 0 
L 459 3500 
z
" transform="scale(0.015625)"/>
       <path id="DejaVuSans-3c" d="M 4684 3150 
L 1459 2003 
L 4684 863 
L 4684 294 
L 678 1747 
L 678 2266 
L 4684 3719 
L 4684 3150 
z
" transform="scale(0.015625)"/>
       <path id="DejaVuSans-73" d="M 2834 3397 
L 2834 2853 
Q 2591 2978 2328 3040 
Q 2066 3103 1784 3103 
Q 1356 3103 1142 2972 
Q 928 2841 928 2578 
Q 928 2378 1081 2264 
Q 1234 2150 1697 2047 
L 1894 2003 
Q 2506 1872 2764 1633 
Q 3022 1394 3022 966 
Q 3022 478 2636 193 
Q 2250 -91 1575 -91 
Q 1294 -91 989 -36 
Q 684 19 347 128 
L 347 722 
Q 666 556 975 473 
Q 1284 391 1588 391 
Q 1994 391 2212 530 
Q 2431 669 2431 922 
Q 2431 1156 2273 1281 
Q 2116 1406 1581 1522 
L 1381 1569 
Q 847 1681 609 1914 
Q 372 2147 372 2553 
Q 372 3047 722 3315 
Q 1072 3584 1716 3584 
Q 2034 3584 2315 3537 
Q 2597 3491 2834 3397 
z
" transform="scale(0.015625)"/>
      </defs>
      <use xlink:href="#DejaVuSans-3e" transform="translate(19.482422 0.015625)"/>
      <use xlink:href="#DejaVuSans-30" transform="translate(122.753906 0.015625)"/>
      <use xlink:href="#DejaVuSans-3a" transform="translate(186.376953 0.015625)"/>
      <use xlink:href="#DejaVuSans-20" transform="translate(220.068359 0.015625)"/>
      <use xlink:href="#DejaVuSans-65" transform="translate(251.855469 0.015625)"/>
      <use xlink:href="#DejaVuSans-6e" transform="translate(313.378906 0.015625)"/>
      <use xlink:href="#DejaVuSans-64" transform="translate(376.757812 0.015625)"/>
      <use xlink:href="#DejaVuSans-6f" transform="translate(440.234375 0.015625)"/>
      <use xlink:href="#DejaVuSans-74" transform="translate(501.416016 0.015625)"/>
      <use xlink:href="#DejaVuSans-68" transform="translate(540.625 0.015625)"/>
      <use xlink:href="#DejaVuSans-65" transform="translate(604.003906 0.015625)"/>
      <use xlink:href="#DejaVuSans-72" transform="translate(665.527344 0.015625)"/>
      <use xlink:href="#DejaVuSans-6d" transform="translate(706.640625 0.015625)"/>
      <use xlink:href="#DejaVuSans-69" transform="translate(804.052734 0.015625)"/>
      <use xlink:href="#DejaVuSans-63" transform="translate(831.835938 0.015625)"/>
      <use xlink:href="#DejaVuSans-20" transform="translate(886.816406 0.015625)"/>
      <use xlink:href="#DejaVuSans-28" transform="translate(918.603516 0.015625)"/>
      <use xlink:href="#DejaVuSans-Oblique-71" transform="translate(957.617188 0.015625)"/>
      <use xlink:href="#DejaVuSans-Oblique-72" transform="translate(1021.09375 -16.390625) scale(0.7)"/>
      <use xlink:href="#DejaVuSans-Oblique-65" transform="translate(1049.873047 -16.390625) scale(0.7)"/>
      <use xlink:href="#DejaVuSans-Oblique-76" transform="translate(1092.939453 -16.390625) scale(0.7)"/>
      <use xlink:href="#DejaVuSans-3c" transform="translate(1156.582031 0.015625)"/>
      <use xlink:href="#DejaVuSans-30" transform="translate(1259.853516 0.015625)"/>
      <use xlink:href="#DejaVuSans-2c" transform="translate(1323.476562 0.015625)"/>
      <use xlink:href="#DejaVuSans-20" transform="translate(1355.263672 0.015625)"/>
      <use xlink:href="#DejaVuSans-6c" transform="translate(1387.050781 0.015625)"/>
      <use xlink:href="#DejaVuSans-65" transform="translate(1414.833984 0.015625)"/>
      <use xlink:href="#DejaVuSans-73" transform="translate(1476.357422 0.015625)"/>
      <use xlink:href="#DejaVuSans-73" transform="translate(1528.457031 0.015625)"/>
      <use xlink:href="#DejaVuSans-20" transform="translate(1580.556641 0.015625)"/>
      <use xlink:href="#DejaVuSans-68" transform="translate(1612.34375 0.015625)"/>
      <use xlink:href="#DejaVuSans-65" transform="translate(1675.722656 0.015625)"/>
      <use xlink:href="#DejaVuSans-61" transform="translate(1737.246094 0.015625)"/>
      <use xlink:href="#DejaVuSans-74" transform="translate(1798.525391 0.015625)"/>
      <use xlink:href="#DejaVuSans-29" transform="translate(1837.734375 0.015625)"/>
     </g>
    </g>
    <g id="patch_7">
     <path d="M 296.007187 204.76 
L 312.007187 204.76 
L 312.007187 199.16 
L 296.007187 199.16 
z
" style="fill: #4a90d9; fill-opacity: 0.18; stroke: #4a90d9; stroke-opacity: 0.18; stroke-linejoin: miter"/>
    </g>
    <g id="text_18">
     <!-- $&lt;0$: exothermic ($q_{rev}&gt;0$, more heat) -->
     <g transform="translate(318.407187 204.76) scale(0.08 -0.08)">
      <defs>
       <path id="DejaVuSans-78" d="M 3513 3500 
L 2247 1797 
L 3578 0 
L 2900 0 
L 1881 1375 
L 863 0 
L 184 0 
L 1544 1831 
L 300 3500 
L 978 3500 
L 1906 2253 
L 2834 3500 
L 3513 3500 
z
" transform="scale(0.015625)"/>
      </defs>
      <use xlink:href="#DejaVuSans-3c" transform="translate(19.482422 0.015625)"/>
      <use xlink:href="#DejaVuSans-30" transform="translate(122.753906 0.015625)"/>
      <use xlink:href="#DejaVuSans-3a" transform="translate(186.376953 0.015625)"/>
      <use xlink:href="#DejaVuSans-20" transform="translate(220.068359 0.015625)"/>
      <use xlink:href="#DejaVuSans-65" transform="translate(251.855469 0.015625)"/>
      <use xlink:href="#DejaVuSans-78" transform="translate(313.378906 0.015625)"/>
      <use xlink:href="#DejaVuSans-6f" transform="translate(372.558594 0.015625)"/>
      <use xlink:href="#DejaVuSans-74" transform="translate(433.740234 0.015625)"/>
      <use xlink:href="#DejaVuSans-68" transform="translate(472.949219 0.015625)"/>
      <use xlink:href="#DejaVuSans-65" transform="translate(536.328125 0.015625)"/>
      <use xlink:href="#DejaVuSans-72" transform="translate(597.851562 0.015625)"/>
      <use xlink:href="#DejaVuSans-6d" transform="translate(638.964844 0.015625)"/>
      <use xlink:href="#DejaVuSans-69" transform="translate(736.376953 0.015625)"/>
      <use xlink:href="#DejaVuSans-63" transform="translate(764.160156 0.015625)"/>
      <use xlink:href="#DejaVuSans-20" transform="translate(819.140625 0.015625)"/>
      <use xlink:href="#DejaVuSans-28" transform="translate(850.927734 0.015625)"/>
      <use xlink:href="#DejaVuSans-Oblique-71" transform="translate(889.941406 0.015625)"/>
      <use xlink:href="#DejaVuSans-Oblique-72" transform="translate(953.417969 -16.390625) scale(0.7)"/>
      <use xlink:href="#DejaVuSans-Oblique-65" transform="translate(982.197266 -16.390625) scale(0.7)"/>
      <use xlink:href="#DejaVuSans-Oblique-76" transform="translate(1025.263672 -16.390625) scale(0.7)"/>
      <use xlink:href="#DejaVuSans-3e" transform="translate(1088.90625 0.015625)"/>
      <use xlink:href="#DejaVuSans-30" transform="translate(1192.177734 0.015625)"/>
      <use xlink:href="#DejaVuSans-2c" transform="translate(1255.800781 0.015625)"/>
      <use xlink:href="#DejaVuSans-20" transform="translate(1287.587891 0.015625)"/>
      <use xlink:href="#DejaVuSans-6d" transform="translate(1319.375 0.015625)"/>
      <use xlink:href="#DejaVuSans-6f" transform="translate(1416.787109 0.015625)"/>
      <use xlink:href="#DejaVuSans-72" transform="translate(1477.96875 0.015625)"/>
      <use xlink:href="#DejaVuSans-65" transform="translate(1519.082031 0.015625)"/>
      <use xlink:href="#DejaVuSans-20" transform="translate(1580.605469 0.015625)"/>
      <use xlink:href="#DejaVuSans-68" transform="translate(1612.392578 0.015625)"/>
      <use xlink:href="#DejaVuSans-65" transform="translate(1675.771484 0.015625)"/>
      <use xlink:href="#DejaVuSans-61" transform="translate(1737.294922 0.015625)"/>
      <use xlink:href="#DejaVuSans-74" transform="translate(1798.574219 0.015625)"/>
      <use xlink:href="#DejaVuSans-29" transform="translate(1837.783203 0.015625)"/>
     </g>
    </g>
   </g>
  </g>
 </g>
 <defs>
  <clipPath id="pcce3978a43">
   <rect x="43.742188" y="7.2" width="432.025" height="206.44"/>
  </clipPath>
 </defs>
</svg>
