<?xml version="1.0" encoding="utf-8" standalone="no"?>
<!DOCTYPE svg PUBLIC "-//W3C//DTD SVG 1.1//EN"
  "http://www.w3.org/Graphics/SVG/1.1/DTD/svg11.dtd">
<svg xmlns:xlink="http://www.w3.org/1999/xlink" width="493.086937pt" height="251.19625pt" viewBox="0 0 493.086937 251.19625" xmlns="http://www.w3.org/2000/svg" version="1.1">
 <metadata>
  <rdf:RDF xmlns:dc="http://purl.org/dc/elements/1.1/" xmlns:cc="http://creativecommons.org/ns#" xmlns:rdf="http://www.w3.org/1999/02/22-rdf-syntax-ns#">
   <cc:Work>
    <dc:type rdf:resource="http://purl.org/dc/dcmitype/StillImage"/>
    <dc:date>2026-05-10T19:05:40.736919</dc:date>
    <dc:format>image/svg+xml</dc:format>
    <dc:creator>
     <cc:Agent>
      <dc:title>Matplotlib v3.9.0, https://matplotlib.org/</dc:title>
     </cc:Agent>
    </dc:creator>
   </cc:Work>
  </rdf:RDF>
 </metadata>
 <defs>
  <style type="text/css">*{stroke-linejoin: round; stroke-linecap: butt}</style>
 </defs>
 <g id="figure_1">
  <g id="patch_1">
   <path d="M 0 251.19625 
L 493.086937 251.19625 
L 493.086937 0 
L 0 0 
z
" style="fill: #ffffff"/>
  </g>
  <g id="axes_1">
   <g id="patch_2">
    <path d="M 42.662188 213.64 
L 476.343187 213.64 
L 476.343187 7.2 
L 42.662188 7.2 
z
" style="fill: #ffffff"/>
   </g>
   <g id="PolyCollection_1">
    <path d="M 42.662188 93.216667 
L 42.662188 27.646538 
L 43.204967 26.69552 
L 43.747747 25.782107 
L 44.290527 24.907899 
L 44.833306 24.074447 
L 45.376086 23.283242 
L 45.918866 22.53572 
L 46.461646 21.83325 
L 47.004425 21.177138 
L 47.547205 20.568619 
L 48.089985 20.008853 
L 48.632764 19.498926 
L 49.175544 19.039848 
L 49.718324 18.632546 
L 50.261104 18.277865 
L 50.803883 17.976567 
L 51.346663 17.729329 
L 51.889443 17.53674 
L 52.432223 17.399305 
L 52.975002 17.317439 
L 53.517782 17.291471 
L 54.060562 17.321643 
L 54.603341 17.408111 
L 55.146121 17.550944 
L 55.688901 17.750127 
L 56.231681 18.005564 
L 56.77446 18.317077 
L 57.31724 18.684408 
L 57.86002 19.107224 
L 58.4028 19.585118 
L 58.945579 20.117613 
L 59.488359 20.704161 
L 60.031139 21.344153 
L 60.573918 22.036918 
L 61.116698 22.781725 
L 61.659478 23.577793 
L 62.202258 24.424289 
L 62.745037 25.320333 
L 63.287817 26.265006 
L 63.830597 27.257349 
L 64.373376 28.296368 
L 64.916156 29.38104 
L 65.458936 30.510316 
L 66.001716 31.683122 
L 66.544495 32.898368 
L 67.087275 34.154946 
L 67.630055 35.451735 
L 68.172835 36.787608 
L 68.715614 38.161426 
L 69.258394 39.572051 
L 69.801174 41.018339 
L 70.343953 42.499148 
L 70.886733 44.013337 
L 71.429513 45.559767 
L 71.972293 47.137304 
L 72.515072 48.744815 
L 73.057852 50.381175 
L 73.600632 52.045261 
L 74.143412 53.735953 
L 74.686191 55.452134 
L 75.228971 57.192687 
L 75.771751 58.956497 
L 76.31453 60.742444 
L 76.85731 62.549404 
L 77.40009 64.376245 
L 77.94287 66.221825 
L 78.485649 68.084989 
L 79.028429 69.964565 
L 79.571209 71.85936 
L 80.113989 73.76816 
L 80.656768 75.68972 
L 81.199548 77.622766 
L 81.742328 79.565991 
L 82.285107 81.518046 
L 82.827887 83.477545 
L 83.370667 85.443052 
L 83.913447 87.413087 
L 84.456226 89.386118 
L 84.999006 91.360559 
L 84.999006 93.216667 
L 84.999006 93.216667 
L 84.456226 93.216667 
L 83.913447 93.216667 
L 83.370667 93.216667 
L 82.827887 93.216667 
L 82.285107 93.216667 
L 81.742328 93.216667 
L 81.199548 93.216667 
L 80.656768 93.216667 
L 80.113989 93.216667 
L 79.571209 93.216667 
L 79.028429 93.216667 
L 78.485649 93.216667 
L 77.94287 93.216667 
L 77.40009 93.216667 
L 76.85731 93.216667 
L 76.31453 93.216667 
L 75.771751 93.216667 
L 75.228971 93.216667 
L 74.686191 93.216667 
L 74.143412 93.216667 
L 73.600632 93.216667 
L 73.057852 93.216667 
L 72.515072 93.216667 
L 71.972293 93.216667 
L 71.429513 93.216667 
L 70.886733 93.216667 
L 70.343953 93.216667 
L 69.801174 93.216667 
L 69.258394 93.216667 
L 68.715614 93.216667 
L 68.172835 93.216667 
L 67.630055 93.216667 
L 67.087275 93.216667 
L 66.544495 93.216667 
L 66.001716 93.216667 
L 65.458936 93.216667 
L 64.916156 93.216667 
L 64.373376 93.216667 
L 63.830597 93.216667 
L 63.287817 93.216667 
L 62.745037 93.216667 
L 62.202258 93.216667 
L 61.659478 93.216667 
L 61.116698 93.216667 
L 60.573918 93.216667 
L 60.031139 93.216667 
L 59.488359 93.216667 
L 58.945579 93.216667 
L 58.4028 93.216667 
L 57.86002 93.216667 
L 57.31724 93.216667 
L 56.77446 93.216667 
L 56.231681 93.216667 
L 55.688901 93.216667 
L 55.146121 93.216667 
L 54.603341 93.216667 
L 54.060562 93.216667 
L 53.517782 93.216667 
L 52.975002 93.216667 
L 52.432223 93.216667 
L 51.889443 93.216667 
L 51.346663 93.216667 
L 50.803883 93.216667 
L 50.261104 93.216667 
L 49.718324 93.216667 
L 49.175544 93.216667 
L 48.632764 93.216667 
L 48.089985 93.216667 
L 47.547205 93.216667 
L 47.004425 93.216667 
L 46.461646 93.216667 
L 45.918866 93.216667 
L 45.376086 93.216667 
L 44.833306 93.216667 
L 44.290527 93.216667 
L 43.747747 93.216667 
L 43.204967 93.216667 
L 42.662188 93.216667 
z
" clip-path="url(#p531287ecce)" style="fill: #d95f5f; fill-opacity: 0.18; stroke: #d95f5f; stroke-opacity: 0.18"/>
    <path d="M 134.934741 93.216667 
L 134.934741 92.302171 
L 135.47752 90.619958 
L 136.0203 88.952021 
L 136.56308 87.301162 
L 137.10586 85.670263 
L 137.648639 84.062275 
L 138.191419 82.480215 
L 138.734199 80.927153 
L 139.276978 79.406204 
L 139.819758 77.920513 
L 140.362538 76.47324 
L 140.905318 75.06755 
L 141.448097 73.70659 
L 141.990877 72.393475 
L 142.533657 71.131268 
L 143.076437 69.922962 
L 143.619216 68.771459 
L 144.161996 67.679552 
L 144.704776 66.649902 
L 145.247555 65.685021 
L 145.790335 64.787248 
L 146.333115 63.958738 
L 146.875895 63.201436 
L 147.418674 62.517063 
L 147.961454 61.907103 
L 148.504234 61.372784 
L 149.047014 60.91507 
L 149.589793 60.534646 
L 150.132573 60.231913 
L 150.675353 60.006981 
L 151.218132 59.859663 
L 151.760912 59.789473 
L 152.303692 59.795628 
L 152.846472 59.877051 
L 153.389251 60.032372 
L 153.932031 60.259942 
L 154.474811 60.557835 
L 155.017591 60.923865 
L 155.56037 61.3556 
L 156.10315 61.850373 
L 156.64593 62.405304 
L 157.188709 63.017316 
L 157.731489 63.683159 
L 158.274269 64.399425 
L 158.817049 65.162578 
L 159.359828 65.96897 
L 159.902608 66.814872 
L 160.445388 67.696489 
L 160.988167 68.609991 
L 161.530947 69.551534 
L 162.073727 70.517283 
L 162.616507 71.503433 
L 163.159286 72.506233 
L 163.702066 73.522007 
L 164.244846 74.54717 
L 164.787626 75.57825 
L 165.330405 76.611901 
L 165.873185 77.644921 
L 166.415965 78.674264 
L 166.958744 79.697051 
L 167.501524 80.710582 
L 168.044304 81.712341 
L 168.587084 82.700006 
L 169.129863 83.671452 
L 169.672643 84.624751 
L 170.215423 85.558179 
L 170.758203 86.47021 
L 171.300982 87.359517 
L 171.843762 88.224969 
L 172.386542 89.065624 
L 172.929321 89.880727 
L 173.472101 90.669698 
L 174.014881 91.432129 
L 174.557661 92.16777 
L 175.10044 92.876526 
L 175.10044 93.216667 
L 175.10044 93.216667 
L 174.557661 93.216667 
L 174.014881 93.216667 
L 173.472101 93.216667 
L 172.929321 93.216667 
L 172.386542 93.216667 
L 171.843762 93.216667 
L 171.300982 93.216667 
L 170.758203 93.216667 
L 170.215423 93.216667 
L 169.672643 93.216667 
L 169.129863 93.216667 
L 168.587084 93.216667 
L 168.044304 93.216667 
L 167.501524 93.216667 
L 166.958744 93.216667 
L 166.415965 93.216667 
L 165.873185 93.216667 
L 165.330405 93.216667 
L 164.787626 93.216667 
L 164.244846 93.216667 
L 163.702066 93.216667 
L 163.159286 93.216667 
L 162.616507 93.216667 
L 162.073727 93.216667 
L 161.530947 93.216667 
L 160.988167 93.216667 
L 160.445388 93.216667 
L 159.902608 93.216667 
L 159.359828 93.216667 
L 158.817049 93.216667 
L 158.274269 93.216667 
L 157.731489 93.216667 
L 157.188709 93.216667 
L 156.64593 93.216667 
L 156.10315 93.216667 
L 155.56037 93.216667 
L 155.017591 93.216667 
L 154.474811 93.216667 
L 153.932031 93.216667 
L 153.389251 93.216667 
L 152.846472 93.216667 
L 152.303692 93.216667 
L 151.760912 93.216667 
L 151.218132 93.216667 
L 150.675353 93.216667 
L 150.132573 93.216667 
L 149.589793 93.216667 
L 149.047014 93.216667 
L 148.504234 93.216667 
L 147.961454 93.216667 
L 147.418674 93.216667 
L 146.875895 93.216667 
L 146.333115 93.216667 
L 145.790335 93.216667 
L 145.247555 93.216667 
L 144.704776 93.216667 
L 144.161996 93.216667 
L 143.619216 93.216667 
L 143.076437 93.216667 
L 142.533657 93.216667 
L 141.990877 93.216667 
L 141.448097 93.216667 
L 140.905318 93.216667 
L 140.362538 93.216667 
L 139.819758 93.216667 
L 139.276978 93.216667 
L 138.734199 93.216667 
L 138.191419 93.216667 
L 137.648639 93.216667 
L 137.10586 93.216667 
L 136.56308 93.216667 
L 136.0203 93.216667 
L 135.47752 93.216667 
L 134.934741 93.216667 
z
" clip-path="url(#p531287ecce)" style="fill: #d95f5f; fill-opacity: 0.18; stroke: #d95f5f; stroke-opacity: 0.18"/>
    <path d="M 246.204584 93.216667 
L 246.204584 92.485445 
L 246.747364 91.725032 
L 247.290144 90.945293 
L 247.832923 90.146252 
L 248.375703 89.327956 
L 248.918483 88.490488 
L 249.461263 87.633959 
L 250.004042 86.758514 
L 250.546822 85.864334 
L 251.089602 84.951634 
L 251.632381 84.020667 
L 252.175161 83.071725 
L 252.717941 82.105138 
L 253.260721 81.12128 
L 253.8035 80.120563 
L 254.34628 79.103445 
L 254.88906 78.070426 
L 255.43184 77.02205 
L 255.974619 75.958906 
L 256.517399 74.881631 
L 257.060179 73.790905 
L 257.602958 72.687455 
L 258.145738 71.572055 
L 258.688518 70.445523 
L 259.231298 69.308725 
L 259.774077 68.162572 
L 260.316857 67.008021 
L 260.859637 65.846071 
L 261.402417 64.677767 
L 261.945196 63.504195 
L 262.487976 62.326483 
L 263.030756 61.1458 
L 263.573535 59.96335 
L 264.116315 58.780379 
L 264.659095 57.598163 
L 265.201875 56.418013 
L 265.744654 55.241271 
L 266.287434 54.069307 
L 266.830214 52.903514 
L 267.372994 51.745313 
L 267.915773 50.59614 
L 268.458553 49.457453 
L 269.001333 48.330719 
L 269.544112 47.217421 
L 270.086892 46.119046 
L 270.629672 45.037087 
L 271.172452 43.973036 
L 271.715231 42.928384 
L 272.258011 41.904613 
L 272.800791 40.903197 
L 273.34357 39.925594 
L 273.88635 38.973245 
L 274.42913 38.04757 
L 274.97191 37.149962 
L 275.514689 36.281787 
L 276.057469 35.444374 
L 276.600249 34.63902 
L 277.143029 33.866979 
L 277.685808 33.129462 
L 278.228588 32.427631 
L 278.771368 31.762601 
L 279.314147 31.135429 
L 279.856927 30.547118 
L 280.399707 29.998609 
L 280.942487 29.490781 
L 281.485266 29.024448 
L 282.028046 28.600357 
L 282.570826 28.219181 
L 283.113606 27.881526 
L 283.656385 27.58792 
L 284.199165 27.338818 
L 284.741945 27.134595 
L 285.284724 26.975552 
L 285.827504 26.861906 
L 286.370284 26.793799 
L 286.913064 26.77129 
L 287.455843 26.794358 
L 287.998623 26.862902 
L 288.541403 26.976742 
L 289.084182 27.135615 
L 289.626962 27.339184 
L 290.169742 27.587033 
L 290.712522 27.878667 
L 291.255301 28.21352 
L 291.798081 28.590952 
L 292.340861 29.01025 
L 292.883641 29.470636 
L 293.42642 29.971262 
L 293.9692 30.511217 
L 294.51198 31.089532 
L 295.054759 31.705175 
L 295.597539 32.357064 
L 296.140319 33.044062 
L 296.683099 33.764983 
L 297.225878 34.518599 
L 297.768658 35.303639 
L 298.311438 36.118795 
L 298.854218 36.962723 
L 299.396997 37.834052 
L 299.939777 38.731383 
L 300.482557 39.653294 
L 301.025336 40.598347 
L 301.568116 41.565086 
L 302.110896 42.552048 
L 302.653676 43.55776 
L 303.196455 44.580747 
L 303.739235 45.619536 
L 304.282015 46.672656 
L 304.824795 47.738646 
L 305.367574 48.816056 
L 305.910354 49.903449 
L 306.453134 50.999409 
L 306.995913 52.10254 
L 307.538693 53.211469 
L 308.081473 54.324852 
L 308.624253 55.441375 
L 309.167032 56.559755 
L 309.709812 57.678745 
L 310.252592 58.797134 
L 310.795371 59.913752 
L 311.338151 61.027469 
L 311.880931 62.137197 
L 312.423711 63.241894 
L 312.96649 64.340563 
L 313.50927 65.432252 
L 314.05205 66.51606 
L 314.59483 67.591133 
L 315.137609 68.656665 
L 315.680389 69.711903 
L 316.223169 70.756142 
L 316.765948 71.788726 
L 317.308728 72.809051 
L 317.851508 73.816563 
L 318.394288 74.810757 
L 318.937067 75.791177 
L 319.479847 76.757416 
L 320.022627 77.709115 
L 320.565407 78.645961 
L 321.108186 79.567686 
L 321.650966 80.474071 
L 322.193746 81.364936 
L 322.736525 82.240147 
L 323.279305 83.099608 
L 323.822085 83.943264 
L 324.364865 84.771099 
L 324.907644 85.583132 
L 325.450424 86.379417 
L 325.993204 87.160043 
L 326.535983 87.925129 
L 327.078763 88.674824 
L 327.621543 89.409306 
L 328.164323 90.128778 
L 328.707102 90.833468 
L 329.249882 91.523629 
L 329.792662 92.199532 
L 330.335442 92.861469 
L 330.335442 93.216667 
L 330.335442 93.216667 
L 329.792662 93.216667 
L 329.249882 93.216667 
L 328.707102 93.216667 
L 328.164323 93.216667 
L 327.621543 93.216667 
L 327.078763 93.216667 
L 326.535983 93.216667 
L 325.993204 93.216667 
L 325.450424 93.216667 
L 324.907644 93.216667 
L 324.364865 93.216667 
L 323.822085 93.216667 
L 323.279305 93.216667 
L 322.736525 93.216667 
L 322.193746 93.216667 
L 321.650966 93.216667 
L 321.108186 93.216667 
L 320.565407 93.216667 
L 320.022627 93.216667 
L 319.479847 93.216667 
L 318.937067 93.216667 
L 318.394288 93.216667 
L 317.851508 93.216667 
L 317.308728 93.216667 
L 316.765948 93.216667 
L 316.223169 93.216667 
L 315.680389 93.216667 
L 315.137609 93.216667 
L 314.59483 93.216667 
L 314.05205 93.216667 
L 313.50927 93.216667 
L 312.96649 93.216667 
L 312.423711 93.216667 
L 311.880931 93.216667 
L 311.338151 93.216667 
L 310.795371 93.216667 
L 310.252592 93.216667 
L 309.709812 93.216667 
L 309.167032 93.216667 
L 308.624253 93.216667 
L 308.081473 93.216667 
L 307.538693 93.216667 
L 306.995913 93.216667 
L 306.453134 93.216667 
L 305.910354 93.216667 
L 305.367574 93.216667 
L 304.824795 93.216667 
L 304.282015 93.216667 
L 303.739235 93.216667 
L 303.196455 93.216667 
L 302.653676 93.216667 
L 302.110896 93.216667 
L 301.568116 93.216667 
L 301.025336 93.216667 
L 300.482557 93.216667 
L 299.939777 93.216667 
L 299.396997 93.216667 
L 298.854218 93.216667 
L 298.311438 93.216667 
L 297.768658 93.216667 
L 297.225878 93.216667 
L 296.683099 93.216667 
L 296.140319 93.216667 
L 295.597539 93.216667 
L 295.054759 93.216667 
L 294.51198 93.216667 
L 293.9692 93.216667 
L 293.42642 93.216667 
L 292.883641 93.216667 
L 292.340861 93.216667 
L 291.798081 93.216667 
L 291.255301 93.216667 
L 290.712522 93.216667 
L 290.169742 93.216667 
L 289.626962 93.216667 
L 289.084182 93.216667 
L 288.541403 93.216667 
L 287.998623 93.216667 
L 287.455843 93.216667 
L 286.913064 93.216667 
L 286.370284 93.216667 
L 285.827504 93.216667 
L 285.284724 93.216667 
L 284.741945 93.216667 
L 284.199165 93.216667 
L 283.656385 93.216667 
L 283.113606 93.216667 
L 282.570826 93.216667 
L 282.028046 93.216667 
L 281.485266 93.216667 
L 280.942487 93.216667 
L 280.399707 93.216667 
L 279.856927 93.216667 
L 279.314147 93.216667 
L 278.771368 93.216667 
L 278.228588 93.216667 
L 277.685808 93.216667 
L 277.143029 93.216667 
L 276.600249 93.216667 
L 276.057469 93.216667 
L 275.514689 93.216667 
L 274.97191 93.216667 
L 274.42913 93.216667 
L 273.88635 93.216667 
L 273.34357 93.216667 
L 272.800791 93.216667 
L 272.258011 93.216667 
L 271.715231 93.216667 
L 271.172452 93.216667 
L 270.629672 93.216667 
L 270.086892 93.216667 
L 269.544112 93.216667 
L 269.001333 93.216667 
L 268.458553 93.216667 
L 267.915773 93.216667 
L 267.372994 93.216667 
L 266.830214 93.216667 
L 266.287434 93.216667 
L 265.744654 93.216667 
L 265.201875 93.216667 
L 264.659095 93.216667 
L 264.116315 93.216667 
L 263.573535 93.216667 
L 263.030756 93.216667 
L 262.487976 93.216667 
L 261.945196 93.216667 
L 261.402417 93.216667 
L 260.859637 93.216667 
L 260.316857 93.216667 
L 259.774077 93.216667 
L 259.231298 93.216667 
L 258.688518 93.216667 
L 258.145738 93.216667 
L 257.602958 93.216667 
L 257.060179 93.216667 
L 256.517399 93.216667 
L 255.974619 93.216667 
L 255.43184 93.216667 
L 254.88906 93.216667 
L 254.34628 93.216667 
L 253.8035 93.216667 
L 253.260721 93.216667 
L 252.717941 93.216667 
L 252.175161 93.216667 
L 251.632381 93.216667 
L 251.089602 93.216667 
L 250.546822 93.216667 
L 250.004042 93.216667 
L 249.461263 93.216667 
L 248.918483 93.216667 
L 248.375703 93.216667 
L 247.832923 93.216667 
L 247.290144 93.216667 
L 246.747364 93.216667 
L 246.204584 93.216667 
z
" clip-path="url(#p531287ecce)" style="fill: #d95f5f; fill-opacity: 0.18; stroke: #d95f5f; stroke-opacity: 0.18"/>
    <path d="M 474.714848 93.216667 
L 474.714848 92.902319 
L 475.257628 92.355705 
L 475.800408 91.80981 
L 476.343187 91.264846 
L 476.343187 93.216667 
L 476.343187 93.216667 
L 475.800408 93.216667 
L 475.257628 93.216667 
L 474.714848 93.216667 
z
" clip-path="url(#p531287ecce)" style="fill: #d95f5f; fill-opacity: 0.18; stroke: #d95f5f; stroke-opacity: 0.18"/>
   </g>
   <g id="PolyCollection_2">
    <path d="M 85.541786 93.216667 
L 85.541786 93.334769 
L 86.084565 95.307048 
L 86.627345 97.275642 
L 87.170125 99.238731 
L 87.712905 101.194442 
L 88.255684 103.140838 
L 88.798464 105.075925 
L 89.341244 106.997651 
L 89.884024 108.903911 
L 90.426803 110.792546 
L 90.969583 112.661349 
L 91.512363 114.508067 
L 92.055142 116.330408 
L 92.597922 118.126044 
L 93.140702 119.892619 
L 93.683482 121.627754 
L 94.226261 123.329055 
L 94.769041 124.99412 
L 95.311821 126.620547 
L 95.854601 128.205942 
L 96.39738 129.747931 
L 96.94016 131.244164 
L 97.48294 132.692328 
L 98.025719 134.090155 
L 98.568499 135.435432 
L 99.111279 136.726013 
L 99.654059 137.959823 
L 100.196838 139.134873 
L 100.739618 140.249266 
L 101.282398 141.301205 
L 101.825177 142.289007 
L 102.367957 143.211103 
L 102.910737 144.066053 
L 103.453517 144.852547 
L 103.996296 145.569415 
L 104.539076 146.215631 
L 105.081856 146.790316 
L 105.624636 147.292745 
L 106.167415 147.722348 
L 106.710195 148.07871 
L 107.252975 148.361578 
L 107.795754 148.570854 
L 108.338534 148.706599 
L 108.881314 148.769028 
L 109.424094 148.75851 
L 109.966873 148.675563 
L 110.509653 148.520848 
L 111.052433 148.295166 
L 111.595213 147.999451 
L 112.137992 147.63476 
L 112.680772 147.202273 
L 113.223552 146.703275 
L 113.766331 146.139157 
L 114.309111 145.511399 
L 114.851891 144.821567 
L 115.394671 144.071298 
L 115.93745 143.262297 
L 116.48023 142.396322 
L 117.02301 141.475175 
L 117.56579 140.500699 
L 118.108569 139.474762 
L 118.651349 138.399252 
L 119.194129 137.276071 
L 119.736908 136.107125 
L 120.279688 134.894321 
L 120.822468 133.639559 
L 121.365248 132.344727 
L 121.908027 131.011702 
L 122.450807 129.642343 
L 122.993587 128.238492 
L 123.536366 126.801971 
L 124.079146 125.334585 
L 124.621926 123.838125 
L 125.164706 122.314365 
L 125.707485 120.765071 
L 126.250265 119.192004 
L 126.793045 117.596921 
L 127.335825 115.98159 
L 127.878604 114.347786 
L 128.421384 112.697304 
L 128.964164 111.031968 
L 129.506943 109.353633 
L 130.049723 107.664196 
L 130.592503 105.965602 
L 131.135283 104.259855 
L 131.678062 102.549019 
L 132.220842 100.835229 
L 132.763622 99.120695 
L 133.306402 97.407706 
L 133.849181 95.698636 
L 134.391961 93.995942 
L 134.391961 93.216667 
L 134.391961 93.216667 
L 133.849181 93.216667 
L 133.306402 93.216667 
L 132.763622 93.216667 
L 132.220842 93.216667 
L 131.678062 93.216667 
L 131.135283 93.216667 
L 130.592503 93.216667 
L 130.049723 93.216667 
L 129.506943 93.216667 
L 128.964164 93.216667 
L 128.421384 93.216667 
L 127.878604 93.216667 
L 127.335825 93.216667 
L 126.793045 93.216667 
L 126.250265 93.216667 
L 125.707485 93.216667 
L 125.164706 93.216667 
L 124.621926 93.216667 
L 124.079146 93.216667 
L 123.536366 93.216667 
L 122.993587 93.216667 
L 122.450807 93.216667 
L 121.908027 93.216667 
L 121.365248 93.216667 
L 120.822468 93.216667 
L 120.279688 93.216667 
L 119.736908 93.216667 
L 119.194129 93.216667 
L 118.651349 93.216667 
L 118.108569 93.216667 
L 117.56579 93.216667 
L 117.02301 93.216667 
L 116.48023 93.216667 
L 115.93745 93.216667 
L 115.394671 93.216667 
L 114.851891 93.216667 
L 114.309111 93.216667 
L 113.766331 93.216667 
L 113.223552 93.216667 
L 112.680772 93.216667 
L 112.137992 93.216667 
L 111.595213 93.216667 
L 111.052433 93.216667 
L 110.509653 93.216667 
L 109.966873 93.216667 
L 109.424094 93.216667 
L 108.881314 93.216667 
L 108.338534 93.216667 
L 107.795754 93.216667 
L 107.252975 93.216667 
L 106.710195 93.216667 
L 106.167415 93.216667 
L 105.624636 93.216667 
L 105.081856 93.216667 
L 104.539076 93.216667 
L 103.996296 93.216667 
L 103.453517 93.216667 
L 102.910737 93.216667 
L 102.367957 93.216667 
L 101.825177 93.216667 
L 101.282398 93.216667 
L 100.739618 93.216667 
L 100.196838 93.216667 
L 99.654059 93.216667 
L 99.111279 93.216667 
L 98.568499 93.216667 
L 98.025719 93.216667 
L 97.48294 93.216667 
L 96.94016 93.216667 
L 96.39738 93.216667 
L 95.854601 93.216667 
L 95.311821 93.216667 
L 94.769041 93.216667 
L 94.226261 93.216667 
L 93.683482 93.216667 
L 93.140702 93.216667 
L 92.597922 93.216667 
L 92.055142 93.216667 
L 91.512363 93.216667 
L 90.969583 93.216667 
L 90.426803 93.216667 
L 89.884024 93.216667 
L 89.341244 93.216667 
L 88.798464 93.216667 
L 88.255684 93.216667 
L 87.712905 93.216667 
L 87.170125 93.216667 
L 86.627345 93.216667 
L 86.084565 93.216667 
L 85.541786 93.216667 
z
" clip-path="url(#p531287ecce)" style="fill: #4a90d9; fill-opacity: 0.18; stroke: #4a90d9; stroke-opacity: 0.18"/>
    <path d="M 175.64322 93.216667 
L 175.64322 93.558442 
L 176.186 94.213694 
L 176.728779 94.842581 
L 177.271559 95.445508 
L 177.814339 96.022981 
L 178.357119 96.575594 
L 178.899898 97.104018 
L 179.442678 97.608988 
L 179.985458 98.091297 
L 180.528238 98.551784 
L 181.071017 98.991325 
L 181.613797 99.410821 
L 182.156577 99.811194 
L 182.699356 100.193378 
L 183.242136 100.558306 
L 183.784916 100.906913 
L 184.327696 101.24012 
L 184.870475 101.558836 
L 185.413255 101.86395 
L 185.956035 102.156323 
L 186.498815 102.436792 
L 187.041594 102.70616 
L 187.584374 102.965197 
L 188.127154 103.214635 
L 188.669933 103.455168 
L 189.212713 103.687453 
L 189.755493 103.912105 
L 190.298273 104.129697 
L 190.841052 104.340762 
L 191.383832 104.545793 
L 191.926612 104.745241 
L 192.469392 104.93952 
L 193.012171 105.129001 
L 193.554951 105.314021 
L 194.097731 105.494878 
L 194.64051 105.671837 
L 195.18329 105.845127 
L 195.72607 106.014945 
L 196.26885 106.18146 
L 196.811629 106.344807 
L 197.354409 106.505099 
L 197.897189 106.662418 
L 198.439968 106.816825 
L 198.982748 106.968358 
L 199.525528 107.117032 
L 200.068308 107.262844 
L 200.611087 107.405773 
L 201.153867 107.545778 
L 201.696647 107.682807 
L 202.239427 107.81679 
L 202.782206 107.947646 
L 203.324986 108.075282 
L 203.867766 108.199593 
L 204.410545 108.320466 
L 204.953325 108.437776 
L 205.496105 108.551394 
L 206.038885 108.66118 
L 206.581664 108.766989 
L 207.124444 108.868672 
L 207.667224 108.966071 
L 208.210004 109.059025 
L 208.752783 109.147371 
L 209.295563 109.23094 
L 209.838343 109.309559 
L 210.381122 109.383054 
L 210.923902 109.451247 
L 211.466682 109.513958 
L 212.009462 109.571006 
L 212.552241 109.622206 
L 213.095021 109.667373 
L 213.637801 109.706319 
L 214.18058 109.738856 
L 214.72336 109.764794 
L 215.26614 109.783939 
L 215.80892 109.7961 
L 216.351699 109.801082 
L 216.894479 109.798689 
L 217.437259 109.788724 
L 217.980039 109.770986 
L 218.522818 109.745277 
L 219.065598 109.711393 
L 219.608378 109.669131 
L 220.151157 109.618285 
L 220.693937 109.558647 
L 221.236717 109.490007 
L 221.779497 109.412153 
L 222.322276 109.324869 
L 222.865056 109.227941 
L 223.407836 109.121146 
L 223.950616 109.004264 
L 224.493395 108.87707 
L 225.036175 108.739334 
L 225.578955 108.590827 
L 226.121734 108.431315 
L 226.664514 108.260559 
L 227.207294 108.078321 
L 227.750074 107.884356 
L 228.292853 107.678419 
L 228.835633 107.46026 
L 229.378413 107.229627 
L 229.921193 106.986264 
L 230.463972 106.729914 
L 231.006752 106.460316 
L 231.549532 106.177207 
L 232.092311 105.880322 
L 232.635091 105.569396 
L 233.177871 105.24416 
L 233.720651 104.904346 
L 234.26343 104.549683 
L 234.80621 104.179904 
L 235.34899 103.794739 
L 235.891769 103.39392 
L 236.434549 102.977183 
L 236.977329 102.544264 
L 237.520109 102.094903 
L 238.062888 101.628845 
L 238.605668 101.14584 
L 239.148448 100.645644 
L 239.691228 100.128018 
L 240.234007 99.592735 
L 240.776787 99.039574 
L 241.319567 98.468327 
L 241.862346 97.878795 
L 242.405126 97.270793 
L 242.947906 96.644151 
L 243.490686 95.998715 
L 244.033465 95.334345 
L 244.576245 94.650922 
L 245.119025 93.948347 
L 245.661805 93.22654 
L 245.661805 93.216667 
L 245.661805 93.216667 
L 245.119025 93.216667 
L 244.576245 93.216667 
L 244.033465 93.216667 
L 243.490686 93.216667 
L 242.947906 93.216667 
L 242.405126 93.216667 
L 241.862346 93.216667 
L 241.319567 93.216667 
L 240.776787 93.216667 
L 240.234007 93.216667 
L 239.691228 93.216667 
L 239.148448 93.216667 
L 238.605668 93.216667 
L 238.062888 93.216667 
L 237.520109 93.216667 
L 236.977329 93.216667 
L 236.434549 93.216667 
L 235.891769 93.216667 
L 235.34899 93.216667 
L 234.80621 93.216667 
L 234.26343 93.216667 
L 233.720651 93.216667 
L 233.177871 93.216667 
L 232.635091 93.216667 
L 232.092311 93.216667 
L 231.549532 93.216667 
L 231.006752 93.216667 
L 230.463972 93.216667 
L 229.921193 93.216667 
L 229.378413 93.216667 
L 228.835633 93.216667 
L 228.292853 93.216667 
L 227.750074 93.216667 
L 227.207294 93.216667 
L 226.664514 93.216667 
L 226.121734 93.216667 
L 225.578955 93.216667 
L 225.036175 93.216667 
L 224.493395 93.216667 
L 223.950616 93.216667 
L 223.407836 93.216667 
L 222.865056 93.216667 
L 222.322276 93.216667 
L 221.779497 93.216667 
L 221.236717 93.216667 
L 220.693937 93.216667 
L 220.151157 93.216667 
L 219.608378 93.216667 
L 219.065598 93.216667 
L 218.522818 93.216667 
L 217.980039 93.216667 
L 217.437259 93.216667 
L 216.894479 93.216667 
L 216.351699 93.216667 
L 215.80892 93.216667 
L 215.26614 93.216667 
L 214.72336 93.216667 
L 214.18058 93.216667 
L 213.637801 93.216667 
L 213.095021 93.216667 
L 212.552241 93.216667 
L 212.009462 93.216667 
L 211.466682 93.216667 
L 210.923902 93.216667 
L 210.381122 93.216667 
L 209.838343 93.216667 
L 209.295563 93.216667 
L 208.752783 93.216667 
L 208.210004 93.216667 
L 207.667224 93.216667 
L 207.124444 93.216667 
L 206.581664 93.216667 
L 206.038885 93.216667 
L 205.496105 93.216667 
L 204.953325 93.216667 
L 204.410545 93.216667 
L 203.867766 93.216667 
L 203.324986 93.216667 
L 202.782206 93.216667 
L 202.239427 93.216667 
L 201.696647 93.216667 
L 201.153867 93.216667 
L 200.611087 93.216667 
L 200.068308 93.216667 
L 199.525528 93.216667 
L 198.982748 93.216667 
L 198.439968 93.216667 
L 197.897189 93.216667 
L 197.354409 93.216667 
L 196.811629 93.216667 
L 196.26885 93.216667 
L 195.72607 93.216667 
L 195.18329 93.216667 
L 194.64051 93.216667 
L 194.097731 93.216667 
L 193.554951 93.216667 
L 193.012171 93.216667 
L 192.469392 93.216667 
L 191.926612 93.216667 
L 191.383832 93.216667 
L 190.841052 93.216667 
L 190.298273 93.216667 
L 189.755493 93.216667 
L 189.212713 93.216667 
L 188.669933 93.216667 
L 188.127154 93.216667 
L 187.584374 93.216667 
L 187.041594 93.216667 
L 186.498815 93.216667 
L 185.956035 93.216667 
L 185.413255 93.216667 
L 184.870475 93.216667 
L 184.327696 93.216667 
L 183.784916 93.216667 
L 183.242136 93.216667 
L 182.699356 93.216667 
L 182.156577 93.216667 
L 181.613797 93.216667 
L 181.071017 93.216667 
L 180.528238 93.216667 
L 179.985458 93.216667 
L 179.442678 93.216667 
L 178.899898 93.216667 
L 178.357119 93.216667 
L 177.814339 93.216667 
L 177.271559 93.216667 
L 176.728779 93.216667 
L 176.186 93.216667 
L 175.64322 93.216667 
z
" clip-path="url(#p531287ecce)" style="fill: #4a90d9; fill-opacity: 0.18; stroke: #4a90d9; stroke-opacity: 0.18"/>
    <path d="M 330.878221 93.216667 
L 330.878221 93.50975 
L 331.421001 94.1447 
L 331.963781 94.766659 
L 332.50656 95.375979 
L 333.04934 95.973024 
L 333.59212 96.558167 
L 334.1349 97.131789 
L 334.677679 97.694278 
L 335.220459 98.246026 
L 335.763239 98.78743 
L 336.306019 99.31889 
L 336.848798 99.840806 
L 337.391578 100.353577 
L 337.934358 100.857605 
L 338.477137 101.353285 
L 339.019917 101.841011 
L 339.562697 102.321175 
L 340.105477 102.79416 
L 340.648256 103.260346 
L 341.191036 103.720106 
L 341.733816 104.173804 
L 342.276596 104.621797 
L 342.819375 105.064435 
L 343.362155 105.502057 
L 343.904935 105.934993 
L 344.447714 106.363563 
L 344.990494 106.788075 
L 345.533274 107.20883 
L 346.076054 107.626114 
L 346.618833 108.040203 
L 347.161613 108.451362 
L 347.704393 108.859845 
L 348.247172 109.265892 
L 348.789952 109.669733 
L 349.332732 110.071585 
L 349.875512 110.471653 
L 350.418291 110.87013 
L 350.961071 111.267199 
L 351.503851 111.663027 
L 352.046631 112.057774 
L 352.58941 112.451584 
L 353.13219 112.844593 
L 353.67497 113.236923 
L 354.217749 113.628686 
L 354.760529 114.019982 
L 355.303309 114.410902 
L 355.846089 114.801524 
L 356.388868 115.191917 
L 356.931648 115.582139 
L 357.474428 115.972239 
L 358.017208 116.362256 
L 358.559987 116.752218 
L 359.102767 117.142146 
L 359.645547 117.532051 
L 360.188326 117.921934 
L 360.731106 118.31179 
L 361.273886 118.701603 
L 361.816666 119.091353 
L 362.359445 119.481009 
L 362.902225 119.870532 
L 363.445005 120.25988 
L 363.987784 120.649 
L 364.530564 121.037834 
L 365.073344 121.426318 
L 365.616124 121.814381 
L 366.158903 122.201948 
L 366.701683 122.588935 
L 367.244463 122.975257 
L 367.787243 123.360819 
L 368.330022 123.745525 
L 368.872802 124.129273 
L 369.415582 124.511957 
L 369.958361 124.893466 
L 370.501141 125.273685 
L 371.043921 125.652496 
L 371.586701 126.029778 
L 372.12948 126.405404 
L 372.67226 126.779248 
L 373.21504 127.151177 
L 373.75782 127.521058 
L 374.300599 127.888755 
L 374.843379 128.254128 
L 375.386159 128.617038 
L 375.928938 128.977341 
L 376.471718 129.334892 
L 377.014498 129.689547 
L 377.557278 130.041157 
L 378.100057 130.389574 
L 378.642837 130.734649 
L 379.185617 131.07623 
L 379.728397 131.414168 
L 380.271176 131.748309 
L 380.813956 132.078503 
L 381.356736 132.404596 
L 381.899515 132.726438 
L 382.442295 133.043875 
L 382.985075 133.356757 
L 383.527855 133.664931 
L 384.070634 133.968248 
L 384.613414 134.266557 
L 385.156194 134.559709 
L 385.698973 134.847557 
L 386.241753 135.129954 
L 386.784533 135.406755 
L 387.327313 135.677815 
L 387.870092 135.942993 
L 388.412872 136.202148 
L 388.955652 136.455141 
L 389.498432 136.701837 
L 390.041211 136.9421 
L 390.583991 137.175799 
L 391.126771 137.402805 
L 391.66955 137.62299 
L 392.21233 137.83623 
L 392.75511 138.042404 
L 393.29789 138.241392 
L 393.840669 138.43308 
L 394.383449 138.617356 
L 394.926229 138.794109 
L 395.469009 138.963234 
L 396.011788 139.124629 
L 396.554568 139.278195 
L 397.097348 139.423837 
L 397.640127 139.561464 
L 398.182907 139.690987 
L 398.725687 139.812324 
L 399.268467 139.925395 
L 399.811246 140.030124 
L 400.354026 140.126441 
L 400.896806 140.214276 
L 401.439585 140.293569 
L 401.982365 140.36426 
L 402.525145 140.426296 
L 403.067925 140.479626 
L 403.610704 140.524205 
L 404.153484 140.559993 
L 404.696264 140.586955 
L 405.239044 140.605058 
L 405.781823 140.614275 
L 406.324603 140.614585 
L 406.867383 140.605971 
L 407.410162 140.588419 
L 407.952942 140.561922 
L 408.495722 140.526477 
L 409.038502 140.482085 
L 409.581281 140.428752 
L 410.124061 140.366489 
L 410.666841 140.295312 
L 411.209621 140.215242 
L 411.7524 140.126302 
L 412.29518 140.028523 
L 412.83796 139.921938 
L 413.380739 139.806586 
L 413.923519 139.682511 
L 414.466299 139.54976 
L 415.009079 139.408384 
L 415.551858 139.258439 
L 416.094638 139.099987 
L 416.637418 138.933091 
L 417.180198 138.75782 
L 417.722977 138.574246 
L 418.265757 138.382447 
L 418.808537 138.182501 
L 419.351316 137.974492 
L 419.894096 137.758509 
L 420.436876 137.534642 
L 420.979656 137.302984 
L 421.522435 137.063634 
L 422.065215 136.816692 
L 422.607995 136.562261 
L 423.150774 136.300447 
L 423.693554 136.03136 
L 424.236334 135.755109 
L 424.779114 135.47181 
L 425.321893 135.181578 
L 425.864673 134.884531 
L 426.407453 134.580789 
L 426.950233 134.270473 
L 427.493012 133.953707 
L 428.035792 133.630615 
L 428.578572 133.301322 
L 429.121351 132.965956 
L 429.664131 132.624644 
L 430.206911 132.277514 
L 430.749691 131.924695 
L 431.29247 131.566315 
L 431.83525 131.202505 
L 432.37803 130.833392 
L 432.92081 130.459106 
L 433.463589 130.079774 
L 434.006369 129.695525 
L 434.549149 129.306484 
L 435.091928 128.912779 
L 435.634708 128.514533 
L 436.177488 128.111869 
L 436.720268 127.704909 
L 437.263047 127.293772 
L 437.805827 126.878577 
L 438.348607 126.459439 
L 438.891386 126.036472 
L 439.434166 125.609787 
L 439.976946 125.179492 
L 440.519726 124.745693 
L 441.062505 124.308494 
L 441.605285 123.867993 
L 442.148065 123.424289 
L 442.690845 122.977474 
L 443.233624 122.527639 
L 443.776404 122.074871 
L 444.319184 121.619254 
L 444.861963 121.160866 
L 445.404743 120.699785 
L 445.947523 120.236084 
L 446.490303 119.76983 
L 447.033082 119.301089 
L 447.575862 118.829923 
L 448.118642 118.356388 
L 448.661422 117.88054 
L 449.204201 117.402428 
L 449.746981 116.9221 
L 450.289761 116.439597 
L 450.83254 115.954961 
L 451.37532 115.468228 
L 451.9181 114.979431 
L 452.46088 114.4886 
L 453.003659 113.995762 
L 453.546439 113.500943 
L 454.089219 113.004164 
L 454.631999 112.505445 
L 455.174778 112.004804 
L 455.717558 111.502258 
L 456.260338 110.99782 
L 456.803117 110.491504 
L 457.345897 109.983323 
L 457.888677 109.473287 
L 458.431457 108.961409 
L 458.974236 108.447699 
L 459.517016 107.932171 
L 460.059796 107.414836 
L 460.602575 106.895709 
L 461.145355 106.374805 
L 461.688135 105.852141 
L 462.230915 105.327738 
L 462.773694 104.801619 
L 463.316474 104.273809 
L 463.859254 103.744338 
L 464.402034 103.21324 
L 464.944813 102.680553 
L 465.487593 102.146322 
L 466.030373 101.610594 
L 466.573152 101.073424 
L 467.115932 100.534874 
L 467.658712 99.99501 
L 468.201492 99.453908 
L 468.744271 98.911649 
L 469.287051 98.368323 
L 469.829831 97.824028 
L 470.372611 97.278871 
L 470.91539 96.732966 
L 471.45817 96.186437 
L 472.00095 95.639418 
L 472.543729 95.092053 
L 473.086509 94.544492 
L 473.629289 93.9969 
L 474.172069 93.449448 
L 474.172069 93.216667 
L 474.172069 93.216667 
L 473.629289 93.216667 
L 473.086509 93.216667 
L 472.543729 93.216667 
L 472.00095 93.216667 
L 471.45817 93.216667 
L 470.91539 93.216667 
L 470.372611 93.216667 
L 469.829831 93.216667 
L 469.287051 93.216667 
L 468.744271 93.216667 
L 468.201492 93.216667 
L 467.658712 93.216667 
L 467.115932 93.216667 
L 466.573152 93.216667 
L 466.030373 93.216667 
L 465.487593 93.216667 
L 464.944813 93.216667 
L 464.402034 93.216667 
L 463.859254 93.216667 
L 463.316474 93.216667 
L 462.773694 93.216667 
L 462.230915 93.216667 
L 461.688135 93.216667 
L 461.145355 93.216667 
L 460.602575 93.216667 
L 460.059796 93.216667 
L 459.517016 93.216667 
L 458.974236 93.216667 
L 458.431457 93.216667 
L 457.888677 93.216667 
L 457.345897 93.216667 
L 456.803117 93.216667 
L 456.260338 93.216667 
L 455.717558 93.216667 
L 455.174778 93.216667 
L 454.631999 93.216667 
L 454.089219 93.216667 
L 453.546439 93.216667 
L 453.003659 93.216667 
L 452.46088 93.216667 
L 451.9181 93.216667 
L 451.37532 93.216667 
L 450.83254 93.216667 
L 450.289761 93.216667 
L 449.746981 93.216667 
L 449.204201 93.216667 
L 448.661422 93.216667 
L 448.118642 93.216667 
L 447.575862 93.216667 
L 447.033082 93.216667 
L 446.490303 93.216667 
L 445.947523 93.216667 
L 445.404743 93.216667 
L 444.861963 93.216667 
L 444.319184 93.216667 
L 443.776404 93.216667 
L 443.233624 93.216667 
L 442.690845 93.216667 
L 442.148065 93.216667 
L 441.605285 93.216667 
L 441.062505 93.216667 
L 440.519726 93.216667 
L 439.976946 93.216667 
L 439.434166 93.216667 
L 438.891386 93.216667 
L 438.348607 93.216667 
L 437.805827 93.216667 
L 437.263047 93.216667 
L 436.720268 93.216667 
L 436.177488 93.216667 
L 435.634708 93.216667 
L 435.091928 93.216667 
L 434.549149 93.216667 
L 434.006369 93.216667 
L 433.463589 93.216667 
L 432.92081 93.216667 
L 432.37803 93.216667 
L 431.83525 93.216667 
L 431.29247 93.216667 
L 430.749691 93.216667 
L 430.206911 93.216667 
L 429.664131 93.216667 
L 429.121351 93.216667 
L 428.578572 93.216667 
L 428.035792 93.216667 
L 427.493012 93.216667 
L 426.950233 93.216667 
L 426.407453 93.216667 
L 425.864673 93.216667 
L 425.321893 93.216667 
L 424.779114 93.216667 
L 424.236334 93.216667 
L 423.693554 93.216667 
L 423.150774 93.216667 
L 422.607995 93.216667 
L 422.065215 93.216667 
L 421.522435 93.216667 
L 420.979656 93.216667 
L 420.436876 93.216667 
L 419.894096 93.216667 
L 419.351316 93.216667 
L 418.808537 93.216667 
L 418.265757 93.216667 
L 417.722977 93.216667 
L 417.180198 93.216667 
L 416.637418 93.216667 
L 416.094638 93.216667 
L 415.551858 93.216667 
L 415.009079 93.216667 
L 414.466299 93.216667 
L 413.923519 93.216667 
L 413.380739 93.216667 
L 412.83796 93.216667 
L 412.29518 93.216667 
L 411.7524 93.216667 
L 411.209621 93.216667 
L 410.666841 93.216667 
L 410.124061 93.216667 
L 409.581281 93.216667 
L 409.038502 93.216667 
L 408.495722 93.216667 
L 407.952942 93.216667 
L 407.410162 93.216667 
L 406.867383 93.216667 
L 406.324603 93.216667 
L 405.781823 93.216667 
L 405.239044 93.216667 
L 404.696264 93.216667 
L 404.153484 93.216667 
L 403.610704 93.216667 
L 403.067925 93.216667 
L 402.525145 93.216667 
L 401.982365 93.216667 
L 401.439585 93.216667 
L 400.896806 93.216667 
L 400.354026 93.216667 
L 399.811246 93.216667 
L 399.268467 93.216667 
L 398.725687 93.216667 
L 398.182907 93.216667 
L 397.640127 93.216667 
L 397.097348 93.216667 
L 396.554568 93.216667 
L 396.011788 93.216667 
L 395.469009 93.216667 
L 394.926229 93.216667 
L 394.383449 93.216667 
L 393.840669 93.216667 
L 393.29789 93.216667 
L 392.75511 93.216667 
L 392.21233 93.216667 
L 391.66955 93.216667 
L 391.126771 93.216667 
L 390.583991 93.216667 
L 390.041211 93.216667 
L 389.498432 93.216667 
L 388.955652 93.216667 
L 388.412872 93.216667 
L 387.870092 93.216667 
L 387.327313 93.216667 
L 386.784533 93.216667 
L 386.241753 93.216667 
L 385.698973 93.216667 
L 385.156194 93.216667 
L 384.613414 93.216667 
L 384.070634 93.216667 
L 383.527855 93.216667 
L 382.985075 93.216667 
L 382.442295 93.216667 
L 381.899515 93.216667 
L 381.356736 93.216667 
L 380.813956 93.216667 
L 380.271176 93.216667 
L 379.728397 93.216667 
L 379.185617 93.216667 
L 378.642837 93.216667 
L 378.100057 93.216667 
L 377.557278 93.216667 
L 377.014498 93.216667 
L 376.471718 93.216667 
L 375.928938 93.216667 
L 375.386159 93.216667 
L 374.843379 93.216667 
L 374.300599 93.216667 
L 373.75782 93.216667 
L 373.21504 93.216667 
L 372.67226 93.216667 
L 372.12948 93.216667 
L 371.586701 93.216667 
L 371.043921 93.216667 
L 370.501141 93.216667 
L 369.958361 93.216667 
L 369.415582 93.216667 
L 368.872802 93.216667 
L 368.330022 93.216667 
L 367.787243 93.216667 
L 367.244463 93.216667 
L 366.701683 93.216667 
L 366.158903 93.216667 
L 365.616124 93.216667 
L 365.073344 93.216667 
L 364.530564 93.216667 
L 363.987784 93.216667 
L 363.445005 93.216667 
L 362.902225 93.216667 
L 362.359445 93.216667 
L 361.816666 93.216667 
L 361.273886 93.216667 
L 360.731106 93.216667 
L 360.188326 93.216667 
L 359.645547 93.216667 
L 359.102767 93.216667 
L 358.559987 93.216667 
L 358.017208 93.216667 
L 357.474428 93.216667 
L 356.931648 93.216667 
L 356.388868 93.216667 
L 355.846089 93.216667 
L 355.303309 93.216667 
L 354.760529 93.216667 
L 354.217749 93.216667 
L 353.67497 93.216667 
L 353.13219 93.216667 
L 352.58941 93.216667 
L 352.046631 93.216667 
L 351.503851 93.216667 
L 350.961071 93.216667 
L 350.418291 93.216667 
L 349.875512 93.216667 
L 349.332732 93.216667 
L 348.789952 93.216667 
L 348.247172 93.216667 
L 347.704393 93.216667 
L 347.161613 93.216667 
L 346.618833 93.216667 
L 346.076054 93.216667 
L 345.533274 93.216667 
L 344.990494 93.216667 
L 344.447714 93.216667 
L 343.904935 93.216667 
L 343.362155 93.216667 
L 342.819375 93.216667 
L 342.276596 93.216667 
L 341.733816 93.216667 
L 341.191036 93.216667 
L 340.648256 93.216667 
L 340.105477 93.216667 
L 339.562697 93.216667 
L 339.019917 93.216667 
L 338.477137 93.216667 
L 337.934358 93.216667 
L 337.391578 93.216667 
L 336.848798 93.216667 
L 336.306019 93.216667 
L 335.763239 93.216667 
L 335.220459 93.216667 
L 334.677679 93.216667 
L 334.1349 93.216667 
L 333.59212 93.216667 
L 333.04934 93.216667 
L 332.50656 93.216667 
L 331.963781 93.216667 
L 331.421001 93.216667 
L 330.878221 93.216667 
z
" clip-path="url(#p531287ecce)" style="fill: #4a90d9; fill-opacity: 0.18; stroke: #4a90d9; stroke-opacity: 0.18"/>
   </g>
   <g id="matplotlib.axis_1">
    <g id="xtick_1">
     <g id="line2d_1">
      <defs>
       <path id="m5bd71a42f7" d="M 0 0 
L 0 3.5 
" style="stroke: #000000; stroke-width: 0.8"/>
      </defs>
      <g>
       <use xlink:href="#m5bd71a42f7" x="42.662188" y="213.64" style="stroke: #000000; stroke-width: 0.8"/>
      </g>
     </g>
     <g id="text_1">
      <!-- 0 -->
      <g transform="translate(39.480938 228.238437) scale(0.1 -0.1)">
       <defs>
        <path id="DejaVuSans-30" d="M 2034 4250 
Q 1547 4250 1301 3770 
Q 1056 3291 1056 2328 
Q 1056 1369 1301 889 
Q 1547 409 2034 409 
Q 2525 409 2770 889 
Q 3016 1369 3016 2328 
Q 3016 3291 2770 3770 
Q 2525 4250 2034 4250 
z
M 2034 4750 
Q 2819 4750 3233 4129 
Q 3647 3509 3647 2328 
Q 3647 1150 3233 529 
Q 2819 -91 2034 -91 
Q 1250 -91 836 529 
Q 422 1150 422 2328 
Q 422 3509 836 4129 
Q 1250 4750 2034 4750 
z
" transform="scale(0.015625)"/>
       </defs>
       <use xlink:href="#DejaVuSans-30"/>
      </g>
     </g>
    </g>
    <g id="xtick_2">
     <g id="line2d_2">
      <g>
       <use xlink:href="#m5bd71a42f7" x="129.398388" y="213.64" style="stroke: #000000; stroke-width: 0.8"/>
      </g>
     </g>
     <g id="text_2">
      <!-- 20 -->
      <g transform="translate(123.035888 228.238437) scale(0.1 -0.1)">
       <defs>
        <path id="DejaVuSans-32" d="M 1228 531 
L 3431 531 
L 3431 0 
L 469 0 
L 469 531 
Q 828 903 1448 1529 
Q 2069 2156 2228 2338 
Q 2531 2678 2651 2914 
Q 2772 3150 2772 3378 
Q 2772 3750 2511 3984 
Q 2250 4219 1831 4219 
Q 1534 4219 1204 4116 
Q 875 4013 500 3803 
L 500 4441 
Q 881 4594 1212 4672 
Q 1544 4750 1819 4750 
Q 2544 4750 2975 4387 
Q 3406 4025 3406 3419 
Q 3406 3131 3298 2873 
Q 3191 2616 2906 2266 
Q 2828 2175 2409 1742 
Q 1991 1309 1228 531 
z
" transform="scale(0.015625)"/>
       </defs>
       <use xlink:href="#DejaVuSans-32"/>
       <use xlink:href="#DejaVuSans-30" x="63.623047"/>
      </g>
     </g>
    </g>
    <g id="xtick_3">
     <g id="line2d_3">
      <g>
       <use xlink:href="#m5bd71a42f7" x="216.134588" y="213.64" style="stroke: #000000; stroke-width: 0.8"/>
      </g>
     </g>
     <g id="text_3">
      <!-- 40 -->
      <g transform="translate(209.772087 228.238437) scale(0.1 -0.1)">
       <defs>
        <path id="DejaVuSans-34" d="M 2419 4116 
L 825 1625 
L 2419 1625 
L 2419 4116 
z
M 2253 4666 
L 3047 4666 
L 3047 1625 
L 3713 1625 
L 3713 1100 
L 3047 1100 
L 3047 0 
L 2419 0 
L 2419 1100 
L 313 1100 
L 313 1709 
L 2253 4666 
z
" transform="scale(0.015625)"/>
       </defs>
       <use xlink:href="#DejaVuSans-34"/>
       <use xlink:href="#DejaVuSans-30" x="63.623047"/>
      </g>
     </g>
    </g>
    <g id="xtick_4">
     <g id="line2d_4">
      <g>
       <use xlink:href="#m5bd71a42f7" x="302.870788" y="213.64" style="stroke: #000000; stroke-width: 0.8"/>
      </g>
     </g>
     <g id="text_4">
      <!-- 60 -->
      <g transform="translate(296.508287 228.238437) scale(0.1 -0.1)">
       <defs>
        <path id="DejaVuSans-36" d="M 2113 2584 
Q 1688 2584 1439 2293 
Q 1191 2003 1191 1497 
Q 1191 994 1439 701 
Q 1688 409 2113 409 
Q 2538 409 2786 701 
Q 3034 994 3034 1497 
Q 3034 2003 2786 2293 
Q 2538 2584 2113 2584 
z
M 3366 4563 
L 3366 3988 
Q 3128 4100 2886 4159 
Q 2644 4219 2406 4219 
Q 1781 4219 1451 3797 
Q 1122 3375 1075 2522 
Q 1259 2794 1537 2939 
Q 1816 3084 2150 3084 
Q 2853 3084 3261 2657 
Q 3669 2231 3669 1497 
Q 3669 778 3244 343 
Q 2819 -91 2113 -91 
Q 1303 -91 875 529 
Q 447 1150 447 2328 
Q 447 3434 972 4092 
Q 1497 4750 2381 4750 
Q 2619 4750 2861 4703 
Q 3103 4656 3366 4563 
z
" transform="scale(0.015625)"/>
       </defs>
       <use xlink:href="#DejaVuSans-36"/>
       <use xlink:href="#DejaVuSans-30" x="63.623047"/>
      </g>
     </g>
    </g>
    <g id="xtick_5">
     <g id="line2d_5">
      <g>
       <use xlink:href="#m5bd71a42f7" x="389.606988" y="213.64" style="stroke: #000000; stroke-width: 0.8"/>
      </g>
     </g>
     <g id="text_5">
      <!-- 80 -->
      <g transform="translate(383.244487 228.238437) scale(0.1 -0.1)">
       <defs>
        <path id="DejaVuSans-38" d="M 2034 2216 
Q 1584 2216 1326 1975 
Q 1069 1734 1069 1313 
Q 1069 891 1326 650 
Q 1584 409 2034 409 
Q 2484 409 2743 651 
Q 3003 894 3003 1313 
Q 3003 1734 2745 1975 
Q 2488 2216 2034 2216 
z
M 1403 2484 
Q 997 2584 770 2862 
Q 544 3141 544 3541 
Q 544 4100 942 4425 
Q 1341 4750 2034 4750 
Q 2731 4750 3128 4425 
Q 3525 4100 3525 3541 
Q 3525 3141 3298 2862 
Q 3072 2584 2669 2484 
Q 3125 2378 3379 2068 
Q 3634 1759 3634 1313 
Q 3634 634 3220 271 
Q 2806 -91 2034 -91 
Q 1263 -91 848 271 
Q 434 634 434 1313 
Q 434 1759 690 2068 
Q 947 2378 1403 2484 
z
M 1172 3481 
Q 1172 3119 1398 2916 
Q 1625 2713 2034 2713 
Q 2441 2713 2670 2916 
Q 2900 3119 2900 3481 
Q 2900 3844 2670 4047 
Q 2441 4250 2034 4250 
Q 1625 4250 1398 4047 
Q 1172 3844 1172 3481 
z
" transform="scale(0.015625)"/>
       </defs>
       <use xlink:href="#DejaVuSans-38"/>
       <use xlink:href="#DejaVuSans-30" x="63.623047"/>
      </g>
     </g>
    </g>
    <g id="xtick_6">
     <g id="line2d_6">
      <g>
       <use xlink:href="#m5bd71a42f7" x="476.343187" y="213.64" style="stroke: #000000; stroke-width: 0.8"/>
      </g>
     </g>
     <g id="text_6">
      <!-- 100 -->
      <g transform="translate(466.799438 228.238437) scale(0.1 -0.1)">
       <defs>
        <path id="DejaVuSans-31" d="M 794 531 
L 1825 531 
L 1825 4091 
L 703 3866 
L 703 4441 
L 1819 4666 
L 2450 4666 
L 2450 531 
L 3481 531 
L 3481 0 
L 794 0 
L 794 531 
z
" transform="scale(0.015625)"/>
       </defs>
       <use xlink:href="#DejaVuSans-31"/>
       <use xlink:href="#DejaVuSans-30" x="63.623047"/>
       <use xlink:href="#DejaVuSans-30" x="127.246094"/>
      </g>
     </g>
    </g>
    <g id="text_7">
     <!-- SOC (%) -->
     <g transform="translate(238.659719 241.916562) scale(0.1 -0.1)">
      <defs>
       <path id="DejaVuSans-53" d="M 3425 4513 
L 3425 3897 
Q 3066 4069 2747 4153 
Q 2428 4238 2131 4238 
Q 1616 4238 1336 4038 
Q 1056 3838 1056 3469 
Q 1056 3159 1242 3001 
Q 1428 2844 1947 2747 
L 2328 2669 
Q 3034 2534 3370 2195 
Q 3706 1856 3706 1288 
Q 3706 609 3251 259 
Q 2797 -91 1919 -91 
Q 1588 -91 1214 -16 
Q 841 59 441 206 
L 441 856 
Q 825 641 1194 531 
Q 1563 422 1919 422 
Q 2459 422 2753 634 
Q 3047 847 3047 1241 
Q 3047 1584 2836 1778 
Q 2625 1972 2144 2069 
L 1759 2144 
Q 1053 2284 737 2584 
Q 422 2884 422 3419 
Q 422 4038 858 4394 
Q 1294 4750 2059 4750 
Q 2388 4750 2728 4690 
Q 3069 4631 3425 4513 
z
" transform="scale(0.015625)"/>
       <path id="DejaVuSans-4f" d="M 2522 4238 
Q 1834 4238 1429 3725 
Q 1025 3213 1025 2328 
Q 1025 1447 1429 934 
Q 1834 422 2522 422 
Q 3209 422 3611 934 
Q 4013 1447 4013 2328 
Q 4013 3213 3611 3725 
Q 3209 4238 2522 4238 
z
M 2522 4750 
Q 3503 4750 4090 4092 
Q 4678 3434 4678 2328 
Q 4678 1225 4090 567 
Q 3503 -91 2522 -91 
Q 1538 -91 948 565 
Q 359 1222 359 2328 
Q 359 3434 948 4092 
Q 1538 4750 2522 4750 
z
" transform="scale(0.015625)"/>
       <path id="DejaVuSans-43" d="M 4122 4306 
L 4122 3641 
Q 3803 3938 3442 4084 
Q 3081 4231 2675 4231 
Q 1875 4231 1450 3742 
Q 1025 3253 1025 2328 
Q 1025 1406 1450 917 
Q 1875 428 2675 428 
Q 3081 428 3442 575 
Q 3803 722 4122 1019 
L 4122 359 
Q 3791 134 3420 21 
Q 3050 -91 2638 -91 
Q 1578 -91 968 557 
Q 359 1206 359 2328 
Q 359 3453 968 4101 
Q 1578 4750 2638 4750 
Q 3056 4750 3426 4639 
Q 3797 4528 4122 4306 
z
" transform="scale(0.015625)"/>
       <path id="DejaVuSans-20" transform="scale(0.015625)"/>
       <path id="DejaVuSans-28" d="M 1984 4856 
Q 1566 4138 1362 3434 
Q 1159 2731 1159 2009 
Q 1159 1288 1364 580 
Q 1569 -128 1984 -844 
L 1484 -844 
Q 1016 -109 783 600 
Q 550 1309 550 2009 
Q 550 2706 781 3412 
Q 1013 4119 1484 4856 
L 1984 4856 
z
" transform="scale(0.015625)"/>
       <path id="DejaVuSans-25" d="M 4653 2053 
Q 4381 2053 4226 1822 
Q 4072 1591 4072 1178 
Q 4072 772 4226 539 
Q 4381 306 4653 306 
Q 4919 306 5073 539 
Q 5228 772 5228 1178 
Q 5228 1588 5073 1820 
Q 4919 2053 4653 2053 
z
M 4653 2450 
Q 5147 2450 5437 2106 
Q 5728 1763 5728 1178 
Q 5728 594 5436 251 
Q 5144 -91 4653 -91 
Q 4153 -91 3862 251 
Q 3572 594 3572 1178 
Q 3572 1766 3864 2108 
Q 4156 2450 4653 2450 
z
M 1428 4353 
Q 1159 4353 1004 4120 
Q 850 3888 850 3481 
Q 850 3069 1003 2837 
Q 1156 2606 1428 2606 
Q 1700 2606 1854 2837 
Q 2009 3069 2009 3481 
Q 2009 3884 1853 4118 
Q 1697 4353 1428 4353 
z
M 4250 4750 
L 4750 4750 
L 1831 -91 
L 1331 -91 
L 4250 4750 
z
M 1428 4750 
Q 1922 4750 2215 4408 
Q 2509 4066 2509 3481 
Q 2509 2891 2217 2550 
Q 1925 2209 1428 2209 
Q 931 2209 642 2551 
Q 353 2894 353 3481 
Q 353 4063 643 4406 
Q 934 4750 1428 4750 
z
" transform="scale(0.015625)"/>
       <path id="DejaVuSans-29" d="M 513 4856 
L 1013 4856 
Q 1481 4119 1714 3412 
Q 1947 2706 1947 2009 
Q 1947 1309 1714 600 
Q 1481 -109 1013 -844 
L 513 -844 
Q 928 -128 1133 580 
Q 1338 1288 1338 2009 
Q 1338 2731 1133 3434 
Q 928 4138 513 4856 
z
" transform="scale(0.015625)"/>
      </defs>
      <use xlink:href="#DejaVuSans-53"/>
      <use xlink:href="#DejaVuSans-4f" x="63.476562"/>
      <use xlink:href="#DejaVuSans-43" x="142.1875"/>
      <use xlink:href="#DejaVuSans-20" x="212.011719"/>
      <use xlink:href="#DejaVuSans-28" x="243.798828"/>
      <use xlink:href="#DejaVuSans-25" x="282.8125"/>
      <use xlink:href="#DejaVuSans-29" x="377.832031"/>
     </g>
    </g>
   </g>
   <g id="matplotlib.axis_2">
    <g id="ytick_1">
     <g id="line2d_7">
      <defs>
       <path id="m7e02262391" d="M 0 0 
L -3.5 0 
" style="stroke: #000000; stroke-width: 0.8"/>
      </defs>
      <g>
       <use xlink:href="#m7e02262391" x="42.662188" y="196.436667" style="stroke: #000000; stroke-width: 0.8"/>
      </g>
     </g>
     <g id="text_8">
      <!-- −3 -->
      <g transform="translate(20.92 200.235885) scale(0.1 -0.1)">
       <defs>
        <path id="DejaVuSans-2212" d="M 678 2272 
L 4684 2272 
L 4684 1741 
L 678 1741 
L 678 2272 
z
" transform="scale(0.015625)"/>
        <path id="DejaVuSans-33" d="M 2597 2516 
Q 3050 2419 3304 2112 
Q 3559 1806 3559 1356 
Q 3559 666 3084 287 
Q 2609 -91 1734 -91 
Q 1441 -91 1130 -33 
Q 819 25 488 141 
L 488 750 
Q 750 597 1062 519 
Q 1375 441 1716 441 
Q 2309 441 2620 675 
Q 2931 909 2931 1356 
Q 2931 1769 2642 2001 
Q 2353 2234 1838 2234 
L 1294 2234 
L 1294 2753 
L 1863 2753 
Q 2328 2753 2575 2939 
Q 2822 3125 2822 3475 
Q 2822 3834 2567 4026 
Q 2313 4219 1838 4219 
Q 1578 4219 1281 4162 
Q 984 4106 628 3988 
L 628 4550 
Q 988 4650 1302 4700 
Q 1616 4750 1894 4750 
Q 2613 4750 3031 4423 
Q 3450 4097 3450 3541 
Q 3450 3153 3228 2886 
Q 3006 2619 2597 2516 
z
" transform="scale(0.015625)"/>
       </defs>
       <use xlink:href="#DejaVuSans-2212"/>
       <use xlink:href="#DejaVuSans-33" x="83.789062"/>
      </g>
     </g>
    </g>
    <g id="ytick_2">
     <g id="line2d_8">
      <g>
       <use xlink:href="#m7e02262391" x="42.662188" y="162.03" style="stroke: #000000; stroke-width: 0.8"/>
      </g>
     </g>
     <g id="text_9">
      <!-- −2 -->
      <g transform="translate(20.92 165.829219) scale(0.1 -0.1)">
       <use xlink:href="#DejaVuSans-2212"/>
       <use xlink:href="#DejaVuSans-32" x="83.789062"/>
      </g>
     </g>
    </g>
    <g id="ytick_3">
     <g id="line2d_9">
      <g>
       <use xlink:href="#m7e02262391" x="42.662188" y="127.623333" style="stroke: #000000; stroke-width: 0.8"/>
      </g>
     </g>
     <g id="text_10">
      <!-- −1 -->
      <g transform="translate(20.92 131.422552) scale(0.1 -0.1)">
       <use xlink:href="#DejaVuSans-2212"/>
       <use xlink:href="#DejaVuSans-31" x="83.789062"/>
      </g>
     </g>
    </g>
    <g id="ytick_4">
     <g id="line2d_10">
      <g>
       <use xlink:href="#m7e02262391" x="42.662188" y="93.216667" style="stroke: #000000; stroke-width: 0.8"/>
      </g>
     </g>
     <g id="text_11">
      <!-- 0 -->
      <g transform="translate(29.299688 97.015885) scale(0.1 -0.1)">
       <use xlink:href="#DejaVuSans-30"/>
      </g>
     </g>
    </g>
    <g id="ytick_5">
     <g id="line2d_11">
      <g>
       <use xlink:href="#m7e02262391" x="42.662188" y="58.81" style="stroke: #000000; stroke-width: 0.8"/>
      </g>
     </g>
     <g id="text_12">
      <!-- 1 -->
      <g transform="translate(29.299688 62.609219) scale(0.1 -0.1)">
       <use xlink:href="#DejaVuSans-31"/>
      </g>
     </g>
    </g>
    <g id="ytick_6">
     <g id="line2d_12">
      <g>
       <use xlink:href="#m7e02262391" x="42.662188" y="24.403333" style="stroke: #000000; stroke-width: 0.8"/>
      </g>
     </g>
     <g id="text_13">
      <!-- 2 -->
      <g transform="translate(29.299688 28.202552) scale(0.1 -0.1)">
       <use xlink:href="#DejaVuSans-32"/>
      </g>
     </g>
    </g>
    <g id="text_14">
     <!-- $\partial E_{oc}/\partial T\;(\times 10^{-4}\ \mathrm{V\,K^{-1}})$ -->
     <g transform="translate(15.048281 158.03) rotate(-90) scale(0.09 -0.09)">
      <defs>
       <path id="DejaVuSans-2202" d="M 1366 -91 
Q 925 -91 638 175 
Q 297 491 297 1063 
Q 297 1656 597 2119 
Q 906 2594 1463 2594 
Q 1828 2594 2116 2366 
Q 2284 2231 2400 2006 
Q 2441 2259 2441 2547 
Q 2441 2969 2341 3213 
Q 2119 3753 1531 3753 
Q 1309 3753 966 3616 
L 966 4141 
Q 1328 4238 1653 4238 
Q 2491 4238 2847 3469 
Q 3013 3106 3013 2566 
Q 3013 2213 2934 1803 
Q 2738 778 2228 291 
Q 1828 -91 1366 -91 
z
M 831 969 
Q 831 656 969 488 
Q 1116 309 1341 309 
Q 1541 309 1700 450 
Q 1925 644 2091 959 
Q 2228 1219 2297 1497 
Q 2019 2169 1538 2169 
Q 1125 2169 944 1625 
Q 831 1288 831 969 
z
" transform="scale(0.015625)"/>
       <path id="DejaVuSans-Oblique-45" d="M 1081 4666 
L 4031 4666 
L 3928 4134 
L 1606 4134 
L 1338 2753 
L 3566 2753 
L 3463 2222 
L 1234 2222 
L 909 531 
L 3284 531 
L 3181 0 
L 172 0 
L 1081 4666 
z
" transform="scale(0.015625)"/>
       <path id="DejaVuSans-Oblique-6f" d="M 1625 -91 
Q 1009 -91 651 289 
Q 294 669 294 1325 
Q 294 1706 417 2101 
Q 541 2497 738 2766 
Q 1047 3184 1428 3384 
Q 1809 3584 2291 3584 
Q 2888 3584 3255 3212 
Q 3622 2841 3622 2241 
Q 3622 1825 3500 1412 
Q 3378 1000 3181 728 
Q 2875 309 2494 109 
Q 2113 -91 1625 -91 
z
M 891 1344 
Q 891 869 1089 633 
Q 1288 397 1691 397 
Q 2269 397 2648 901 
Q 3028 1406 3028 2181 
Q 3028 2634 2825 2865 
Q 2622 3097 2228 3097 
Q 1903 3097 1650 2945 
Q 1397 2794 1197 2484 
Q 1050 2253 970 1956 
Q 891 1659 891 1344 
z
" transform="scale(0.015625)"/>
       <path id="DejaVuSans-Oblique-63" d="M 3431 3366 
L 3316 2797 
Q 3109 2947 2876 3022 
Q 2644 3097 2394 3097 
Q 2119 3097 1870 3000 
Q 1622 2903 1453 2725 
Q 1184 2453 1037 2087 
Q 891 1722 891 1331 
Q 891 859 1127 628 
Q 1363 397 1844 397 
Q 2081 397 2348 469 
Q 2616 541 2906 684 
L 2797 116 
Q 2547 13 2283 -39 
Q 2019 -91 1741 -91 
Q 1044 -91 669 257 
Q 294 606 294 1253 
Q 294 1797 489 2255 
Q 684 2713 1069 3078 
Q 1331 3328 1684 3456 
Q 2038 3584 2456 3584 
Q 2700 3584 2940 3529 
Q 3181 3475 3431 3366 
z
" transform="scale(0.015625)"/>
       <path id="DejaVuSans-2f" d="M 1625 4666 
L 2156 4666 
L 531 -594 
L 0 -594 
L 1625 4666 
z
" transform="scale(0.015625)"/>
       <path id="DejaVuSans-Oblique-54" d="M 378 4666 
L 4325 4666 
L 4225 4134 
L 2559 4134 
L 1759 0 
L 1125 0 
L 1925 4134 
L 275 4134 
L 378 4666 
z
" transform="scale(0.015625)"/>
       <path id="DejaVuSans-d7" d="M 4488 3438 
L 3059 2003 
L 4488 575 
L 4116 197 
L 2681 1631 
L 1247 197 
L 878 575 
L 2303 2003 
L 878 3438 
L 1247 3816 
L 2681 2381 
L 4116 3816 
L 4488 3438 
z
" transform="scale(0.015625)"/>
       <path id="DejaVuSans-56" d="M 1831 0 
L 50 4666 
L 709 4666 
L 2188 738 
L 3669 4666 
L 4325 4666 
L 2547 0 
L 1831 0 
z
" transform="scale(0.015625)"/>
       <path id="DejaVuSans-4b" d="M 628 4666 
L 1259 4666 
L 1259 2694 
L 3353 4666 
L 4166 4666 
L 1850 2491 
L 4331 0 
L 3500 0 
L 1259 2247 
L 1259 0 
L 628 0 
L 628 4666 
z
" transform="scale(0.015625)"/>
      </defs>
      <use xlink:href="#DejaVuSans-2202" transform="translate(0 0.684375)"/>
      <use xlink:href="#DejaVuSans-Oblique-45" transform="translate(51.708984 0.684375)"/>
      <use xlink:href="#DejaVuSans-Oblique-6f" transform="translate(114.892578 -15.721875) scale(0.7)"/>
      <use xlink:href="#DejaVuSans-Oblique-63" transform="translate(157.719727 -15.721875) scale(0.7)"/>
      <use xlink:href="#DejaVuSans-2f" transform="translate(198.94043 0.684375)"/>
      <use xlink:href="#DejaVuSans-2202" transform="translate(232.631836 0.684375)"/>
      <use xlink:href="#DejaVuSans-Oblique-54" transform="translate(284.34082 0.684375)"/>
      <use xlink:href="#DejaVuSans-28" transform="translate(372.48394 0.684375)"/>
      <use xlink:href="#DejaVuSans-d7" transform="translate(411.497612 0.684375)"/>
      <use xlink:href="#DejaVuSans-31" transform="translate(495.286675 0.684375)"/>
      <use xlink:href="#DejaVuSans-30" transform="translate(558.909722 0.684375)"/>
      <use xlink:href="#DejaVuSans-2212" transform="translate(623.4898 38.965625) scale(0.7)"/>
      <use xlink:href="#DejaVuSans-34" transform="translate(682.142144 38.965625) scale(0.7)"/>
      <use xlink:href="#DejaVuSans-56" transform="translate(761.88303 0.684375)"/>
      <use xlink:href="#DejaVuSans-4b" transform="translate(846.526909 0.684375)"/>
      <use xlink:href="#DejaVuSans-2212" transform="translate(913.060112 38.965625) scale(0.7)"/>
      <use xlink:href="#DejaVuSans-31" transform="translate(971.712456 38.965625) scale(0.7)"/>
      <use xlink:href="#DejaVuSans-29" transform="translate(1018.982964 0.684375)"/>
     </g>
    </g>
   </g>
   <g id="line2d_13">
    <path d="M 42.662188 93.216667 
L 476.343187 93.216667 
" clip-path="url(#p531287ecce)" style="fill: none; stroke-dasharray: 2.96,1.28; stroke-dashoffset: 0; stroke: #999999; stroke-width: 0.8"/>
   </g>
   <g id="line2d_14">
    <path d="M 42.662188 27.646538 
L 44.290527 24.907899 
L 45.918866 22.53572 
L 47.547205 20.568619 
L 49.175544 19.039848 
L 50.261104 18.277865 
L 51.346663 17.729329 
L 52.432223 17.399305 
L 53.517782 17.291471 
L 54.603341 17.408111 
L 55.688901 17.750127 
L 56.77446 18.317077 
L 57.86002 19.107224 
L 58.945579 20.117613 
L 60.573918 22.036918 
L 62.202258 24.424289 
L 63.830597 27.257349 
L 65.458936 30.510316 
L 67.630055 35.451735 
L 69.801174 41.018339 
L 72.515072 48.744815 
L 75.228971 57.192687 
L 78.485649 68.084989 
L 82.827887 83.477545 
L 90.969583 112.661349 
L 93.683482 121.627754 
L 95.854601 128.205942 
L 98.025719 134.090155 
L 99.654059 137.959823 
L 101.282398 141.301205 
L 102.910737 144.066053 
L 103.996296 145.569415 
L 105.081856 146.790316 
L 106.167415 147.722348 
L 107.252975 148.361578 
L 108.338534 148.706599 
L 109.424094 148.75851 
L 110.509653 148.520848 
L 111.595213 147.999451 
L 112.680772 147.202273 
L 113.766331 146.139157 
L 114.851891 144.821567 
L 116.48023 142.396322 
L 118.108569 139.474762 
L 119.736908 136.107125 
L 121.908027 131.011702 
L 124.079146 125.334585 
L 126.793045 117.596921 
L 130.592503 105.965602 
L 137.648639 84.062275 
L 140.362538 76.47324 
L 142.533657 71.131268 
L 144.161996 67.679552 
L 145.790335 64.787248 
L 146.875895 63.201436 
L 147.961454 61.907103 
L 149.047014 60.91507 
L 150.132573 60.231913 
L 151.218132 59.859663 
L 152.303692 59.795628 
L 153.389251 60.032372 
L 154.474811 60.557835 
L 155.56037 61.3556 
L 156.64593 62.405304 
L 158.274269 64.399425 
L 159.902608 66.814872 
L 162.073727 70.517283 
L 165.873185 77.644921 
L 169.672643 84.624751 
L 171.843762 88.224969 
L 174.014881 91.432129 
L 176.186 94.213694 
L 178.357119 96.575594 
L 180.528238 98.551784 
L 182.699356 100.193378 
L 184.870475 101.558836 
L 187.584374 102.965197 
L 190.841052 104.340762 
L 194.64051 105.671837 
L 199.525528 107.117032 
L 204.410545 108.320466 
L 208.752783 109.147371 
L 212.552241 109.622206 
L 215.80892 109.7961 
L 218.522818 109.745277 
L 221.236717 109.490007 
L 223.950616 109.004264 
L 226.664514 108.260559 
L 228.835633 107.46026 
L 231.006752 106.460316 
L 233.177871 105.24416 
L 235.34899 103.794739 
L 237.520109 102.094903 
L 239.691228 100.128018 
L 241.862346 97.878795 
L 244.033465 95.334345 
L 246.204584 92.485445 
L 248.375703 89.327956 
L 251.089602 84.951634 
L 253.8035 80.120563 
L 257.060179 73.790905 
L 260.859637 65.846071 
L 270.629672 45.037087 
L 273.34357 39.925594 
L 275.514689 36.281787 
L 277.685808 33.129462 
L 279.314147 31.135429 
L 280.942487 29.490781 
L 282.570826 28.219181 
L 283.656385 27.58792 
L 284.741945 27.134595 
L 285.827504 26.861906 
L 286.913064 26.77129 
L 287.998623 26.862902 
L 289.084182 27.135615 
L 290.169742 27.587033 
L 291.255301 28.21352 
L 292.883641 29.470636 
L 294.51198 31.089532 
L 296.140319 33.044062 
L 297.768658 35.303639 
L 299.939777 38.731383 
L 302.653676 43.55776 
L 305.910354 49.903449 
L 317.851508 73.816563 
L 321.108186 79.567686 
L 323.822085 83.943264 
L 326.535983 87.925129 
L 329.249882 91.523629 
L 331.963781 94.766659 
L 334.677679 97.694278 
L 337.934358 100.857605 
L 341.191036 103.720106 
L 345.533274 107.20883 
L 351.503851 111.663027 
L 367.244463 122.975257 
L 374.843379 128.254128 
L 379.728397 131.414168 
L 384.070634 133.968248 
L 387.870092 135.942993 
L 391.126771 137.402805 
L 394.383449 138.617356 
L 397.640127 139.561464 
L 400.354026 140.126441 
L 403.067925 140.479626 
L 405.781823 140.614275 
L 408.495722 140.526477 
L 411.209621 140.215242 
L 413.923519 139.682511 
L 416.637418 138.933091 
L 419.351316 137.974492 
L 422.607995 136.562261 
L 425.864673 134.884531 
L 429.121351 132.965956 
L 432.92081 130.459106 
L 437.263047 127.293772 
L 442.148065 123.424289 
L 447.575862 118.829923 
L 454.089219 113.004164 
L 461.145355 106.374805 
L 468.744271 98.911649 
L 476.343187 91.264846 
L 476.343187 91.264846 
" clip-path="url(#p531287ecce)" style="fill: none; stroke: #1a1a2e; stroke-width: 1.8; stroke-linecap: square"/>
   </g>
   <g id="line2d_15">
    <path d="M 80.609275 213.64 
L 80.609275 7.2 
" clip-path="url(#p531287ecce)" style="fill: none; stroke-dasharray: 0.7,1.155; stroke-dashoffset: 0; stroke: #bbbbbb; stroke-width: 0.7"/>
   </g>
   <g id="line2d_16">
    <path d="M 134.8194 213.64 
L 134.8194 7.2 
" clip-path="url(#p531287ecce)" style="fill: none; stroke-dasharray: 0.7,1.155; stroke-dashoffset: 0; stroke: #bbbbbb; stroke-width: 0.7"/>
   </g>
   <g id="line2d_17">
    <path d="M 286.60775 213.64 
L 286.60775 7.2 
" clip-path="url(#p531287ecce)" style="fill: none; stroke-dasharray: 0.7,1.155; stroke-dashoffset: 0; stroke: #bbbbbb; stroke-width: 0.7"/>
   </g>
   <g id="patch_3">
    <path d="M 42.662188 213.64 
L 42.662188 7.2 
" style="fill: none; stroke: #000000; stroke-width: 0.8; stroke-linejoin: miter; stroke-linecap: square"/>
   </g>
   <g id="patch_4">
    <path d="M 42.662188 213.64 
L 476.343187 213.64 
" style="fill: none; stroke: #000000; stroke-width: 0.8; stroke-linejoin: miter; stroke-linecap: square"/>
   </g>
   <g id="text_15">
    <!-- Stage 4→3 -->
    <g style="fill: #666666" transform="translate(84.078723 204.816318) scale(0.065 -0.065)">
     <defs>
      <path id="DejaVuSans-74" d="M 1172 4494 
L 1172 3500 
L 2356 3500 
L 2356 3053 
L 1172 3053 
L 1172 1153 
Q 1172 725 1289 603 
Q 1406 481 1766 481 
L 2356 481 
L 2356 0 
L 1766 0 
Q 1100 0 847 248 
Q 594 497 594 1153 
L 594 3053 
L 172 3053 
L 172 3500 
L 594 3500 
L 594 4494 
L 1172 4494 
z
" transform="scale(0.015625)"/>
      <path id="DejaVuSans-61" d="M 2194 1759 
Q 1497 1759 1228 1600 
Q 959 1441 959 1056 
Q 959 750 1161 570 
Q 1363 391 1709 391 
Q 2188 391 2477 730 
Q 2766 1069 2766 1631 
L 2766 1759 
L 2194 1759 
z
M 3341 1997 
L 3341 0 
L 2766 0 
L 2766 531 
Q 2569 213 2275 61 
Q 1981 -91 1556 -91 
Q 1019 -91 701 211 
Q 384 513 384 1019 
Q 384 1609 779 1909 
Q 1175 2209 1959 2209 
L 2766 2209 
L 2766 2266 
Q 2766 2663 2505 2880 
Q 2244 3097 1772 3097 
Q 1472 3097 1187 3025 
Q 903 2953 641 2809 
L 641 3341 
Q 956 3463 1253 3523 
Q 1550 3584 1831 3584 
Q 2591 3584 2966 3190 
Q 3341 2797 3341 1997 
z
" transform="scale(0.015625)"/>
      <path id="DejaVuSans-67" d="M 2906 1791 
Q 2906 2416 2648 2759 
Q 2391 3103 1925 3103 
Q 1463 3103 1205 2759 
Q 947 2416 947 1791 
Q 947 1169 1205 825 
Q 1463 481 1925 481 
Q 2391 481 2648 825 
Q 2906 1169 2906 1791 
z
M 3481 434 
Q 3481 -459 3084 -895 
Q 2688 -1331 1869 -1331 
Q 1566 -1331 1297 -1286 
Q 1028 -1241 775 -1147 
L 775 -588 
Q 1028 -725 1275 -790 
Q 1522 -856 1778 -856 
Q 2344 -856 2625 -561 
Q 2906 -266 2906 331 
L 2906 616 
Q 2728 306 2450 153 
Q 2172 0 1784 0 
Q 1141 0 747 490 
Q 353 981 353 1791 
Q 353 2603 747 3093 
Q 1141 3584 1784 3584 
Q 2172 3584 2450 3431 
Q 2728 3278 2906 2969 
L 2906 3500 
L 3481 3500 
L 3481 434 
z
" transform="scale(0.015625)"/>
      <path id="DejaVuSans-65" d="M 3597 1894 
L 3597 1613 
L 953 1613 
Q 991 1019 1311 708 
Q 1631 397 2203 397 
Q 2534 397 2845 478 
Q 3156 559 3463 722 
L 3463 178 
Q 3153 47 2828 -22 
Q 2503 -91 2169 -91 
Q 1331 -91 842 396 
Q 353 884 353 1716 
Q 353 2575 817 3079 
Q 1281 3584 2069 3584 
Q 2775 3584 3186 3129 
Q 3597 2675 3597 1894 
z
M 3022 2063 
Q 3016 2534 2758 2815 
Q 2500 3097 2075 3097 
Q 1594 3097 1305 2825 
Q 1016 2553 972 2059 
L 3022 2063 
z
" transform="scale(0.015625)"/>
      <path id="DejaVuSans-2192" d="M 5050 2147 
L 5050 1866 
L 3822 638 
L 3447 1013 
L 4175 1741 
L 366 1741 
L 366 2272 
L 4175 2272 
L 3447 3000 
L 3822 3375 
L 5050 2147 
z
" transform="scale(0.015625)"/>
     </defs>
     <use xlink:href="#DejaVuSans-53"/>
     <use xlink:href="#DejaVuSans-74" x="63.476562"/>
     <use xlink:href="#DejaVuSans-61" x="102.685547"/>
     <use xlink:href="#DejaVuSans-67" x="163.964844"/>
     <use xlink:href="#DejaVuSans-65" x="227.441406"/>
     <use xlink:href="#DejaVuSans-20" x="288.964844"/>
     <use xlink:href="#DejaVuSans-34" x="320.751953"/>
     <use xlink:href="#DejaVuSans-2192" x="384.375"/>
     <use xlink:href="#DejaVuSans-33" x="468.164062"/>
    </g>
   </g>
   <g id="text_16">
    <!-- Stage 3→2 -->
    <g style="fill: #666666" transform="translate(138.288848 204.816318) scale(0.065 -0.065)">
     <use xlink:href="#DejaVuSans-53"/>
     <use xlink:href="#DejaVuSans-74" x="63.476562"/>
     <use xlink:href="#DejaVuSans-61" x="102.685547"/>
     <use xlink:href="#DejaVuSans-67" x="163.964844"/>
     <use xlink:href="#DejaVuSans-65" x="227.441406"/>
     <use xlink:href="#DejaVuSans-20" x="288.964844"/>
     <use xlink:href="#DejaVuSans-33" x="320.751953"/>
     <use xlink:href="#DejaVuSans-2192" x="384.375"/>
     <use xlink:href="#DejaVuSans-32" x="468.164062"/>
    </g>
   </g>
   <g id="text_17">
    <!-- Stage 2→1 -->
    <g style="fill: #666666" transform="translate(290.077198 204.816318) scale(0.065 -0.065)">
     <use xlink:href="#DejaVuSans-53"/>
     <use xlink:href="#DejaVuSans-74" x="63.476562"/>
     <use xlink:href="#DejaVuSans-61" x="102.685547"/>
     <use xlink:href="#DejaVuSans-67" x="163.964844"/>
     <use xlink:href="#DejaVuSans-65" x="227.441406"/>
     <use xlink:href="#DejaVuSans-20" x="288.964844"/>
     <use xlink:href="#DejaVuSans-32" x="320.751953"/>
     <use xlink:href="#DejaVuSans-2192" x="384.375"/>
     <use xlink:href="#DejaVuSans-31" x="468.164062"/>
    </g>
   </g>
   <g id="text_18">
    <!-- Schematic after Reynier et al. (2003) and Viswanathan et al. (2010) -->
    <g style="fill: #999999" transform="translate(268.29044 208.263387) scale(0.06 -0.06)">
     <defs>
      <path id="DejaVuSans-63" d="M 3122 3366 
L 3122 2828 
Q 2878 2963 2633 3030 
Q 2388 3097 2138 3097 
Q 1578 3097 1268 2742 
Q 959 2388 959 1747 
Q 959 1106 1268 751 
Q 1578 397 2138 397 
Q 2388 397 2633 464 
Q 2878 531 3122 666 
L 3122 134 
Q 2881 22 2623 -34 
Q 2366 -91 2075 -91 
Q 1284 -91 818 406 
Q 353 903 353 1747 
Q 353 2603 823 3093 
Q 1294 3584 2113 3584 
Q 2378 3584 2631 3529 
Q 2884 3475 3122 3366 
z
" transform="scale(0.015625)"/>
      <path id="DejaVuSans-68" d="M 3513 2113 
L 3513 0 
L 2938 0 
L 2938 2094 
Q 2938 2591 2744 2837 
Q 2550 3084 2163 3084 
Q 1697 3084 1428 2787 
Q 1159 2491 1159 1978 
L 1159 0 
L 581 0 
L 581 4863 
L 1159 4863 
L 1159 2956 
Q 1366 3272 1645 3428 
Q 1925 3584 2291 3584 
Q 2894 3584 3203 3211 
Q 3513 2838 3513 2113 
z
" transform="scale(0.015625)"/>
      <path id="DejaVuSans-6d" d="M 3328 2828 
Q 3544 3216 3844 3400 
Q 4144 3584 4550 3584 
Q 5097 3584 5394 3201 
Q 5691 2819 5691 2113 
L 5691 0 
L 5113 0 
L 5113 2094 
Q 5113 2597 4934 2840 
Q 4756 3084 4391 3084 
Q 3944 3084 3684 2787 
Q 3425 2491 3425 1978 
L 3425 0 
L 2847 0 
L 2847 2094 
Q 2847 2600 2669 2842 
Q 2491 3084 2119 3084 
Q 1678 3084 1418 2786 
Q 1159 2488 1159 1978 
L 1159 0 
L 581 0 
L 581 3500 
L 1159 3500 
L 1159 2956 
Q 1356 3278 1631 3431 
Q 1906 3584 2284 3584 
Q 2666 3584 2933 3390 
Q 3200 3197 3328 2828 
z
" transform="scale(0.015625)"/>
      <path id="DejaVuSans-69" d="M 603 3500 
L 1178 3500 
L 1178 0 
L 603 0 
L 603 3500 
z
M 603 4863 
L 1178 4863 
L 1178 4134 
L 603 4134 
L 603 4863 
z
" transform="scale(0.015625)"/>
      <path id="DejaVuSans-66" d="M 2375 4863 
L 2375 4384 
L 1825 4384 
Q 1516 4384 1395 4259 
Q 1275 4134 1275 3809 
L 1275 3500 
L 2222 3500 
L 2222 3053 
L 1275 3053 
L 1275 0 
L 697 0 
L 697 3053 
L 147 3053 
L 147 3500 
L 697 3500 
L 697 3744 
Q 697 4328 969 4595 
Q 1241 4863 1831 4863 
L 2375 4863 
z
" transform="scale(0.015625)"/>
      <path id="DejaVuSans-72" d="M 2631 2963 
Q 2534 3019 2420 3045 
Q 2306 3072 2169 3072 
Q 1681 3072 1420 2755 
Q 1159 2438 1159 1844 
L 1159 0 
L 581 0 
L 581 3500 
L 1159 3500 
L 1159 2956 
Q 1341 3275 1631 3429 
Q 1922 3584 2338 3584 
Q 2397 3584 2469 3576 
Q 2541 3569 2628 3553 
L 2631 2963 
z
" transform="scale(0.015625)"/>
      <path id="DejaVuSans-52" d="M 2841 2188 
Q 3044 2119 3236 1894 
Q 3428 1669 3622 1275 
L 4263 0 
L 3584 0 
L 2988 1197 
Q 2756 1666 2539 1819 
Q 2322 1972 1947 1972 
L 1259 1972 
L 1259 0 
L 628 0 
L 628 4666 
L 2053 4666 
Q 2853 4666 3247 4331 
Q 3641 3997 3641 3322 
Q 3641 2881 3436 2590 
Q 3231 2300 2841 2188 
z
M 1259 4147 
L 1259 2491 
L 2053 2491 
Q 2509 2491 2742 2702 
Q 2975 2913 2975 3322 
Q 2975 3731 2742 3939 
Q 2509 4147 2053 4147 
L 1259 4147 
z
" transform="scale(0.015625)"/>
      <path id="DejaVuSans-79" d="M 2059 -325 
Q 1816 -950 1584 -1140 
Q 1353 -1331 966 -1331 
L 506 -1331 
L 506 -850 
L 844 -850 
Q 1081 -850 1212 -737 
Q 1344 -625 1503 -206 
L 1606 56 
L 191 3500 
L 800 3500 
L 1894 763 
L 2988 3500 
L 3597 3500 
L 2059 -325 
z
" transform="scale(0.015625)"/>
      <path id="DejaVuSans-6e" d="M 3513 2113 
L 3513 0 
L 2938 0 
L 2938 2094 
Q 2938 2591 2744 2837 
Q 2550 3084 2163 3084 
Q 1697 3084 1428 2787 
Q 1159 2491 1159 1978 
L 1159 0 
L 581 0 
L 581 3500 
L 1159 3500 
L 1159 2956 
Q 1366 3272 1645 3428 
Q 1925 3584 2291 3584 
Q 2894 3584 3203 3211 
Q 3513 2838 3513 2113 
z
" transform="scale(0.015625)"/>
      <path id="DejaVuSans-6c" d="M 603 4863 
L 1178 4863 
L 1178 0 
L 603 0 
L 603 4863 
z
" transform="scale(0.015625)"/>
      <path id="DejaVuSans-2e" d="M 684 794 
L 1344 794 
L 1344 0 
L 684 0 
L 684 794 
z
" transform="scale(0.015625)"/>
      <path id="DejaVuSans-64" d="M 2906 2969 
L 2906 4863 
L 3481 4863 
L 3481 0 
L 2906 0 
L 2906 525 
Q 2725 213 2448 61 
Q 2172 -91 1784 -91 
Q 1150 -91 751 415 
Q 353 922 353 1747 
Q 353 2572 751 3078 
Q 1150 3584 1784 3584 
Q 2172 3584 2448 3432 
Q 2725 3281 2906 2969 
z
M 947 1747 
Q 947 1113 1208 752 
Q 1469 391 1925 391 
Q 2381 391 2643 752 
Q 2906 1113 2906 1747 
Q 2906 2381 2643 2742 
Q 2381 3103 1925 3103 
Q 1469 3103 1208 2742 
Q 947 2381 947 1747 
z
" transform="scale(0.015625)"/>
      <path id="DejaVuSans-73" d="M 2834 3397 
L 2834 2853 
Q 2591 2978 2328 3040 
Q 2066 3103 1784 3103 
Q 1356 3103 1142 2972 
Q 928 2841 928 2578 
Q 928 2378 1081 2264 
Q 1234 2150 1697 2047 
L 1894 2003 
Q 2506 1872 2764 1633 
Q 3022 1394 3022 966 
Q 3022 478 2636 193 
Q 2250 -91 1575 -91 
Q 1294 -91 989 -36 
Q 684 19 347 128 
L 347 722 
Q 666 556 975 473 
Q 1284 391 1588 391 
Q 1994 391 2212 530 
Q 2431 669 2431 922 
Q 2431 1156 2273 1281 
Q 2116 1406 1581 1522 
L 1381 1569 
Q 847 1681 609 1914 
Q 372 2147 372 2553 
Q 372 3047 722 3315 
Q 1072 3584 1716 3584 
Q 2034 3584 2315 3537 
Q 2597 3491 2834 3397 
z
" transform="scale(0.015625)"/>
      <path id="DejaVuSans-77" d="M 269 3500 
L 844 3500 
L 1563 769 
L 2278 3500 
L 2956 3500 
L 3675 769 
L 4391 3500 
L 4966 3500 
L 4050 0 
L 3372 0 
L 2619 2869 
L 1863 0 
L 1184 0 
L 269 3500 
z
" transform="scale(0.015625)"/>
     </defs>
     <use xlink:href="#DejaVuSans-53"/>
     <use xlink:href="#DejaVuSans-63" x="63.476562"/>
     <use xlink:href="#DejaVuSans-68" x="118.457031"/>
     <use xlink:href="#DejaVuSans-65" x="181.835938"/>
     <use xlink:href="#DejaVuSans-6d" x="243.359375"/>
     <use xlink:href="#DejaVuSans-61" x="340.771484"/>
     <use xlink:href="#DejaVuSans-74" x="402.050781"/>
     <use xlink:href="#DejaVuSans-69" x="441.259766"/>
     <use xlink:href="#DejaVuSans-63" x="469.042969"/>
     <use xlink:href="#DejaVuSans-20" x="524.023438"/>
     <use xlink:href="#DejaVuSans-61" x="555.810547"/>
     <use xlink:href="#DejaVuSans-66" x="617.089844"/>
     <use xlink:href="#DejaVuSans-74" x="650.544922"/>
     <use xlink:href="#DejaVuSans-65" x="689.753906"/>
     <use xlink:href="#DejaVuSans-72" x="751.277344"/>
     <use xlink:href="#DejaVuSans-20" x="792.390625"/>
     <use xlink:href="#DejaVuSans-52" x="824.177734"/>
     <use xlink:href="#DejaVuSans-65" x="889.160156"/>
     <use xlink:href="#DejaVuSans-79" x="950.683594"/>
     <use xlink:href="#DejaVuSans-6e" x="1009.863281"/>
     <use xlink:href="#DejaVuSans-69" x="1073.242188"/>
     <use xlink:href="#DejaVuSans-65" x="1101.025391"/>
     <use xlink:href="#DejaVuSans-72" x="1162.548828"/>
     <use xlink:href="#DejaVuSans-20" x="1203.662109"/>
     <use xlink:href="#DejaVuSans-65" x="1235.449219"/>
     <use xlink:href="#DejaVuSans-74" x="1296.972656"/>
     <use xlink:href="#DejaVuSans-20" x="1336.181641"/>
     <use xlink:href="#DejaVuSans-61" x="1367.96875"/>
     <use xlink:href="#DejaVuSans-6c" x="1429.248047"/>
     <use xlink:href="#DejaVuSans-2e" x="1457.03125"/>
     <use xlink:href="#DejaVuSans-20" x="1488.818359"/>
     <use xlink:href="#DejaVuSans-28" x="1520.605469"/>
     <use xlink:href="#DejaVuSans-32" x="1559.619141"/>
     <use xlink:href="#DejaVuSans-30" x="1623.242188"/>
     <use xlink:href="#DejaVuSans-30" x="1686.865234"/>
     <use xlink:href="#DejaVuSans-33" x="1750.488281"/>
     <use xlink:href="#DejaVuSans-29" x="1814.111328"/>
     <use xlink:href="#DejaVuSans-20" x="1853.125"/>
     <use xlink:href="#DejaVuSans-61" x="1884.912109"/>
     <use xlink:href="#DejaVuSans-6e" x="1946.191406"/>
     <use xlink:href="#DejaVuSans-64" x="2009.570312"/>
     <use xlink:href="#DejaVuSans-20" x="2073.046875"/>
     <use xlink:href="#DejaVuSans-56" x="2104.833984"/>
     <use xlink:href="#DejaVuSans-69" x="2170.992188"/>
     <use xlink:href="#DejaVuSans-73" x="2198.775391"/>
     <use xlink:href="#DejaVuSans-77" x="2250.875"/>
     <use xlink:href="#DejaVuSans-61" x="2332.662109"/>
     <use xlink:href="#DejaVuSans-6e" x="2393.941406"/>
     <use xlink:href="#DejaVuSans-61" x="2457.320312"/>
     <use xlink:href="#DejaVuSans-74" x="2518.599609"/>
     <use xlink:href="#DejaVuSans-68" x="2557.808594"/>
     <use xlink:href="#DejaVuSans-61" x="2621.1875"/>
     <use xlink:href="#DejaVuSans-6e" x="2682.466797"/>
     <use xlink:href="#DejaVuSans-20" x="2745.845703"/>
     <use xlink:href="#DejaVuSans-65" x="2777.632812"/>
     <use xlink:href="#DejaVuSans-74" x="2839.15625"/>
     <use xlink:href="#DejaVuSans-20" x="2878.365234"/>
     <use xlink:href="#DejaVuSans-61" x="2910.152344"/>
     <use xlink:href="#DejaVuSans-6c" x="2971.431641"/>
     <use xlink:href="#DejaVuSans-2e" x="2999.214844"/>
     <use xlink:href="#DejaVuSans-20" x="3031.001953"/>
     <use xlink:href="#DejaVuSans-28" x="3062.789062"/>
     <use xlink:href="#DejaVuSans-32" x="3101.802734"/>
     <use xlink:href="#DejaVuSans-30" x="3165.425781"/>
     <use xlink:href="#DejaVuSans-31" x="3229.048828"/>
     <use xlink:href="#DejaVuSans-30" x="3292.671875"/>
     <use xlink:href="#DejaVuSans-29" x="3356.294922"/>
    </g>
   </g>
   <g id="legend_1">
    <g id="patch_5">
     <path d="M 306.103188 37.12 
L 470.743187 37.12 
Q 472.343187 37.12 472.343187 35.52 
L 472.343187 12.8 
Q 472.343187 11.2 470.743187 11.2 
L 306.103188 11.2 
Q 304.503188 11.2 304.503188 12.8 
L 304.503188 35.52 
Q 304.503188 37.12 306.103188 37.12 
z
" style="fill: #ffffff; opacity: 0.9; stroke: #cccccc; stroke-linejoin: miter"/>
    </g>
    <g id="patch_6">
     <path d="M 307.703188 20.48 
L 323.703188 20.48 
L 323.703188 14.88 
L 307.703188 14.88 
z
" style="fill: #d95f5f; opacity: 0.4"/>
    </g>
    <g id="text_19">
     <!-- $\partial E_{oc}/\partial T &gt; 0$  (endothermic, $q_{rev}&lt;0$) -->
     <g transform="translate(330.103187 20.48) scale(0.08 -0.08)">
      <defs>
       <path id="DejaVuSans-3e" d="M 678 3150 
L 678 3719 
L 4684 2266 
L 4684 1747 
L 678 294 
L 678 863 
L 3897 2003 
L 678 3150 
z
" transform="scale(0.015625)"/>
       <path id="DejaVuSans-6f" d="M 1959 3097 
Q 1497 3097 1228 2736 
Q 959 2375 959 1747 
Q 959 1119 1226 758 
Q 1494 397 1959 397 
Q 2419 397 2687 759 
Q 2956 1122 2956 1747 
Q 2956 2369 2687 2733 
Q 2419 3097 1959 3097 
z
M 1959 3584 
Q 2709 3584 3137 3096 
Q 3566 2609 3566 1747 
Q 3566 888 3137 398 
Q 2709 -91 1959 -91 
Q 1206 -91 779 398 
Q 353 888 353 1747 
Q 353 2609 779 3096 
Q 1206 3584 1959 3584 
z
" transform="scale(0.015625)"/>
       <path id="DejaVuSans-2c" d="M 750 794 
L 1409 794 
L 1409 256 
L 897 -744 
L 494 -744 
L 750 256 
L 750 794 
z
" transform="scale(0.015625)"/>
       <path id="DejaVuSans-Oblique-71" d="M 2669 525 
Q 2438 222 2123 65 
Q 1809 -91 1428 -91 
Q 897 -91 595 267 
Q 294 625 294 1253 
Q 294 1759 480 2231 
Q 666 2703 1013 3078 
Q 1238 3322 1530 3453 
Q 1822 3584 2144 3584 
Q 2531 3584 2781 3431 
Q 3031 3278 3144 2969 
L 3244 3494 
L 3822 3494 
L 2888 -1319 
L 2309 -1319 
L 2669 525 
z
M 891 1338 
Q 891 875 1084 633 
Q 1278 391 1644 391 
Q 2188 391 2572 911 
Q 2956 1431 2956 2175 
Q 2956 2625 2757 2864 
Q 2559 3103 2188 3103 
Q 1916 3103 1684 2976 
Q 1453 2850 1281 2606 
Q 1100 2350 995 2006 
Q 891 1663 891 1338 
z
" transform="scale(0.015625)"/>
       <path id="DejaVuSans-Oblique-72" d="M 2853 2969 
Q 2766 3016 2653 3041 
Q 2541 3066 2413 3066 
Q 1953 3066 1609 2717 
Q 1266 2369 1153 1784 
L 800 0 
L 225 0 
L 909 3500 
L 1484 3500 
L 1375 2956 
Q 1603 3259 1920 3421 
Q 2238 3584 2597 3584 
Q 2691 3584 2781 3573 
Q 2872 3563 2963 3538 
L 2853 2969 
z
" transform="scale(0.015625)"/>
       <path id="DejaVuSans-Oblique-65" d="M 3078 2063 
Q 3088 2113 3092 2166 
Q 3097 2219 3097 2272 
Q 3097 2653 2873 2875 
Q 2650 3097 2266 3097 
Q 1838 3097 1509 2826 
Q 1181 2556 1013 2059 
L 3078 2063 
z
M 3578 1613 
L 903 1613 
Q 884 1494 878 1425 
Q 872 1356 872 1306 
Q 872 872 1139 634 
Q 1406 397 1894 397 
Q 2269 397 2603 481 
Q 2938 566 3225 728 
L 3116 159 
Q 2806 34 2476 -28 
Q 2147 -91 1806 -91 
Q 1078 -91 686 257 
Q 294 606 294 1247 
Q 294 1794 489 2264 
Q 684 2734 1063 3103 
Q 1306 3334 1642 3459 
Q 1978 3584 2356 3584 
Q 2950 3584 3301 3228 
Q 3653 2872 3653 2272 
Q 3653 2128 3634 1964 
Q 3616 1800 3578 1613 
z
" transform="scale(0.015625)"/>
       <path id="DejaVuSans-Oblique-76" d="M 459 3500 
L 1069 3500 
L 1581 525 
L 3256 3500 
L 3866 3500 
L 1875 0 
L 1100 0 
L 459 3500 
z
" transform="scale(0.015625)"/>
       <path id="DejaVuSans-3c" d="M 4684 3150 
L 1459 2003 
L 4684 863 
L 4684 294 
L 678 1747 
L 678 2266 
L 4684 3719 
L 4684 3150 
z
" transform="scale(0.015625)"/>
      </defs>
      <use xlink:href="#DejaVuSans-2202" transform="translate(0 0.015625)"/>
      <use xlink:href="#DejaVuSans-Oblique-45" transform="translate(51.708984 0.015625)"/>
      <use xlink:href="#DejaVuSans-Oblique-6f" transform="translate(114.892578 -16.390625) scale(0.7)"/>
      <use xlink:href="#DejaVuSans-Oblique-63" transform="translate(157.719727 -16.390625) scale(0.7)"/>
      <use xlink:href="#DejaVuSans-2f" transform="translate(198.94043 0.015625)"/>
      <use xlink:href="#DejaVuSans-2202" transform="translate(232.631836 0.015625)"/>
      <use xlink:href="#DejaVuSans-Oblique-54" transform="translate(284.34082 0.015625)"/>
      <use xlink:href="#DejaVuSans-3e" transform="translate(364.907227 0.015625)"/>
      <use xlink:href="#DejaVuSans-30" transform="translate(468.178711 0.015625)"/>
      <use xlink:href="#DejaVuSans-20" transform="translate(531.801758 0.015625)"/>
      <use xlink:href="#DejaVuSans-20" transform="translate(563.588867 0.015625)"/>
      <use xlink:href="#DejaVuSans-28" transform="translate(595.375977 0.015625)"/>
      <use xlink:href="#DejaVuSans-65" transform="translate(634.389648 0.015625)"/>
      <use xlink:href="#DejaVuSans-6e" transform="translate(695.913086 0.015625)"/>
      <use xlink:href="#DejaVuSans-64" transform="translate(759.291992 0.015625)"/>
      <use xlink:href="#DejaVuSans-6f" transform="translate(822.768555 0.015625)"/>
      <use xlink:href="#DejaVuSans-74" transform="translate(883.950195 0.015625)"/>
      <use xlink:href="#DejaVuSans-68" transform="translate(923.15918 0.015625)"/>
      <use xlink:href="#DejaVuSans-65" transform="translate(986.538086 0.015625)"/>
      <use xlink:href="#DejaVuSans-72" transform="translate(1048.061523 0.015625)"/>
      <use xlink:href="#DejaVuSans-6d" transform="translate(1089.174805 0.015625)"/>
      <use xlink:href="#DejaVuSans-69" transform="translate(1186.586914 0.015625)"/>
      <use xlink:href="#DejaVuSans-63" transform="translate(1214.370117 0.015625)"/>
      <use xlink:href="#DejaVuSans-2c" transform="translate(1269.350586 0.015625)"/>
      <use xlink:href="#DejaVuSans-20" transform="translate(1301.137695 0.015625)"/>
      <use xlink:href="#DejaVuSans-Oblique-71" transform="translate(1332.924805 0.015625)"/>
      <use xlink:href="#DejaVuSans-Oblique-72" transform="translate(1396.401367 -16.390625) scale(0.7)"/>
      <use xlink:href="#DejaVuSans-Oblique-65" transform="translate(1425.180664 -16.390625) scale(0.7)"/>
      <use xlink:href="#DejaVuSans-Oblique-76" transform="translate(1468.24707 -16.390625) scale(0.7)"/>
      <use xlink:href="#DejaVuSans-3c" transform="translate(1531.889648 0.015625)"/>
      <use xlink:href="#DejaVuSans-30" transform="translate(1635.161133 0.015625)"/>
      <use xlink:href="#DejaVuSans-29" transform="translate(1698.78418 0.015625)"/>
     </g>
    </g>
    <g id="patch_7">
     <path d="M 307.703188 32.24 
L 323.703188 32.24 
L 323.703188 26.64 
L 307.703188 26.64 
z
" style="fill: #4a90d9; opacity: 0.4"/>
    </g>
    <g id="text_20">
     <!-- $\partial E_{oc}/\partial T &lt; 0$  (exothermic, $q_{rev}&gt;0$) -->
     <g transform="translate(330.103187 32.24) scale(0.08 -0.08)">
      <defs>
       <path id="DejaVuSans-78" d="M 3513 3500 
L 2247 1797 
L 3578 0 
L 2900 0 
L 1881 1375 
L 863 0 
L 184 0 
L 1544 1831 
L 300 3500 
L 978 3500 
L 1906 2253 
L 2834 3500 
L 3513 3500 
z
" transform="scale(0.015625)"/>
      </defs>
      <use xlink:href="#DejaVuSans-2202" transform="translate(0 0.015625)"/>
      <use xlink:href="#DejaVuSans-Oblique-45" transform="translate(51.708984 0.015625)"/>
      <use xlink:href="#DejaVuSans-Oblique-6f" transform="translate(114.892578 -16.390625) scale(0.7)"/>
      <use xlink:href="#DejaVuSans-Oblique-63" transform="translate(157.719727 -16.390625) scale(0.7)"/>
      <use xlink:href="#DejaVuSans-2f" transform="translate(198.94043 0.015625)"/>
      <use xlink:href="#DejaVuSans-2202" transform="translate(232.631836 0.015625)"/>
      <use xlink:href="#DejaVuSans-Oblique-54" transform="translate(284.34082 0.015625)"/>
      <use xlink:href="#DejaVuSans-3c" transform="translate(364.907227 0.015625)"/>
      <use xlink:href="#DejaVuSans-30" transform="translate(468.178711 0.015625)"/>
      <use xlink:href="#DejaVuSans-20" transform="translate(531.801758 0.015625)"/>
      <use xlink:href="#DejaVuSans-20" transform="translate(563.588867 0.015625)"/>
      <use xlink:href="#DejaVuSans-28" transform="translate(595.375977 0.015625)"/>
      <use xlink:href="#DejaVuSans-65" transform="translate(634.389648 0.015625)"/>
      <use xlink:href="#DejaVuSans-78" transform="translate(695.913086 0.015625)"/>
      <use xlink:href="#DejaVuSans-6f" transform="translate(755.092773 0.015625)"/>
      <use xlink:href="#DejaVuSans-74" transform="translate(816.274414 0.015625)"/>
      <use xlink:href="#DejaVuSans-68" transform="translate(855.483398 0.015625)"/>
      <use xlink:href="#DejaVuSans-65" transform="translate(918.862305 0.015625)"/>
      <use xlink:href="#DejaVuSans-72" transform="translate(980.385742 0.015625)"/>
      <use xlink:href="#DejaVuSans-6d" transform="translate(1021.499023 0.015625)"/>
      <use xlink:href="#DejaVuSans-69" transform="translate(1118.911133 0.015625)"/>
      <use xlink:href="#DejaVuSans-63" transform="translate(1146.694336 0.015625)"/>
      <use xlink:href="#DejaVuSans-2c" transform="translate(1201.674805 0.015625)"/>
      <use xlink:href="#DejaVuSans-20" transform="translate(1233.461914 0.015625)"/>
      <use xlink:href="#DejaVuSans-Oblique-71" transform="translate(1265.249023 0.015625)"/>
      <use xlink:href="#DejaVuSans-Oblique-72" transform="translate(1328.725586 -16.390625) scale(0.7)"/>
      <use xlink:href="#DejaVuSans-Oblique-65" transform="translate(1357.504883 -16.390625) scale(0.7)"/>
      <use xlink:href="#DejaVuSans-Oblique-76" transform="translate(1400.571289 -16.390625) scale(0.7)"/>
      <use xlink:href="#DejaVuSans-3e" transform="translate(1464.213867 0.015625)"/>
      <use xlink:href="#DejaVuSans-30" transform="translate(1567.485352 0.015625)"/>
      <use xlink:href="#DejaVuSans-29" transform="translate(1631.108398 0.015625)"/>
     </g>
    </g>
   </g>
  </g>
 </g>
 <defs>
  <clipPath id="p531287ecce">
   <rect x="42.662188" y="7.2" width="433.681" height="206.44"/>
  </clipPath>
 </defs>
</svg>
