<?xml version="1.0" encoding="utf-8" standalone="no"?>
<!DOCTYPE svg PUBLIC "-//W3C//DTD SVG 1.1//EN"
  "http://www.w3.org/Graphics/SVG/1.1/DTD/svg11.dtd">
<svg xmlns:xlink="http://www.w3.org/1999/xlink" width="492.689687pt" height="265.59625pt" viewBox="0 0 492.689687 265.59625" xmlns="http://www.w3.org/2000/svg" version="1.1">
 <metadata>
  <rdf:RDF xmlns:dc="http://purl.org/dc/elements/1.1/" xmlns:cc="http://creativecommons.org/ns#" xmlns:rdf="http://www.w3.org/1999/02/22-rdf-syntax-ns#">
   <cc:Work>
    <dc:type rdf:resource="http://purl.org/dc/dcmitype/StillImage"/>
    <dc:date>2026-05-10T19:01:15.881394</dc:date>
    <dc:format>image/svg+xml</dc:format>
    <dc:creator>
     <cc:Agent>
      <dc:title>Matplotlib v3.9.0, https://matplotlib.org/</dc:title>
     </cc:Agent>
    </dc:creator>
   </cc:Work>
  </rdf:RDF>
 </metadata>
 <defs>
  <style type="text/css">*{stroke-linejoin: round; stroke-linecap: butt}</style>
 </defs>
 <g id="figure_1">
  <g id="patch_1">
   <path d="M 0 265.59625 
L 492.689687 265.59625 
L 492.689687 0 
L 0 0 
z
" style="fill: #ffffff"/>
  </g>
  <g id="axes_1">
   <g id="patch_2">
    <path d="M 48.510938 228.04 
L 475.945937 228.04 
L 475.945937 7.2 
L 48.510938 7.2 
z
" style="fill: #ffffff"/>
   </g>
   <g id="PolyCollection_1">
    <path d="M 49.187638 99.216667 
L 49.187638 96.800433 
L 49.196204 93.854392 
L 49.20477 90.990768 
L 49.213336 88.209888 
L 49.221902 85.512012 
L 49.230467 82.897394 
L 49.239033 80.366331 
L 49.247599 77.919212 
L 49.256165 75.556547 
L 49.264731 73.279002 
L 49.273297 71.087415 
L 49.281862 68.982808 
L 49.290428 66.966396 
L 49.298994 65.039577 
L 49.30756 63.20393 
L 49.316126 61.461192 
L 49.324692 59.813242 
L 49.333257 58.262072 
L 49.341823 56.809754 
L 49.350389 55.458413 
L 49.358955 54.210182 
L 49.367521 53.067171 
L 49.376086 52.031423 
L 49.384652 51.104875 
L 49.393218 50.289323 
L 49.401784 49.586379 
L 49.41035 48.997439 
L 49.418916 48.523645 
L 49.427481 48.165861 
L 49.436047 47.924639 
L 49.444613 47.800199 
L 49.453179 47.79241 
L 49.461745 47.900774 
L 49.470311 48.124413 
L 49.478876 48.462067 
L 49.487442 48.912091 
L 49.496008 49.472456 
L 49.504574 50.140758 
L 49.51314 50.914232 
L 49.521706 51.789763 
L 49.530271 52.76391 
L 49.538837 53.832927 
L 49.547403 54.992789 
L 49.555969 56.239222 
L 49.564535 57.567734 
L 49.573101 58.97365 
L 49.581666 60.452144 
L 49.590232 61.998275 
L 49.598798 63.607028 
L 49.607364 65.273347 
L 49.61593 66.992171 
L 49.624496 68.758472 
L 49.633061 70.56729 
L 49.641627 72.413765 
L 49.650193 74.293169 
L 49.658759 76.200936 
L 49.667325 78.132692 
L 49.675891 80.084272 
L 49.684456 82.05175 
L 49.693022 84.031456 
L 49.701588 86.019986 
L 49.710154 88.014224 
L 49.71872 90.011343 
L 49.727286 92.008816 
L 49.735851 94.004418 
L 49.744417 95.996224 
L 49.752983 97.982609 
L 49.752983 99.216667 
L 49.752983 99.216667 
L 49.744417 99.216667 
L 49.735851 99.216667 
L 49.727286 99.216667 
L 49.71872 99.216667 
L 49.710154 99.216667 
L 49.701588 99.216667 
L 49.693022 99.216667 
L 49.684456 99.216667 
L 49.675891 99.216667 
L 49.667325 99.216667 
L 49.658759 99.216667 
L 49.650193 99.216667 
L 49.641627 99.216667 
L 49.633061 99.216667 
L 49.624496 99.216667 
L 49.61593 99.216667 
L 49.607364 99.216667 
L 49.598798 99.216667 
L 49.590232 99.216667 
L 49.581666 99.216667 
L 49.573101 99.216667 
L 49.564535 99.216667 
L 49.555969 99.216667 
L 49.547403 99.216667 
L 49.538837 99.216667 
L 49.530271 99.216667 
L 49.521706 99.216667 
L 49.51314 99.216667 
L 49.504574 99.216667 
L 49.496008 99.216667 
L 49.487442 99.216667 
L 49.478876 99.216667 
L 49.470311 99.216667 
L 49.461745 99.216667 
L 49.453179 99.216667 
L 49.444613 99.216667 
L 49.436047 99.216667 
L 49.427481 99.216667 
L 49.418916 99.216667 
L 49.41035 99.216667 
L 49.401784 99.216667 
L 49.393218 99.216667 
L 49.384652 99.216667 
L 49.376086 99.216667 
L 49.367521 99.216667 
L 49.358955 99.216667 
L 49.350389 99.216667 
L 49.341823 99.216667 
L 49.333257 99.216667 
L 49.324692 99.216667 
L 49.316126 99.216667 
L 49.30756 99.216667 
L 49.298994 99.216667 
L 49.290428 99.216667 
L 49.281862 99.216667 
L 49.273297 99.216667 
L 49.264731 99.216667 
L 49.256165 99.216667 
L 49.247599 99.216667 
L 49.239033 99.216667 
L 49.230467 99.216667 
L 49.221902 99.216667 
L 49.213336 99.216667 
L 49.20477 99.216667 
L 49.196204 99.216667 
L 49.187638 99.216667 
z
" clip-path="url(#p5f41dc7e0e)" style="fill: #e05c5c; fill-opacity: 0.15; stroke: #e05c5c; stroke-opacity: 0.15"/>
    <path d="M 51.080687 99.216667 
L 51.080687 99.065253 
L 51.089253 98.155492 
L 51.097819 97.235907 
L 51.106384 96.306712 
L 51.11495 95.368225 
L 51.123516 94.420862 
L 51.132082 93.465134 
L 51.140648 92.501651 
L 51.149214 91.531115 
L 51.157779 90.554318 
L 51.166345 89.572141 
L 51.174911 88.585552 
L 51.183477 87.595598 
L 51.192043 86.603404 
L 51.200609 85.61017 
L 51.209174 84.617164 
L 51.21774 83.625721 
L 51.226306 82.637233 
L 51.234872 81.653148 
L 51.243438 80.674963 
L 51.252004 79.704219 
L 51.260569 78.742495 
L 51.269135 77.7914 
L 51.277701 76.852571 
L 51.286267 75.927662 
L 51.294833 75.018342 
L 51.303399 74.126285 
L 51.311964 73.253166 
L 51.32053 72.400651 
L 51.329096 71.570395 
L 51.337662 70.764032 
L 51.346228 69.98317 
L 51.354794 69.229383 
L 51.363359 68.504207 
L 51.371925 67.809133 
L 51.380491 67.145598 
L 51.389057 66.514985 
L 51.397623 65.918611 
L 51.406189 65.357727 
L 51.414754 64.83351 
L 51.42332 64.347058 
L 51.431886 63.899388 
L 51.440452 63.491431 
L 51.449018 63.124026 
L 51.457584 62.797919 
L 51.466149 62.513762 
L 51.474715 62.272106 
L 51.483281 62.073403 
L 51.491847 61.918002 
L 51.500413 61.806149 
L 51.508979 61.737989 
L 51.517544 61.713562 
L 51.52611 61.732803 
L 51.534676 61.79555 
L 51.543242 61.901536 
L 51.551808 62.050399 
L 51.560374 62.24168 
L 51.568939 62.474826 
L 51.577505 62.749198 
L 51.586071 63.064067 
L 51.594637 63.418626 
L 51.603203 63.811989 
L 51.611769 64.243202 
L 51.620334 64.71124 
L 51.6289 65.215022 
L 51.637466 65.75341 
L 51.646032 66.325219 
L 51.654598 66.929222 
L 51.663164 67.564157 
L 51.671729 68.228735 
L 51.680295 68.921644 
L 51.688861 69.64156 
L 51.697427 70.38715 
L 51.705993 71.157083 
L 51.714559 71.950031 
L 51.723124 72.764684 
L 51.73169 73.59975 
L 51.740256 74.453963 
L 51.748822 75.32609 
L 51.757388 76.214937 
L 51.765954 77.119353 
L 51.774519 78.038237 
L 51.783085 78.97054 
L 51.791651 79.915271 
L 51.800217 80.8715 
L 51.808783 81.83836 
L 51.817349 82.815051 
L 51.825914 83.800841 
L 51.83448 84.795065 
L 51.843046 85.797128 
L 51.851612 86.806503 
L 51.860178 87.822731 
L 51.868744 88.845417 
L 51.877309 89.87423 
L 51.885875 90.908896 
L 51.894441 91.949196 
L 51.903007 92.994964 
L 51.911573 94.046073 
L 51.920139 95.102439 
L 51.928704 96.164005 
L 51.93727 97.230741 
L 51.945836 98.302629 
L 51.945836 99.216667 
L 51.945836 99.216667 
L 51.93727 99.216667 
L 51.928704 99.216667 
L 51.920139 99.216667 
L 51.911573 99.216667 
L 51.903007 99.216667 
L 51.894441 99.216667 
L 51.885875 99.216667 
L 51.877309 99.216667 
L 51.868744 99.216667 
L 51.860178 99.216667 
L 51.851612 99.216667 
L 51.843046 99.216667 
L 51.83448 99.216667 
L 51.825914 99.216667 
L 51.817349 99.216667 
L 51.808783 99.216667 
L 51.800217 99.216667 
L 51.791651 99.216667 
L 51.783085 99.216667 
L 51.774519 99.216667 
L 51.765954 99.216667 
L 51.757388 99.216667 
L 51.748822 99.216667 
L 51.740256 99.216667 
L 51.73169 99.216667 
L 51.723124 99.216667 
L 51.714559 99.216667 
L 51.705993 99.216667 
L 51.697427 99.216667 
L 51.688861 99.216667 
L 51.680295 99.216667 
L 51.671729 99.216667 
L 51.663164 99.216667 
L 51.654598 99.216667 
L 51.646032 99.216667 
L 51.637466 99.216667 
L 51.6289 99.216667 
L 51.620334 99.216667 
L 51.611769 99.216667 
L 51.603203 99.216667 
L 51.594637 99.216667 
L 51.586071 99.216667 
L 51.577505 99.216667 
L 51.568939 99.216667 
L 51.560374 99.216667 
L 51.551808 99.216667 
L 51.543242 99.216667 
L 51.534676 99.216667 
L 51.52611 99.216667 
L 51.517544 99.216667 
L 51.508979 99.216667 
L 51.500413 99.216667 
L 51.491847 99.216667 
L 51.483281 99.216667 
L 51.474715 99.216667 
L 51.466149 99.216667 
L 51.457584 99.216667 
L 51.449018 99.216667 
L 51.440452 99.216667 
L 51.431886 99.216667 
L 51.42332 99.216667 
L 51.414754 99.216667 
L 51.406189 99.216667 
L 51.397623 99.216667 
L 51.389057 99.216667 
L 51.380491 99.216667 
L 51.371925 99.216667 
L 51.363359 99.216667 
L 51.354794 99.216667 
L 51.346228 99.216667 
L 51.337662 99.216667 
L 51.329096 99.216667 
L 51.32053 99.216667 
L 51.311964 99.216667 
L 51.303399 99.216667 
L 51.294833 99.216667 
L 51.286267 99.216667 
L 51.277701 99.216667 
L 51.269135 99.216667 
L 51.260569 99.216667 
L 51.252004 99.216667 
L 51.243438 99.216667 
L 51.234872 99.216667 
L 51.226306 99.216667 
L 51.21774 99.216667 
L 51.209174 99.216667 
L 51.200609 99.216667 
L 51.192043 99.216667 
L 51.183477 99.216667 
L 51.174911 99.216667 
L 51.166345 99.216667 
L 51.157779 99.216667 
L 51.149214 99.216667 
L 51.140648 99.216667 
L 51.132082 99.216667 
L 51.123516 99.216667 
L 51.11495 99.216667 
L 51.106384 99.216667 
L 51.097819 99.216667 
L 51.089253 99.216667 
L 51.080687 99.216667 
z
" clip-path="url(#p5f41dc7e0e)" style="fill: #e05c5c; fill-opacity: 0.15; stroke: #e05c5c; stroke-opacity: 0.15"/>
   </g>
   <g id="PolyCollection_2">
    <path d="M 48.510938 99.216667 
L 48.510938 124.201998 
L 48.519503 125.681329 
L 48.528069 127.268773 
L 48.536635 128.967057 
L 48.545201 130.778298 
L 48.553767 132.70393 
L 48.562332 134.744615 
L 48.570898 136.900171 
L 48.579464 139.169491 
L 48.58803 141.550476 
L 48.596596 144.039973 
L 48.605162 146.633718 
L 48.613727 149.326294 
L 48.622293 152.111094 
L 48.630859 154.980305 
L 48.639425 157.924899 
L 48.647991 160.934641 
L 48.656557 163.998116 
L 48.665122 167.102769 
L 48.673688 170.234963 
L 48.682254 173.380056 
L 48.69082 176.522489 
L 48.699386 179.645903 
L 48.707952 182.733255 
L 48.716517 185.766963 
L 48.725083 188.729053 
L 48.733649 191.601327 
L 48.742215 194.36553 
L 48.750781 197.003535 
L 48.759347 199.49752 
L 48.767912 201.83016 
L 48.776478 203.984802 
L 48.785044 205.945657 
L 48.79361 207.697961 
L 48.802176 209.228148 
L 48.810742 210.523996 
L 48.819307 211.574767 
L 48.827873 212.371323 
L 48.836439 212.90623 
L 48.845005 213.173836 
L 48.853571 213.170328 
L 48.862137 212.893768 
L 48.870702 212.344102 
L 48.879268 211.523148 
L 48.887834 210.43456 
L 48.8964 209.083767 
L 48.904966 207.477892 
L 48.913532 205.625656 
L 48.922097 203.53725 
L 48.930663 201.224209 
L 48.939229 198.699254 
L 48.947795 195.97614 
L 48.956361 193.069482 
L 48.964927 189.994583 
L 48.973492 186.767257 
L 48.982058 183.403652 
L 48.990624 179.920082 
L 48.99919 176.33285 
L 49.007756 172.658098 
L 49.016322 168.911651 
L 49.024887 165.108887 
L 49.033453 161.264606 
L 49.042019 157.39293 
L 49.050585 153.507207 
L 49.059151 149.61994 
L 49.067717 145.742725 
L 49.076282 141.886217 
L 49.084848 138.060101 
L 49.093414 134.27309 
L 49.10198 130.532929 
L 49.110546 126.846423 
L 49.119112 123.219466 
L 49.127677 119.657093 
L 49.136243 116.163536 
L 49.144809 112.742285 
L 49.153375 109.396165 
L 49.161941 106.12741 
L 49.170507 102.937737 
L 49.179072 99.828434 
L 49.179072 99.216667 
L 49.179072 99.216667 
L 49.170507 99.216667 
L 49.161941 99.216667 
L 49.153375 99.216667 
L 49.144809 99.216667 
L 49.136243 99.216667 
L 49.127677 99.216667 
L 49.119112 99.216667 
L 49.110546 99.216667 
L 49.10198 99.216667 
L 49.093414 99.216667 
L 49.084848 99.216667 
L 49.076282 99.216667 
L 49.067717 99.216667 
L 49.059151 99.216667 
L 49.050585 99.216667 
L 49.042019 99.216667 
L 49.033453 99.216667 
L 49.024887 99.216667 
L 49.016322 99.216667 
L 49.007756 99.216667 
L 48.99919 99.216667 
L 48.990624 99.216667 
L 48.982058 99.216667 
L 48.973492 99.216667 
L 48.964927 99.216667 
L 48.956361 99.216667 
L 48.947795 99.216667 
L 48.939229 99.216667 
L 48.930663 99.216667 
L 48.922097 99.216667 
L 48.913532 99.216667 
L 48.904966 99.216667 
L 48.8964 99.216667 
L 48.887834 99.216667 
L 48.879268 99.216667 
L 48.870702 99.216667 
L 48.862137 99.216667 
L 48.853571 99.216667 
L 48.845005 99.216667 
L 48.836439 99.216667 
L 48.827873 99.216667 
L 48.819307 99.216667 
L 48.810742 99.216667 
L 48.802176 99.216667 
L 48.79361 99.216667 
L 48.785044 99.216667 
L 48.776478 99.216667 
L 48.767912 99.216667 
L 48.759347 99.216667 
L 48.750781 99.216667 
L 48.742215 99.216667 
L 48.733649 99.216667 
L 48.725083 99.216667 
L 48.716517 99.216667 
L 48.707952 99.216667 
L 48.699386 99.216667 
L 48.69082 99.216667 
L 48.682254 99.216667 
L 48.673688 99.216667 
L 48.665122 99.216667 
L 48.656557 99.216667 
L 48.647991 99.216667 
L 48.639425 99.216667 
L 48.630859 99.216667 
L 48.622293 99.216667 
L 48.613727 99.216667 
L 48.605162 99.216667 
L 48.596596 99.216667 
L 48.58803 99.216667 
L 48.579464 99.216667 
L 48.570898 99.216667 
L 48.562332 99.216667 
L 48.553767 99.216667 
L 48.545201 99.216667 
L 48.536635 99.216667 
L 48.528069 99.216667 
L 48.519503 99.216667 
L 48.510938 99.216667 
z
" clip-path="url(#p5f41dc7e0e)" style="fill: #3b82f6; fill-opacity: 0.15; stroke: #3b82f6; stroke-opacity: 0.15"/>
    <path d="M 49.761549 99.216667 
L 49.761549 99.962237 
L 49.770115 101.934056 
L 49.778681 103.897284 
L 49.787246 105.851396 
L 49.795812 107.796108 
L 49.804378 109.731355 
L 49.812944 111.657277 
L 49.82151 113.57419 
L 49.830076 115.48257 
L 49.838641 117.383023 
L 49.847207 119.276266 
L 49.855773 121.163098 
L 49.864339 123.044374 
L 49.872905 124.920983 
L 49.881471 126.793822 
L 49.890036 128.663768 
L 49.898602 130.53166 
L 49.907168 132.398269 
L 49.915734 134.264284 
L 49.9243 136.130284 
L 49.932866 137.996724 
L 49.941431 139.863915 
L 49.949997 141.732007 
L 49.958563 143.600979 
L 49.967129 145.470622 
L 49.975695 147.340533 
L 49.984261 149.210102 
L 49.992826 151.07851 
L 50.001392 152.944722 
L 50.009958 154.807487 
L 50.018524 156.665335 
L 50.02709 158.516582 
L 50.035656 160.359333 
L 50.044221 162.191486 
L 50.052787 164.010743 
L 50.061353 165.814616 
L 50.069919 167.600442 
L 50.078485 169.365392 
L 50.087051 171.106488 
L 50.095616 172.820618 
L 50.104182 174.504554 
L 50.112748 176.154968 
L 50.121314 177.768451 
L 50.12988 179.341537 
L 50.138446 180.870717 
L 50.147011 182.352468 
L 50.155577 183.783266 
L 50.164143 185.159616 
L 50.172709 186.478066 
L 50.181275 187.735237 
L 50.189841 188.927835 
L 50.198406 190.052681 
L 50.206972 191.106725 
L 50.215538 192.087068 
L 50.224104 192.990983 
L 50.23267 193.815928 
L 50.241235 194.559569 
L 50.249801 195.219789 
L 50.258367 195.794707 
L 50.266933 196.28269 
L 50.275499 196.682361 
L 50.284065 196.992614 
L 50.29263 197.212617 
L 50.301196 197.341821 
L 50.309762 197.379965 
L 50.318328 197.327078 
L 50.326894 197.183476 
L 50.33546 196.949771 
L 50.344025 196.626858 
L 50.352591 196.215917 
L 50.361157 195.718404 
L 50.369723 195.136047 
L 50.378289 194.470832 
L 50.386855 193.724996 
L 50.39542 192.901015 
L 50.403986 192.001587 
L 50.412552 191.029621 
L 50.421118 189.98822 
L 50.429684 188.880666 
L 50.43825 187.710399 
L 50.446815 186.481002 
L 50.455381 185.196181 
L 50.463947 183.859747 
L 50.472513 182.475595 
L 50.481079 181.047684 
L 50.489645 179.580019 
L 50.49821 178.076632 
L 50.506776 176.54156 
L 50.515342 174.978827 
L 50.523908 173.392428 
L 50.532474 171.786307 
L 50.54104 170.164342 
L 50.549605 168.530328 
L 50.558171 166.887964 
L 50.566737 165.240833 
L 50.575303 163.592392 
L 50.583869 161.945961 
L 50.592435 160.304705 
L 50.601 158.671632 
L 50.609566 157.049578 
L 50.618132 155.441201 
L 50.626698 153.848976 
L 50.635264 152.275184 
L 50.64383 150.721916 
L 50.652395 149.191064 
L 50.660961 147.684319 
L 50.669527 146.203175 
L 50.678093 144.748924 
L 50.686659 143.322661 
L 50.695225 141.925285 
L 50.70379 140.557502 
L 50.712356 139.219833 
L 50.720922 137.912611 
L 50.729488 136.635997 
L 50.738054 135.389978 
L 50.74662 134.17438 
L 50.755185 132.988873 
L 50.763751 131.83298 
L 50.772317 130.706086 
L 50.780883 129.607446 
L 50.789449 128.536195 
L 50.798015 127.49136 
L 50.80658 126.471866 
L 50.815146 125.476547 
L 50.823712 124.504157 
L 50.832278 123.553381 
L 50.840844 122.622842 
L 50.84941 121.711111 
L 50.857975 120.816722 
L 50.866541 119.938173 
L 50.875107 119.073944 
L 50.883673 118.222501 
L 50.892239 117.382303 
L 50.900805 116.551818 
L 50.90937 115.729525 
L 50.917936 114.913923 
L 50.926502 114.103542 
L 50.935068 113.296944 
L 50.943634 112.492736 
L 50.9522 111.689576 
L 50.960765 110.886173 
L 50.969331 110.0813 
L 50.977897 109.273797 
L 50.986463 108.462573 
L 50.995029 107.646614 
L 51.003595 106.824988 
L 51.01216 105.996844 
L 51.020726 105.161422 
L 51.029292 104.31805 
L 51.037858 103.466148 
L 51.046424 102.605236 
L 51.05499 101.734927 
L 51.063555 100.854934 
L 51.072121 99.965072 
L 51.072121 99.216667 
L 51.072121 99.216667 
L 51.063555 99.216667 
L 51.05499 99.216667 
L 51.046424 99.216667 
L 51.037858 99.216667 
L 51.029292 99.216667 
L 51.020726 99.216667 
L 51.01216 99.216667 
L 51.003595 99.216667 
L 50.995029 99.216667 
L 50.986463 99.216667 
L 50.977897 99.216667 
L 50.969331 99.216667 
L 50.960765 99.216667 
L 50.9522 99.216667 
L 50.943634 99.216667 
L 50.935068 99.216667 
L 50.926502 99.216667 
L 50.917936 99.216667 
L 50.90937 99.216667 
L 50.900805 99.216667 
L 50.892239 99.216667 
L 50.883673 99.216667 
L 50.875107 99.216667 
L 50.866541 99.216667 
L 50.857975 99.216667 
L 50.84941 99.216667 
L 50.840844 99.216667 
L 50.832278 99.216667 
L 50.823712 99.216667 
L 50.815146 99.216667 
L 50.80658 99.216667 
L 50.798015 99.216667 
L 50.789449 99.216667 
L 50.780883 99.216667 
L 50.772317 99.216667 
L 50.763751 99.216667 
L 50.755185 99.216667 
L 50.74662 99.216667 
L 50.738054 99.216667 
L 50.729488 99.216667 
L 50.720922 99.216667 
L 50.712356 99.216667 
L 50.70379 99.216667 
L 50.695225 99.216667 
L 50.686659 99.216667 
L 50.678093 99.216667 
L 50.669527 99.216667 
L 50.660961 99.216667 
L 50.652395 99.216667 
L 50.64383 99.216667 
L 50.635264 99.216667 
L 50.626698 99.216667 
L 50.618132 99.216667 
L 50.609566 99.216667 
L 50.601 99.216667 
L 50.592435 99.216667 
L 50.583869 99.216667 
L 50.575303 99.216667 
L 50.566737 99.216667 
L 50.558171 99.216667 
L 50.549605 99.216667 
L 50.54104 99.216667 
L 50.532474 99.216667 
L 50.523908 99.216667 
L 50.515342 99.216667 
L 50.506776 99.216667 
L 50.49821 99.216667 
L 50.489645 99.216667 
L 50.481079 99.216667 
L 50.472513 99.216667 
L 50.463947 99.216667 
L 50.455381 99.216667 
L 50.446815 99.216667 
L 50.43825 99.216667 
L 50.429684 99.216667 
L 50.421118 99.216667 
L 50.412552 99.216667 
L 50.403986 99.216667 
L 50.39542 99.216667 
L 50.386855 99.216667 
L 50.378289 99.216667 
L 50.369723 99.216667 
L 50.361157 99.216667 
L 50.352591 99.216667 
L 50.344025 99.216667 
L 50.33546 99.216667 
L 50.326894 99.216667 
L 50.318328 99.216667 
L 50.309762 99.216667 
L 50.301196 99.216667 
L 50.29263 99.216667 
L 50.284065 99.216667 
L 50.275499 99.216667 
L 50.266933 99.216667 
L 50.258367 99.216667 
L 50.249801 99.216667 
L 50.241235 99.216667 
L 50.23267 99.216667 
L 50.224104 99.216667 
L 50.215538 99.216667 
L 50.206972 99.216667 
L 50.198406 99.216667 
L 50.189841 99.216667 
L 50.181275 99.216667 
L 50.172709 99.216667 
L 50.164143 99.216667 
L 50.155577 99.216667 
L 50.147011 99.216667 
L 50.138446 99.216667 
L 50.12988 99.216667 
L 50.121314 99.216667 
L 50.112748 99.216667 
L 50.104182 99.216667 
L 50.095616 99.216667 
L 50.087051 99.216667 
L 50.078485 99.216667 
L 50.069919 99.216667 
L 50.061353 99.216667 
L 50.052787 99.216667 
L 50.044221 99.216667 
L 50.035656 99.216667 
L 50.02709 99.216667 
L 50.018524 99.216667 
L 50.009958 99.216667 
L 50.001392 99.216667 
L 49.992826 99.216667 
L 49.984261 99.216667 
L 49.975695 99.216667 
L 49.967129 99.216667 
L 49.958563 99.216667 
L 49.949997 99.216667 
L 49.941431 99.216667 
L 49.932866 99.216667 
L 49.9243 99.216667 
L 49.915734 99.216667 
L 49.907168 99.216667 
L 49.898602 99.216667 
L 49.890036 99.216667 
L 49.881471 99.216667 
L 49.872905 99.216667 
L 49.864339 99.216667 
L 49.855773 99.216667 
L 49.847207 99.216667 
L 49.838641 99.216667 
L 49.830076 99.216667 
L 49.82151 99.216667 
L 49.812944 99.216667 
L 49.804378 99.216667 
L 49.795812 99.216667 
L 49.787246 99.216667 
L 49.778681 99.216667 
L 49.770115 99.216667 
L 49.761549 99.216667 
z
" clip-path="url(#p5f41dc7e0e)" style="fill: #3b82f6; fill-opacity: 0.15; stroke: #3b82f6; stroke-opacity: 0.15"/>
    <path d="M 51.954402 99.216667 
L 51.954402 99.379662 
L 51.962968 100.461829 
L 51.971533 101.549108 
L 51.980099 102.641459 
L 51.988665 103.738811 
L 51.997231 104.841056 
L 52.005797 105.948037 
L 52.014363 107.05954 
L 52.022928 108.175285 
L 52.031494 109.294918 
L 52.04006 110.418004 
L 52.048626 111.544018 
L 52.057192 112.672339 
L 52.065758 113.802245 
L 52.074323 114.932908 
L 52.082889 116.063391 
L 52.091455 117.192645 
L 52.100021 118.319508 
L 52.108587 119.442703 
L 52.117153 120.560842 
L 52.125718 121.672427 
L 52.134284 122.775857 
L 52.14285 123.869426 
L 52.151416 124.951338 
L 52.159982 126.01971 
L 52.168548 127.072582 
L 52.177113 128.10793 
L 52.185679 129.123675 
L 52.194245 130.117694 
L 52.202811 131.087839 
L 52.211377 132.031949 
L 52.219943 132.947861 
L 52.228508 133.833432 
L 52.237074 134.686554 
L 52.24564 135.505165 
L 52.254206 136.287274 
L 52.262772 137.030968 
L 52.271338 137.734436 
L 52.279903 138.39598 
L 52.288469 139.014032 
L 52.297035 139.587167 
L 52.305601 140.114115 
L 52.314167 140.593777 
L 52.322733 141.025232 
L 52.331298 141.407749 
L 52.339864 141.740793 
L 52.34843 142.024033 
L 52.356996 142.257344 
L 52.365562 142.440815 
L 52.374128 142.574745 
L 52.382693 142.659645 
L 52.391259 142.696237 
L 52.399825 142.685447 
L 52.408391 142.6284 
L 52.416957 142.526416 
L 52.425523 142.380996 
L 52.434088 142.193816 
L 52.442654 141.96671 
L 52.45122 141.701666 
L 52.459786 141.400801 
L 52.468352 141.066354 
L 52.476918 140.70067 
L 52.485483 140.306178 
L 52.494049 139.88538 
L 52.502615 139.440832 
L 52.511181 138.975126 
L 52.519747 138.490876 
L 52.528313 137.990698 
L 52.536878 137.477195 
L 52.545444 136.952942 
L 52.55401 136.42047 
L 52.562576 135.882253 
L 52.571142 135.340693 
L 52.579708 134.798107 
L 52.588273 134.256719 
L 52.596839 133.718647 
L 52.605405 133.185896 
L 52.613971 132.660349 
L 52.622537 132.14376 
L 52.631103 131.637753 
L 52.639668 131.143811 
L 52.648234 130.663283 
L 52.6568 130.197372 
L 52.665366 129.747143 
L 52.673932 129.313521 
L 52.682498 128.897292 
L 52.691063 128.499108 
L 52.699629 128.119488 
L 52.708195 127.758826 
L 52.716761 127.417393 
L 52.725327 127.095346 
L 52.733893 126.792732 
L 52.742458 126.509497 
L 52.751024 126.245489 
L 52.75959 126.000473 
L 52.768156 125.77413 
L 52.776722 125.566071 
L 52.785288 125.375843 
L 52.785288 99.216667 
L 52.785288 99.216667 
L 52.776722 99.216667 
L 52.768156 99.216667 
L 52.75959 99.216667 
L 52.751024 99.216667 
L 52.742458 99.216667 
L 52.733893 99.216667 
L 52.725327 99.216667 
L 52.716761 99.216667 
L 52.708195 99.216667 
L 52.699629 99.216667 
L 52.691063 99.216667 
L 52.682498 99.216667 
L 52.673932 99.216667 
L 52.665366 99.216667 
L 52.6568 99.216667 
L 52.648234 99.216667 
L 52.639668 99.216667 
L 52.631103 99.216667 
L 52.622537 99.216667 
L 52.613971 99.216667 
L 52.605405 99.216667 
L 52.596839 99.216667 
L 52.588273 99.216667 
L 52.579708 99.216667 
L 52.571142 99.216667 
L 52.562576 99.216667 
L 52.55401 99.216667 
L 52.545444 99.216667 
L 52.536878 99.216667 
L 52.528313 99.216667 
L 52.519747 99.216667 
L 52.511181 99.216667 
L 52.502615 99.216667 
L 52.494049 99.216667 
L 52.485483 99.216667 
L 52.476918 99.216667 
L 52.468352 99.216667 
L 52.459786 99.216667 
L 52.45122 99.216667 
L 52.442654 99.216667 
L 52.434088 99.216667 
L 52.425523 99.216667 
L 52.416957 99.216667 
L 52.408391 99.216667 
L 52.399825 99.216667 
L 52.391259 99.216667 
L 52.382693 99.216667 
L 52.374128 99.216667 
L 52.365562 99.216667 
L 52.356996 99.216667 
L 52.34843 99.216667 
L 52.339864 99.216667 
L 52.331298 99.216667 
L 52.322733 99.216667 
L 52.314167 99.216667 
L 52.305601 99.216667 
L 52.297035 99.216667 
L 52.288469 99.216667 
L 52.279903 99.216667 
L 52.271338 99.216667 
L 52.262772 99.216667 
L 52.254206 99.216667 
L 52.24564 99.216667 
L 52.237074 99.216667 
L 52.228508 99.216667 
L 52.219943 99.216667 
L 52.211377 99.216667 
L 52.202811 99.216667 
L 52.194245 99.216667 
L 52.185679 99.216667 
L 52.177113 99.216667 
L 52.168548 99.216667 
L 52.159982 99.216667 
L 52.151416 99.216667 
L 52.14285 99.216667 
L 52.134284 99.216667 
L 52.125718 99.216667 
L 52.117153 99.216667 
L 52.108587 99.216667 
L 52.100021 99.216667 
L 52.091455 99.216667 
L 52.082889 99.216667 
L 52.074323 99.216667 
L 52.065758 99.216667 
L 52.057192 99.216667 
L 52.048626 99.216667 
L 52.04006 99.216667 
L 52.031494 99.216667 
L 52.022928 99.216667 
L 52.014363 99.216667 
L 52.005797 99.216667 
L 51.997231 99.216667 
L 51.988665 99.216667 
L 51.980099 99.216667 
L 51.971533 99.216667 
L 51.962968 99.216667 
L 51.954402 99.216667 
z
" clip-path="url(#p5f41dc7e0e)" style="fill: #3b82f6; fill-opacity: 0.15; stroke: #3b82f6; stroke-opacity: 0.15"/>
   </g>
   <g id="PolyCollection_3">
    <path d="M 116.181008 99.216667 
L 116.181008 96.800433 
L 117.037591 93.854392 
L 117.894174 90.990768 
L 118.750757 88.209888 
L 119.60734 85.512012 
L 120.463923 82.897394 
L 121.320507 80.366331 
L 122.17709 77.919212 
L 123.033673 75.556547 
L 123.890256 73.279002 
L 124.746839 71.087415 
L 125.603422 68.982808 
L 126.460006 66.966396 
L 127.316589 65.039577 
L 128.173172 63.20393 
L 129.029755 61.461192 
L 129.886338 59.813242 
L 130.742921 58.262072 
L 131.599505 56.809754 
L 132.456088 55.458413 
L 133.312671 54.210182 
L 134.169254 53.067171 
L 135.025837 52.031423 
L 135.88242 51.104875 
L 136.739004 50.289323 
L 137.595587 49.586379 
L 138.45217 48.997439 
L 139.308753 48.523645 
L 140.165336 48.165861 
L 141.021919 47.924639 
L 141.878503 47.800199 
L 142.735086 47.79241 
L 143.591669 47.900774 
L 144.448252 48.124413 
L 145.304835 48.462067 
L 146.161418 48.912091 
L 147.018002 49.472456 
L 147.874585 50.140758 
L 148.731168 50.914232 
L 149.587751 51.789763 
L 150.444334 52.76391 
L 151.300917 53.832927 
L 152.157501 54.992789 
L 153.014084 56.239222 
L 153.870667 57.567734 
L 154.72725 58.97365 
L 155.583833 60.452144 
L 156.440416 61.998275 
L 157.297 63.607028 
L 158.153583 65.273347 
L 159.010166 66.992171 
L 159.866749 68.758472 
L 160.723332 70.56729 
L 161.579915 72.413765 
L 162.436499 74.293169 
L 163.293082 76.200936 
L 164.149665 78.132692 
L 165.006248 80.084272 
L 165.862831 82.05175 
L 166.719414 84.031456 
L 167.575998 86.019986 
L 168.432581 88.014224 
L 169.289164 90.011343 
L 170.145747 92.008816 
L 171.00233 94.004418 
L 171.858913 95.996224 
L 172.715497 97.982609 
L 172.715497 99.216667 
L 172.715497 99.216667 
L 171.858913 99.216667 
L 171.00233 99.216667 
L 170.145747 99.216667 
L 169.289164 99.216667 
L 168.432581 99.216667 
L 167.575998 99.216667 
L 166.719414 99.216667 
L 165.862831 99.216667 
L 165.006248 99.216667 
L 164.149665 99.216667 
L 163.293082 99.216667 
L 162.436499 99.216667 
L 161.579915 99.216667 
L 160.723332 99.216667 
L 159.866749 99.216667 
L 159.010166 99.216667 
L 158.153583 99.216667 
L 157.297 99.216667 
L 156.440416 99.216667 
L 155.583833 99.216667 
L 154.72725 99.216667 
L 153.870667 99.216667 
L 153.014084 99.216667 
L 152.157501 99.216667 
L 151.300917 99.216667 
L 150.444334 99.216667 
L 149.587751 99.216667 
L 148.731168 99.216667 
L 147.874585 99.216667 
L 147.018002 99.216667 
L 146.161418 99.216667 
L 145.304835 99.216667 
L 144.448252 99.216667 
L 143.591669 99.216667 
L 142.735086 99.216667 
L 141.878503 99.216667 
L 141.021919 99.216667 
L 140.165336 99.216667 
L 139.308753 99.216667 
L 138.45217 99.216667 
L 137.595587 99.216667 
L 136.739004 99.216667 
L 135.88242 99.216667 
L 135.025837 99.216667 
L 134.169254 99.216667 
L 133.312671 99.216667 
L 132.456088 99.216667 
L 131.599505 99.216667 
L 130.742921 99.216667 
L 129.886338 99.216667 
L 129.029755 99.216667 
L 128.173172 99.216667 
L 127.316589 99.216667 
L 126.460006 99.216667 
L 125.603422 99.216667 
L 124.746839 99.216667 
L 123.890256 99.216667 
L 123.033673 99.216667 
L 122.17709 99.216667 
L 121.320507 99.216667 
L 120.463923 99.216667 
L 119.60734 99.216667 
L 118.750757 99.216667 
L 117.894174 99.216667 
L 117.037591 99.216667 
L 116.181008 99.216667 
z
" clip-path="url(#p5f41dc7e0e)" style="fill: #e05c5c; fill-opacity: 0.15; stroke: #e05c5c; stroke-opacity: 0.15"/>
    <path d="M 305.485887 99.216667 
L 305.485887 99.065253 
L 306.342471 98.155492 
L 307.199054 97.235907 
L 308.055637 96.306712 
L 308.91222 95.368225 
L 309.768803 94.420862 
L 310.625386 93.465134 
L 311.48197 92.501651 
L 312.338553 91.531115 
L 313.195136 90.554318 
L 314.051719 89.572141 
L 314.908302 88.585552 
L 315.764885 87.595598 
L 316.621469 86.603404 
L 317.478052 85.61017 
L 318.334635 84.617164 
L 319.191218 83.625721 
L 320.047801 82.637233 
L 320.904384 81.653148 
L 321.760968 80.674963 
L 322.617551 79.704219 
L 323.474134 78.742495 
L 324.330717 77.7914 
L 325.1873 76.852571 
L 326.043883 75.927662 
L 326.900467 75.018342 
L 327.75705 74.126285 
L 328.613633 73.253166 
L 329.470216 72.400651 
L 330.326799 71.570395 
L 331.183382 70.764032 
L 332.039966 69.98317 
L 332.896549 69.229383 
L 333.753132 68.504207 
L 334.609715 67.809133 
L 335.466298 67.145598 
L 336.322881 66.514985 
L 337.179465 65.918611 
L 338.036048 65.357727 
L 338.892631 64.83351 
L 339.749214 64.347058 
L 340.605797 63.899388 
L 341.46238 63.491431 
L 342.318964 63.124026 
L 343.175547 62.797919 
L 344.03213 62.513762 
L 344.888713 62.272106 
L 345.745296 62.073403 
L 346.601879 61.918002 
L 347.458463 61.806149 
L 348.315046 61.737989 
L 349.171629 61.713562 
L 350.028212 61.732803 
L 350.884795 61.79555 
L 351.741378 61.901536 
L 352.597962 62.050399 
L 353.454545 62.24168 
L 354.311128 62.474826 
L 355.167711 62.749198 
L 356.024294 63.064067 
L 356.880877 63.418626 
L 357.737461 63.811989 
L 358.594044 64.243202 
L 359.450627 64.71124 
L 360.30721 65.215022 
L 361.163793 65.75341 
L 362.020376 66.325219 
L 362.87696 66.929222 
L 363.733543 67.564157 
L 364.590126 68.228735 
L 365.446709 68.921644 
L 366.303292 69.64156 
L 367.159875 70.38715 
L 368.016459 71.157083 
L 368.873042 71.950031 
L 369.729625 72.764684 
L 370.586208 73.59975 
L 371.442791 74.453963 
L 372.299374 75.32609 
L 373.155958 76.214937 
L 374.012541 77.119353 
L 374.869124 78.038237 
L 375.725707 78.97054 
L 376.58229 79.915271 
L 377.438873 80.8715 
L 378.295457 81.83836 
L 379.15204 82.815051 
L 380.008623 83.800841 
L 380.865206 84.795065 
L 381.721789 85.797128 
L 382.578372 86.806503 
L 383.434956 87.822731 
L 384.291539 88.845417 
L 385.148122 89.87423 
L 386.004705 90.908896 
L 386.861288 91.949196 
L 387.717871 92.994964 
L 388.574455 94.046073 
L 389.431038 95.102439 
L 390.287621 96.164005 
L 391.144204 97.230741 
L 392.000787 98.302629 
L 392.000787 99.216667 
L 392.000787 99.216667 
L 391.144204 99.216667 
L 390.287621 99.216667 
L 389.431038 99.216667 
L 388.574455 99.216667 
L 387.717871 99.216667 
L 386.861288 99.216667 
L 386.004705 99.216667 
L 385.148122 99.216667 
L 384.291539 99.216667 
L 383.434956 99.216667 
L 382.578372 99.216667 
L 381.721789 99.216667 
L 380.865206 99.216667 
L 380.008623 99.216667 
L 379.15204 99.216667 
L 378.295457 99.216667 
L 377.438873 99.216667 
L 376.58229 99.216667 
L 375.725707 99.216667 
L 374.869124 99.216667 
L 374.012541 99.216667 
L 373.155958 99.216667 
L 372.299374 99.216667 
L 371.442791 99.216667 
L 370.586208 99.216667 
L 369.729625 99.216667 
L 368.873042 99.216667 
L 368.016459 99.216667 
L 367.159875 99.216667 
L 366.303292 99.216667 
L 365.446709 99.216667 
L 364.590126 99.216667 
L 363.733543 99.216667 
L 362.87696 99.216667 
L 362.020376 99.216667 
L 361.163793 99.216667 
L 360.30721 99.216667 
L 359.450627 99.216667 
L 358.594044 99.216667 
L 357.737461 99.216667 
L 356.880877 99.216667 
L 356.024294 99.216667 
L 355.167711 99.216667 
L 354.311128 99.216667 
L 353.454545 99.216667 
L 352.597962 99.216667 
L 351.741378 99.216667 
L 350.884795 99.216667 
L 350.028212 99.216667 
L 349.171629 99.216667 
L 348.315046 99.216667 
L 347.458463 99.216667 
L 346.601879 99.216667 
L 345.745296 99.216667 
L 344.888713 99.216667 
L 344.03213 99.216667 
L 343.175547 99.216667 
L 342.318964 99.216667 
L 341.46238 99.216667 
L 340.605797 99.216667 
L 339.749214 99.216667 
L 338.892631 99.216667 
L 338.036048 99.216667 
L 337.179465 99.216667 
L 336.322881 99.216667 
L 335.466298 99.216667 
L 334.609715 99.216667 
L 333.753132 99.216667 
L 332.896549 99.216667 
L 332.039966 99.216667 
L 331.183382 99.216667 
L 330.326799 99.216667 
L 329.470216 99.216667 
L 328.613633 99.216667 
L 327.75705 99.216667 
L 326.900467 99.216667 
L 326.043883 99.216667 
L 325.1873 99.216667 
L 324.330717 99.216667 
L 323.474134 99.216667 
L 322.617551 99.216667 
L 321.760968 99.216667 
L 320.904384 99.216667 
L 320.047801 99.216667 
L 319.191218 99.216667 
L 318.334635 99.216667 
L 317.478052 99.216667 
L 316.621469 99.216667 
L 315.764885 99.216667 
L 314.908302 99.216667 
L 314.051719 99.216667 
L 313.195136 99.216667 
L 312.338553 99.216667 
L 311.48197 99.216667 
L 310.625386 99.216667 
L 309.768803 99.216667 
L 308.91222 99.216667 
L 308.055637 99.216667 
L 307.199054 99.216667 
L 306.342471 99.216667 
L 305.485887 99.216667 
z
" clip-path="url(#p5f41dc7e0e)" style="fill: #e05c5c; fill-opacity: 0.15; stroke: #e05c5c; stroke-opacity: 0.15"/>
   </g>
   <g id="PolyCollection_4">
    <path d="M 48.510938 99.216667 
L 48.510938 124.201998 
L 49.367521 125.681329 
L 50.224104 127.268773 
L 51.080687 128.967057 
L 51.93727 130.778298 
L 52.793853 132.70393 
L 53.650436 134.744615 
L 54.50702 136.900171 
L 55.363603 139.169491 
L 56.220186 141.550476 
L 57.076769 144.039973 
L 57.933352 146.633718 
L 58.789935 149.326294 
L 59.646519 152.111094 
L 60.503102 154.980305 
L 61.359685 157.924899 
L 62.216268 160.934641 
L 63.072851 163.998116 
L 63.929434 167.102769 
L 64.786018 170.234963 
L 65.642601 173.380056 
L 66.499184 176.522489 
L 67.355767 179.645903 
L 68.21235 182.733255 
L 69.068933 185.766963 
L 69.925517 188.729053 
L 70.7821 191.601327 
L 71.638683 194.36553 
L 72.495266 197.003535 
L 73.351849 199.49752 
L 74.208432 201.83016 
L 75.065016 203.984802 
L 75.921599 205.945657 
L 76.778182 207.697961 
L 77.634765 209.228148 
L 78.491348 210.523996 
L 79.347931 211.574767 
L 80.204515 212.371323 
L 81.061098 212.90623 
L 81.917681 213.173836 
L 82.774264 213.170328 
L 83.630847 212.893768 
L 84.48743 212.344102 
L 85.344014 211.523148 
L 86.200597 210.43456 
L 87.05718 209.083767 
L 87.913763 207.477892 
L 88.770346 205.625656 
L 89.626929 203.53725 
L 90.483513 201.224209 
L 91.340096 198.699254 
L 92.196679 195.97614 
L 93.053262 193.069482 
L 93.909845 189.994583 
L 94.766428 186.767257 
L 95.623012 183.403652 
L 96.479595 179.920082 
L 97.336178 176.33285 
L 98.192761 172.658098 
L 99.049344 168.911651 
L 99.905927 165.108887 
L 100.762511 161.264606 
L 101.619094 157.39293 
L 102.475677 153.507207 
L 103.33226 149.61994 
L 104.188843 145.742725 
L 105.045426 141.886217 
L 105.90201 138.060101 
L 106.758593 134.27309 
L 107.615176 130.532929 
L 108.471759 126.846423 
L 109.328342 123.219466 
L 110.184925 119.657093 
L 111.041509 116.163536 
L 111.898092 112.742285 
L 112.754675 109.396165 
L 113.611258 106.12741 
L 114.467841 102.937737 
L 115.324424 99.828434 
L 115.324424 99.216667 
L 115.324424 99.216667 
L 114.467841 99.216667 
L 113.611258 99.216667 
L 112.754675 99.216667 
L 111.898092 99.216667 
L 111.041509 99.216667 
L 110.184925 99.216667 
L 109.328342 99.216667 
L 108.471759 99.216667 
L 107.615176 99.216667 
L 106.758593 99.216667 
L 105.90201 99.216667 
L 105.045426 99.216667 
L 104.188843 99.216667 
L 103.33226 99.216667 
L 102.475677 99.216667 
L 101.619094 99.216667 
L 100.762511 99.216667 
L 99.905927 99.216667 
L 99.049344 99.216667 
L 98.192761 99.216667 
L 97.336178 99.216667 
L 96.479595 99.216667 
L 95.623012 99.216667 
L 94.766428 99.216667 
L 93.909845 99.216667 
L 93.053262 99.216667 
L 92.196679 99.216667 
L 91.340096 99.216667 
L 90.483513 99.216667 
L 89.626929 99.216667 
L 88.770346 99.216667 
L 87.913763 99.216667 
L 87.05718 99.216667 
L 86.200597 99.216667 
L 85.344014 99.216667 
L 84.48743 99.216667 
L 83.630847 99.216667 
L 82.774264 99.216667 
L 81.917681 99.216667 
L 81.061098 99.216667 
L 80.204515 99.216667 
L 79.347931 99.216667 
L 78.491348 99.216667 
L 77.634765 99.216667 
L 76.778182 99.216667 
L 75.921599 99.216667 
L 75.065016 99.216667 
L 74.208432 99.216667 
L 73.351849 99.216667 
L 72.495266 99.216667 
L 71.638683 99.216667 
L 70.7821 99.216667 
L 69.925517 99.216667 
L 69.068933 99.216667 
L 68.21235 99.216667 
L 67.355767 99.216667 
L 66.499184 99.216667 
L 65.642601 99.216667 
L 64.786018 99.216667 
L 63.929434 99.216667 
L 63.072851 99.216667 
L 62.216268 99.216667 
L 61.359685 99.216667 
L 60.503102 99.216667 
L 59.646519 99.216667 
L 58.789935 99.216667 
L 57.933352 99.216667 
L 57.076769 99.216667 
L 56.220186 99.216667 
L 55.363603 99.216667 
L 54.50702 99.216667 
L 53.650436 99.216667 
L 52.793853 99.216667 
L 51.93727 99.216667 
L 51.080687 99.216667 
L 50.224104 99.216667 
L 49.367521 99.216667 
L 48.510938 99.216667 
z
" clip-path="url(#p5f41dc7e0e)" style="fill: #3b82f6; fill-opacity: 0.15; stroke: #3b82f6; stroke-opacity: 0.15"/>
    <path d="M 173.57208 99.216667 
L 173.57208 99.962237 
L 174.428663 101.934056 
L 175.285246 103.897284 
L 176.141829 105.851396 
L 176.998412 107.796108 
L 177.854996 109.731355 
L 178.711579 111.657277 
L 179.568162 113.57419 
L 180.424745 115.48257 
L 181.281328 117.383023 
L 182.137911 119.276266 
L 182.994495 121.163098 
L 183.851078 123.044374 
L 184.707661 124.920983 
L 185.564244 126.793822 
L 186.420827 128.663768 
L 187.27741 130.53166 
L 188.133994 132.398269 
L 188.990577 134.264284 
L 189.84716 136.130284 
L 190.703743 137.996724 
L 191.560326 139.863915 
L 192.416909 141.732007 
L 193.273493 143.600979 
L 194.130076 145.470622 
L 194.986659 147.340533 
L 195.843242 149.210102 
L 196.699825 151.07851 
L 197.556408 152.944722 
L 198.412992 154.807487 
L 199.269575 156.665335 
L 200.126158 158.516582 
L 200.982741 160.359333 
L 201.839324 162.191486 
L 202.695907 164.010743 
L 203.552491 165.814616 
L 204.409074 167.600442 
L 205.265657 169.365392 
L 206.12224 171.106488 
L 206.978823 172.820618 
L 207.835406 174.504554 
L 208.69199 176.154968 
L 209.548573 177.768451 
L 210.405156 179.341537 
L 211.261739 180.870717 
L 212.118322 182.352468 
L 212.974905 183.783266 
L 213.831489 185.159616 
L 214.688072 186.478066 
L 215.544655 187.735237 
L 216.401238 188.927835 
L 217.257821 190.052681 
L 218.114404 191.106725 
L 218.970988 192.087068 
L 219.827571 192.990983 
L 220.684154 193.815928 
L 221.540737 194.559569 
L 222.39732 195.219789 
L 223.253903 195.794707 
L 224.110487 196.28269 
L 224.96707 196.682361 
L 225.823653 196.992614 
L 226.680236 197.212617 
L 227.536819 197.341821 
L 228.393402 197.379965 
L 229.249986 197.327078 
L 230.106569 197.183476 
L 230.963152 196.949771 
L 231.819735 196.626858 
L 232.676318 196.215917 
L 233.532901 195.718404 
L 234.389485 195.136047 
L 235.246068 194.470832 
L 236.102651 193.724996 
L 236.959234 192.901015 
L 237.815817 192.001587 
L 238.6724 191.029621 
L 239.528984 189.98822 
L 240.385567 188.880666 
L 241.24215 187.710399 
L 242.098733 186.481002 
L 242.955316 185.196181 
L 243.811899 183.859747 
L 244.668483 182.475595 
L 245.525066 181.047684 
L 246.381649 179.580019 
L 247.238232 178.076632 
L 248.094815 176.54156 
L 248.951398 174.978827 
L 249.807982 173.392428 
L 250.664565 171.786307 
L 251.521148 170.164342 
L 252.377731 168.530328 
L 253.234314 166.887964 
L 254.090897 165.240833 
L 254.947481 163.592392 
L 255.804064 161.945961 
L 256.660647 160.304705 
L 257.51723 158.671632 
L 258.373813 157.049578 
L 259.230396 155.441201 
L 260.08698 153.848976 
L 260.943563 152.275184 
L 261.800146 150.721916 
L 262.656729 149.191064 
L 263.513312 147.684319 
L 264.369895 146.203175 
L 265.226479 144.748924 
L 266.083062 143.322661 
L 266.939645 141.925285 
L 267.796228 140.557502 
L 268.652811 139.219833 
L 269.509394 137.912611 
L 270.365978 136.635997 
L 271.222561 135.389978 
L 272.079144 134.17438 
L 272.935727 132.988873 
L 273.79231 131.83298 
L 274.648893 130.706086 
L 275.505477 129.607446 
L 276.36206 128.536195 
L 277.218643 127.49136 
L 278.075226 126.471866 
L 278.931809 125.476547 
L 279.788392 124.504157 
L 280.644976 123.553381 
L 281.501559 122.622842 
L 282.358142 121.711111 
L 283.214725 120.816722 
L 284.071308 119.938173 
L 284.927891 119.073944 
L 285.784475 118.222501 
L 286.641058 117.382303 
L 287.497641 116.551818 
L 288.354224 115.729525 
L 289.210807 114.913923 
L 290.06739 114.103542 
L 290.923974 113.296944 
L 291.780557 112.492736 
L 292.63714 111.689576 
L 293.493723 110.886173 
L 294.350306 110.0813 
L 295.206889 109.273797 
L 296.063473 108.462573 
L 296.920056 107.646614 
L 297.776639 106.824988 
L 298.633222 105.996844 
L 299.489805 105.161422 
L 300.346388 104.31805 
L 301.202972 103.466148 
L 302.059555 102.605236 
L 302.916138 101.734927 
L 303.772721 100.854934 
L 304.629304 99.965072 
L 304.629304 99.216667 
L 304.629304 99.216667 
L 303.772721 99.216667 
L 302.916138 99.216667 
L 302.059555 99.216667 
L 301.202972 99.216667 
L 300.346388 99.216667 
L 299.489805 99.216667 
L 298.633222 99.216667 
L 297.776639 99.216667 
L 296.920056 99.216667 
L 296.063473 99.216667 
L 295.206889 99.216667 
L 294.350306 99.216667 
L 293.493723 99.216667 
L 292.63714 99.216667 
L 291.780557 99.216667 
L 290.923974 99.216667 
L 290.06739 99.216667 
L 289.210807 99.216667 
L 288.354224 99.216667 
L 287.497641 99.216667 
L 286.641058 99.216667 
L 285.784475 99.216667 
L 284.927891 99.216667 
L 284.071308 99.216667 
L 283.214725 99.216667 
L 282.358142 99.216667 
L 281.501559 99.216667 
L 280.644976 99.216667 
L 279.788392 99.216667 
L 278.931809 99.216667 
L 278.075226 99.216667 
L 277.218643 99.216667 
L 276.36206 99.216667 
L 275.505477 99.216667 
L 274.648893 99.216667 
L 273.79231 99.216667 
L 272.935727 99.216667 
L 272.079144 99.216667 
L 271.222561 99.216667 
L 270.365978 99.216667 
L 269.509394 99.216667 
L 268.652811 99.216667 
L 267.796228 99.216667 
L 266.939645 99.216667 
L 266.083062 99.216667 
L 265.226479 99.216667 
L 264.369895 99.216667 
L 263.513312 99.216667 
L 262.656729 99.216667 
L 261.800146 99.216667 
L 260.943563 99.216667 
L 260.08698 99.216667 
L 259.230396 99.216667 
L 258.373813 99.216667 
L 257.51723 99.216667 
L 256.660647 99.216667 
L 255.804064 99.216667 
L 254.947481 99.216667 
L 254.090897 99.216667 
L 253.234314 99.216667 
L 252.377731 99.216667 
L 251.521148 99.216667 
L 250.664565 99.216667 
L 249.807982 99.216667 
L 248.951398 99.216667 
L 248.094815 99.216667 
L 247.238232 99.216667 
L 246.381649 99.216667 
L 245.525066 99.216667 
L 244.668483 99.216667 
L 243.811899 99.216667 
L 242.955316 99.216667 
L 242.098733 99.216667 
L 241.24215 99.216667 
L 240.385567 99.216667 
L 239.528984 99.216667 
L 238.6724 99.216667 
L 237.815817 99.216667 
L 236.959234 99.216667 
L 236.102651 99.216667 
L 235.246068 99.216667 
L 234.389485 99.216667 
L 233.532901 99.216667 
L 232.676318 99.216667 
L 231.819735 99.216667 
L 230.963152 99.216667 
L 230.106569 99.216667 
L 229.249986 99.216667 
L 228.393402 99.216667 
L 227.536819 99.216667 
L 226.680236 99.216667 
L 225.823653 99.216667 
L 224.96707 99.216667 
L 224.110487 99.216667 
L 223.253903 99.216667 
L 222.39732 99.216667 
L 221.540737 99.216667 
L 220.684154 99.216667 
L 219.827571 99.216667 
L 218.970988 99.216667 
L 218.114404 99.216667 
L 217.257821 99.216667 
L 216.401238 99.216667 
L 215.544655 99.216667 
L 214.688072 99.216667 
L 213.831489 99.216667 
L 212.974905 99.216667 
L 212.118322 99.216667 
L 211.261739 99.216667 
L 210.405156 99.216667 
L 209.548573 99.216667 
L 208.69199 99.216667 
L 207.835406 99.216667 
L 206.978823 99.216667 
L 206.12224 99.216667 
L 205.265657 99.216667 
L 204.409074 99.216667 
L 203.552491 99.216667 
L 202.695907 99.216667 
L 201.839324 99.216667 
L 200.982741 99.216667 
L 200.126158 99.216667 
L 199.269575 99.216667 
L 198.412992 99.216667 
L 197.556408 99.216667 
L 196.699825 99.216667 
L 195.843242 99.216667 
L 194.986659 99.216667 
L 194.130076 99.216667 
L 193.273493 99.216667 
L 192.416909 99.216667 
L 191.560326 99.216667 
L 190.703743 99.216667 
L 189.84716 99.216667 
L 188.990577 99.216667 
L 188.133994 99.216667 
L 187.27741 99.216667 
L 186.420827 99.216667 
L 185.564244 99.216667 
L 184.707661 99.216667 
L 183.851078 99.216667 
L 182.994495 99.216667 
L 182.137911 99.216667 
L 181.281328 99.216667 
L 180.424745 99.216667 
L 179.568162 99.216667 
L 178.711579 99.216667 
L 177.854996 99.216667 
L 176.998412 99.216667 
L 176.141829 99.216667 
L 175.285246 99.216667 
L 174.428663 99.216667 
L 173.57208 99.216667 
z
" clip-path="url(#p5f41dc7e0e)" style="fill: #3b82f6; fill-opacity: 0.15; stroke: #3b82f6; stroke-opacity: 0.15"/>
    <path d="M 392.85737 99.216667 
L 392.85737 99.379662 
L 393.713954 100.461829 
L 394.570537 101.549108 
L 395.42712 102.641459 
L 396.283703 103.738811 
L 397.140286 104.841056 
L 397.996869 105.948037 
L 398.853453 107.05954 
L 399.710036 108.175285 
L 400.566619 109.294918 
L 401.423202 110.418004 
L 402.279785 111.544018 
L 403.136368 112.672339 
L 403.992952 113.802245 
L 404.849535 114.932908 
L 405.706118 116.063391 
L 406.562701 117.192645 
L 407.419284 118.319508 
L 408.275867 119.442703 
L 409.132451 120.560842 
L 409.989034 121.672427 
L 410.845617 122.775857 
L 411.7022 123.869426 
L 412.558783 124.951338 
L 413.415366 126.01971 
L 414.27195 127.072582 
L 415.128533 128.10793 
L 415.985116 129.123675 
L 416.841699 130.117694 
L 417.698282 131.087839 
L 418.554865 132.031949 
L 419.411449 132.947861 
L 420.268032 133.833432 
L 421.124615 134.686554 
L 421.981198 135.505165 
L 422.837781 136.287274 
L 423.694364 137.030968 
L 424.550948 137.734436 
L 425.407531 138.39598 
L 426.264114 139.014032 
L 427.120697 139.587167 
L 427.97728 140.114115 
L 428.833863 140.593777 
L 429.690447 141.025232 
L 430.54703 141.407749 
L 431.403613 141.740793 
L 432.260196 142.024033 
L 433.116779 142.257344 
L 433.973362 142.440815 
L 434.829946 142.574745 
L 435.686529 142.659645 
L 436.543112 142.696237 
L 437.399695 142.685447 
L 438.256278 142.6284 
L 439.112861 142.526416 
L 439.969445 142.380996 
L 440.826028 142.193816 
L 441.682611 141.96671 
L 442.539194 141.701666 
L 443.395777 141.400801 
L 444.25236 141.066354 
L 445.108944 140.70067 
L 445.965527 140.306178 
L 446.82211 139.88538 
L 447.678693 139.440832 
L 448.535276 138.975126 
L 449.391859 138.490876 
L 450.248443 137.990698 
L 451.105026 137.477195 
L 451.961609 136.952942 
L 452.818192 136.42047 
L 453.674775 135.882253 
L 454.531358 135.340693 
L 455.387942 134.798107 
L 456.244525 134.256719 
L 457.101108 133.718647 
L 457.957691 133.185896 
L 458.814274 132.660349 
L 459.670857 132.14376 
L 460.527441 131.637753 
L 461.384024 131.143811 
L 462.240607 130.663283 
L 463.09719 130.197372 
L 463.953773 129.747143 
L 464.810356 129.313521 
L 465.66694 128.897292 
L 466.523523 128.499108 
L 467.380106 128.119488 
L 468.236689 127.758826 
L 469.093272 127.417393 
L 469.949855 127.095346 
L 470.806439 126.792732 
L 471.663022 126.509497 
L 472.519605 126.245489 
L 473.376188 126.000473 
L 474.232771 125.77413 
L 475.089354 125.566071 
L 475.945937 125.375843 
L 475.945937 99.216667 
L 475.945937 99.216667 
L 475.089354 99.216667 
L 474.232771 99.216667 
L 473.376188 99.216667 
L 472.519605 99.216667 
L 471.663022 99.216667 
L 470.806439 99.216667 
L 469.949855 99.216667 
L 469.093272 99.216667 
L 468.236689 99.216667 
L 467.380106 99.216667 
L 466.523523 99.216667 
L 465.66694 99.216667 
L 464.810356 99.216667 
L 463.953773 99.216667 
L 463.09719 99.216667 
L 462.240607 99.216667 
L 461.384024 99.216667 
L 460.527441 99.216667 
L 459.670857 99.216667 
L 458.814274 99.216667 
L 457.957691 99.216667 
L 457.101108 99.216667 
L 456.244525 99.216667 
L 455.387942 99.216667 
L 454.531358 99.216667 
L 453.674775 99.216667 
L 452.818192 99.216667 
L 451.961609 99.216667 
L 451.105026 99.216667 
L 450.248443 99.216667 
L 449.391859 99.216667 
L 448.535276 99.216667 
L 447.678693 99.216667 
L 446.82211 99.216667 
L 445.965527 99.216667 
L 445.108944 99.216667 
L 444.25236 99.216667 
L 443.395777 99.216667 
L 442.539194 99.216667 
L 441.682611 99.216667 
L 440.826028 99.216667 
L 439.969445 99.216667 
L 439.112861 99.216667 
L 438.256278 99.216667 
L 437.399695 99.216667 
L 436.543112 99.216667 
L 435.686529 99.216667 
L 434.829946 99.216667 
L 433.973362 99.216667 
L 433.116779 99.216667 
L 432.260196 99.216667 
L 431.403613 99.216667 
L 430.54703 99.216667 
L 429.690447 99.216667 
L 428.833863 99.216667 
L 427.97728 99.216667 
L 427.120697 99.216667 
L 426.264114 99.216667 
L 425.407531 99.216667 
L 424.550948 99.216667 
L 423.694364 99.216667 
L 422.837781 99.216667 
L 421.981198 99.216667 
L 421.124615 99.216667 
L 420.268032 99.216667 
L 419.411449 99.216667 
L 418.554865 99.216667 
L 417.698282 99.216667 
L 416.841699 99.216667 
L 415.985116 99.216667 
L 415.128533 99.216667 
L 414.27195 99.216667 
L 413.415366 99.216667 
L 412.558783 99.216667 
L 411.7022 99.216667 
L 410.845617 99.216667 
L 409.989034 99.216667 
L 409.132451 99.216667 
L 408.275867 99.216667 
L 407.419284 99.216667 
L 406.562701 99.216667 
L 405.706118 99.216667 
L 404.849535 99.216667 
L 403.992952 99.216667 
L 403.136368 99.216667 
L 402.279785 99.216667 
L 401.423202 99.216667 
L 400.566619 99.216667 
L 399.710036 99.216667 
L 398.853453 99.216667 
L 397.996869 99.216667 
L 397.140286 99.216667 
L 396.283703 99.216667 
L 395.42712 99.216667 
L 394.570537 99.216667 
L 393.713954 99.216667 
L 392.85737 99.216667 
z
" clip-path="url(#p5f41dc7e0e)" style="fill: #3b82f6; fill-opacity: 0.15; stroke: #3b82f6; stroke-opacity: 0.15"/>
   </g>
   <g id="matplotlib.axis_1">
    <g id="xtick_1">
     <g id="line2d_1">
      <defs>
       <path id="m2fc902fc42" d="M 0 0 
L 0 3.5 
" style="stroke: #000000; stroke-width: 0.8"/>
      </defs>
      <g>
       <use xlink:href="#m2fc902fc42" x="48.510938" y="228.04" style="stroke: #000000; stroke-width: 0.8"/>
      </g>
     </g>
     <g id="text_1">
      <!-- 0 -->
      <g transform="translate(45.329688 242.638437) scale(0.1 -0.1)">
       <defs>
        <path id="DejaVuSans-30" d="M 2034 4250 
Q 1547 4250 1301 3770 
Q 1056 3291 1056 2328 
Q 1056 1369 1301 889 
Q 1547 409 2034 409 
Q 2525 409 2770 889 
Q 3016 1369 3016 2328 
Q 3016 3291 2770 3770 
Q 2525 4250 2034 4250 
z
M 2034 4750 
Q 2819 4750 3233 4129 
Q 3647 3509 3647 2328 
Q 3647 1150 3233 529 
Q 2819 -91 2034 -91 
Q 1250 -91 836 529 
Q 422 1150 422 2328 
Q 422 3509 836 4129 
Q 1250 4750 2034 4750 
z
" transform="scale(0.015625)"/>
       </defs>
       <use xlink:href="#DejaVuSans-30"/>
      </g>
     </g>
    </g>
    <g id="xtick_2">
     <g id="line2d_2">
      <g>
       <use xlink:href="#m2fc902fc42" x="133.997937" y="228.04" style="stroke: #000000; stroke-width: 0.8"/>
      </g>
     </g>
     <g id="text_2">
      <!-- 20 -->
      <g transform="translate(127.635437 242.638437) scale(0.1 -0.1)">
       <defs>
        <path id="DejaVuSans-32" d="M 1228 531 
L 3431 531 
L 3431 0 
L 469 0 
L 469 531 
Q 828 903 1448 1529 
Q 2069 2156 2228 2338 
Q 2531 2678 2651 2914 
Q 2772 3150 2772 3378 
Q 2772 3750 2511 3984 
Q 2250 4219 1831 4219 
Q 1534 4219 1204 4116 
Q 875 4013 500 3803 
L 500 4441 
Q 881 4594 1212 4672 
Q 1544 4750 1819 4750 
Q 2544 4750 2975 4387 
Q 3406 4025 3406 3419 
Q 3406 3131 3298 2873 
Q 3191 2616 2906 2266 
Q 2828 2175 2409 1742 
Q 1991 1309 1228 531 
z
" transform="scale(0.015625)"/>
       </defs>
       <use xlink:href="#DejaVuSans-32"/>
       <use xlink:href="#DejaVuSans-30" x="63.623047"/>
      </g>
     </g>
    </g>
    <g id="xtick_3">
     <g id="line2d_3">
      <g>
       <use xlink:href="#m2fc902fc42" x="219.484937" y="228.04" style="stroke: #000000; stroke-width: 0.8"/>
      </g>
     </g>
     <g id="text_3">
      <!-- 40 -->
      <g transform="translate(213.122437 242.638437) scale(0.1 -0.1)">
       <defs>
        <path id="DejaVuSans-34" d="M 2419 4116 
L 825 1625 
L 2419 1625 
L 2419 4116 
z
M 2253 4666 
L 3047 4666 
L 3047 1625 
L 3713 1625 
L 3713 1100 
L 3047 1100 
L 3047 0 
L 2419 0 
L 2419 1100 
L 313 1100 
L 313 1709 
L 2253 4666 
z
" transform="scale(0.015625)"/>
       </defs>
       <use xlink:href="#DejaVuSans-34"/>
       <use xlink:href="#DejaVuSans-30" x="63.623047"/>
      </g>
     </g>
    </g>
    <g id="xtick_4">
     <g id="line2d_4">
      <g>
       <use xlink:href="#m2fc902fc42" x="304.971937" y="228.04" style="stroke: #000000; stroke-width: 0.8"/>
      </g>
     </g>
     <g id="text_4">
      <!-- 60 -->
      <g transform="translate(298.609437 242.638437) scale(0.1 -0.1)">
       <defs>
        <path id="DejaVuSans-36" d="M 2113 2584 
Q 1688 2584 1439 2293 
Q 1191 2003 1191 1497 
Q 1191 994 1439 701 
Q 1688 409 2113 409 
Q 2538 409 2786 701 
Q 3034 994 3034 1497 
Q 3034 2003 2786 2293 
Q 2538 2584 2113 2584 
z
M 3366 4563 
L 3366 3988 
Q 3128 4100 2886 4159 
Q 2644 4219 2406 4219 
Q 1781 4219 1451 3797 
Q 1122 3375 1075 2522 
Q 1259 2794 1537 2939 
Q 1816 3084 2150 3084 
Q 2853 3084 3261 2657 
Q 3669 2231 3669 1497 
Q 3669 778 3244 343 
Q 2819 -91 2113 -91 
Q 1303 -91 875 529 
Q 447 1150 447 2328 
Q 447 3434 972 4092 
Q 1497 4750 2381 4750 
Q 2619 4750 2861 4703 
Q 3103 4656 3366 4563 
z
" transform="scale(0.015625)"/>
       </defs>
       <use xlink:href="#DejaVuSans-36"/>
       <use xlink:href="#DejaVuSans-30" x="63.623047"/>
      </g>
     </g>
    </g>
    <g id="xtick_5">
     <g id="line2d_5">
      <g>
       <use xlink:href="#m2fc902fc42" x="390.458937" y="228.04" style="stroke: #000000; stroke-width: 0.8"/>
      </g>
     </g>
     <g id="text_5">
      <!-- 80 -->
      <g transform="translate(384.096437 242.638437) scale(0.1 -0.1)">
       <defs>
        <path id="DejaVuSans-38" d="M 2034 2216 
Q 1584 2216 1326 1975 
Q 1069 1734 1069 1313 
Q 1069 891 1326 650 
Q 1584 409 2034 409 
Q 2484 409 2743 651 
Q 3003 894 3003 1313 
Q 3003 1734 2745 1975 
Q 2488 2216 2034 2216 
z
M 1403 2484 
Q 997 2584 770 2862 
Q 544 3141 544 3541 
Q 544 4100 942 4425 
Q 1341 4750 2034 4750 
Q 2731 4750 3128 4425 
Q 3525 4100 3525 3541 
Q 3525 3141 3298 2862 
Q 3072 2584 2669 2484 
Q 3125 2378 3379 2068 
Q 3634 1759 3634 1313 
Q 3634 634 3220 271 
Q 2806 -91 2034 -91 
Q 1263 -91 848 271 
Q 434 634 434 1313 
Q 434 1759 690 2068 
Q 947 2378 1403 2484 
z
M 1172 3481 
Q 1172 3119 1398 2916 
Q 1625 2713 2034 2713 
Q 2441 2713 2670 2916 
Q 2900 3119 2900 3481 
Q 2900 3844 2670 4047 
Q 2441 4250 2034 4250 
Q 1625 4250 1398 4047 
Q 1172 3844 1172 3481 
z
" transform="scale(0.015625)"/>
       </defs>
       <use xlink:href="#DejaVuSans-38"/>
       <use xlink:href="#DejaVuSans-30" x="63.623047"/>
      </g>
     </g>
    </g>
    <g id="xtick_6">
     <g id="line2d_6">
      <g>
       <use xlink:href="#m2fc902fc42" x="475.945937" y="228.04" style="stroke: #000000; stroke-width: 0.8"/>
      </g>
     </g>
     <g id="text_6">
      <!-- 100 -->
      <g transform="translate(466.402187 242.638437) scale(0.1 -0.1)">
       <defs>
        <path id="DejaVuSans-31" d="M 794 531 
L 1825 531 
L 1825 4091 
L 703 3866 
L 703 4441 
L 1819 4666 
L 2450 4666 
L 2450 531 
L 3481 531 
L 3481 0 
L 794 0 
L 794 531 
z
" transform="scale(0.015625)"/>
       </defs>
       <use xlink:href="#DejaVuSans-31"/>
       <use xlink:href="#DejaVuSans-30" x="63.623047"/>
       <use xlink:href="#DejaVuSans-30" x="127.246094"/>
      </g>
     </g>
    </g>
    <g id="text_7">
     <!-- SOC (%) -->
     <g transform="translate(241.385469 256.316562) scale(0.1 -0.1)">
      <defs>
       <path id="DejaVuSans-53" d="M 3425 4513 
L 3425 3897 
Q 3066 4069 2747 4153 
Q 2428 4238 2131 4238 
Q 1616 4238 1336 4038 
Q 1056 3838 1056 3469 
Q 1056 3159 1242 3001 
Q 1428 2844 1947 2747 
L 2328 2669 
Q 3034 2534 3370 2195 
Q 3706 1856 3706 1288 
Q 3706 609 3251 259 
Q 2797 -91 1919 -91 
Q 1588 -91 1214 -16 
Q 841 59 441 206 
L 441 856 
Q 825 641 1194 531 
Q 1563 422 1919 422 
Q 2459 422 2753 634 
Q 3047 847 3047 1241 
Q 3047 1584 2836 1778 
Q 2625 1972 2144 2069 
L 1759 2144 
Q 1053 2284 737 2584 
Q 422 2884 422 3419 
Q 422 4038 858 4394 
Q 1294 4750 2059 4750 
Q 2388 4750 2728 4690 
Q 3069 4631 3425 4513 
z
" transform="scale(0.015625)"/>
       <path id="DejaVuSans-4f" d="M 2522 4238 
Q 1834 4238 1429 3725 
Q 1025 3213 1025 2328 
Q 1025 1447 1429 934 
Q 1834 422 2522 422 
Q 3209 422 3611 934 
Q 4013 1447 4013 2328 
Q 4013 3213 3611 3725 
Q 3209 4238 2522 4238 
z
M 2522 4750 
Q 3503 4750 4090 4092 
Q 4678 3434 4678 2328 
Q 4678 1225 4090 567 
Q 3503 -91 2522 -91 
Q 1538 -91 948 565 
Q 359 1222 359 2328 
Q 359 3434 948 4092 
Q 1538 4750 2522 4750 
z
" transform="scale(0.015625)"/>
       <path id="DejaVuSans-43" d="M 4122 4306 
L 4122 3641 
Q 3803 3938 3442 4084 
Q 3081 4231 2675 4231 
Q 1875 4231 1450 3742 
Q 1025 3253 1025 2328 
Q 1025 1406 1450 917 
Q 1875 428 2675 428 
Q 3081 428 3442 575 
Q 3803 722 4122 1019 
L 4122 359 
Q 3791 134 3420 21 
Q 3050 -91 2638 -91 
Q 1578 -91 968 557 
Q 359 1206 359 2328 
Q 359 3453 968 4101 
Q 1578 4750 2638 4750 
Q 3056 4750 3426 4639 
Q 3797 4528 4122 4306 
z
" transform="scale(0.015625)"/>
       <path id="DejaVuSans-20" transform="scale(0.015625)"/>
       <path id="DejaVuSans-28" d="M 1984 4856 
Q 1566 4138 1362 3434 
Q 1159 2731 1159 2009 
Q 1159 1288 1364 580 
Q 1569 -128 1984 -844 
L 1484 -844 
Q 1016 -109 783 600 
Q 550 1309 550 2009 
Q 550 2706 781 3412 
Q 1013 4119 1484 4856 
L 1984 4856 
z
" transform="scale(0.015625)"/>
       <path id="DejaVuSans-25" d="M 4653 2053 
Q 4381 2053 4226 1822 
Q 4072 1591 4072 1178 
Q 4072 772 4226 539 
Q 4381 306 4653 306 
Q 4919 306 5073 539 
Q 5228 772 5228 1178 
Q 5228 1588 5073 1820 
Q 4919 2053 4653 2053 
z
M 4653 2450 
Q 5147 2450 5437 2106 
Q 5728 1763 5728 1178 
Q 5728 594 5436 251 
Q 5144 -91 4653 -91 
Q 4153 -91 3862 251 
Q 3572 594 3572 1178 
Q 3572 1766 3864 2108 
Q 4156 2450 4653 2450 
z
M 1428 4353 
Q 1159 4353 1004 4120 
Q 850 3888 850 3481 
Q 850 3069 1003 2837 
Q 1156 2606 1428 2606 
Q 1700 2606 1854 2837 
Q 2009 3069 2009 3481 
Q 2009 3884 1853 4118 
Q 1697 4353 1428 4353 
z
M 4250 4750 
L 4750 4750 
L 1831 -91 
L 1331 -91 
L 4250 4750 
z
M 1428 4750 
Q 1922 4750 2215 4408 
Q 2509 4066 2509 3481 
Q 2509 2891 2217 2550 
Q 1925 2209 1428 2209 
Q 931 2209 642 2551 
Q 353 2894 353 3481 
Q 353 4063 643 4406 
Q 934 4750 1428 4750 
z
" transform="scale(0.015625)"/>
       <path id="DejaVuSans-29" d="M 513 4856 
L 1013 4856 
Q 1481 4119 1714 3412 
Q 1947 2706 1947 2009 
Q 1947 1309 1714 600 
Q 1481 -109 1013 -844 
L 513 -844 
Q 928 -128 1133 580 
Q 1338 1288 1338 2009 
Q 1338 2731 1133 3434 
Q 928 4138 513 4856 
z
" transform="scale(0.015625)"/>
      </defs>
      <use xlink:href="#DejaVuSans-53"/>
      <use xlink:href="#DejaVuSans-4f" x="63.476562"/>
      <use xlink:href="#DejaVuSans-43" x="142.1875"/>
      <use xlink:href="#DejaVuSans-20" x="212.011719"/>
      <use xlink:href="#DejaVuSans-28" x="243.798828"/>
      <use xlink:href="#DejaVuSans-25" x="282.8125"/>
      <use xlink:href="#DejaVuSans-29" x="377.832031"/>
     </g>
    </g>
   </g>
   <g id="matplotlib.axis_2">
    <g id="ytick_1">
     <g id="line2d_7">
      <defs>
       <path id="mdadd54cc5d" d="M 0 0 
L -3.5 0 
" style="stroke: #000000; stroke-width: 0.8"/>
      </defs>
      <g>
       <use xlink:href="#mdadd54cc5d" x="48.510938" y="209.636667" style="stroke: #000000; stroke-width: 0.8"/>
      </g>
     </g>
     <g id="text_8">
      <!-- -3.0 -->
      <g transform="translate(22 213.435885) scale(0.1 -0.1)">
       <defs>
        <path id="DejaVuSans-2d" d="M 313 2009 
L 1997 2009 
L 1997 1497 
L 313 1497 
L 313 2009 
z
" transform="scale(0.015625)"/>
        <path id="DejaVuSans-33" d="M 2597 2516 
Q 3050 2419 3304 2112 
Q 3559 1806 3559 1356 
Q 3559 666 3084 287 
Q 2609 -91 1734 -91 
Q 1441 -91 1130 -33 
Q 819 25 488 141 
L 488 750 
Q 750 597 1062 519 
Q 1375 441 1716 441 
Q 2309 441 2620 675 
Q 2931 909 2931 1356 
Q 2931 1769 2642 2001 
Q 2353 2234 1838 2234 
L 1294 2234 
L 1294 2753 
L 1863 2753 
Q 2328 2753 2575 2939 
Q 2822 3125 2822 3475 
Q 2822 3834 2567 4026 
Q 2313 4219 1838 4219 
Q 1578 4219 1281 4162 
Q 984 4106 628 3988 
L 628 4550 
Q 988 4650 1302 4700 
Q 1616 4750 1894 4750 
Q 2613 4750 3031 4423 
Q 3450 4097 3450 3541 
Q 3450 3153 3228 2886 
Q 3006 2619 2597 2516 
z
" transform="scale(0.015625)"/>
        <path id="DejaVuSans-2e" d="M 684 794 
L 1344 794 
L 1344 0 
L 684 0 
L 684 794 
z
" transform="scale(0.015625)"/>
       </defs>
       <use xlink:href="#DejaVuSans-2d"/>
       <use xlink:href="#DejaVuSans-33" x="36.083984"/>
       <use xlink:href="#DejaVuSans-2e" x="99.707031"/>
       <use xlink:href="#DejaVuSans-30" x="131.494141"/>
      </g>
     </g>
    </g>
    <g id="ytick_2">
     <g id="line2d_8">
      <g>
       <use xlink:href="#mdadd54cc5d" x="48.510938" y="172.83" style="stroke: #000000; stroke-width: 0.8"/>
      </g>
     </g>
     <g id="text_9">
      <!-- -2.0 -->
      <g transform="translate(22 176.629219) scale(0.1 -0.1)">
       <use xlink:href="#DejaVuSans-2d"/>
       <use xlink:href="#DejaVuSans-32" x="36.083984"/>
       <use xlink:href="#DejaVuSans-2e" x="99.707031"/>
       <use xlink:href="#DejaVuSans-30" x="131.494141"/>
      </g>
     </g>
    </g>
    <g id="ytick_3">
     <g id="line2d_9">
      <g>
       <use xlink:href="#mdadd54cc5d" x="48.510938" y="136.023333" style="stroke: #000000; stroke-width: 0.8"/>
      </g>
     </g>
     <g id="text_10">
      <!-- -1.0 -->
      <g transform="translate(22 139.822552) scale(0.1 -0.1)">
       <use xlink:href="#DejaVuSans-2d"/>
       <use xlink:href="#DejaVuSans-31" x="36.083984"/>
       <use xlink:href="#DejaVuSans-2e" x="99.707031"/>
       <use xlink:href="#DejaVuSans-30" x="131.494141"/>
      </g>
     </g>
    </g>
    <g id="ytick_4">
     <g id="line2d_10">
      <g>
       <use xlink:href="#mdadd54cc5d" x="48.510938" y="99.216667" style="stroke: #000000; stroke-width: 0.8"/>
      </g>
     </g>
     <g id="text_11">
      <!-- 0.0 -->
      <g transform="translate(25.607813 103.015885) scale(0.1 -0.1)">
       <use xlink:href="#DejaVuSans-30"/>
       <use xlink:href="#DejaVuSans-2e" x="63.623047"/>
       <use xlink:href="#DejaVuSans-30" x="95.410156"/>
      </g>
     </g>
    </g>
    <g id="ytick_5">
     <g id="line2d_11">
      <g>
       <use xlink:href="#mdadd54cc5d" x="48.510938" y="62.41" style="stroke: #000000; stroke-width: 0.8"/>
      </g>
     </g>
     <g id="text_12">
      <!-- 1.0 -->
      <g transform="translate(25.607813 66.209219) scale(0.1 -0.1)">
       <use xlink:href="#DejaVuSans-31"/>
       <use xlink:href="#DejaVuSans-2e" x="63.623047"/>
       <use xlink:href="#DejaVuSans-30" x="95.410156"/>
      </g>
     </g>
    </g>
    <g id="ytick_6">
     <g id="line2d_12">
      <g>
       <use xlink:href="#mdadd54cc5d" x="48.510938" y="25.603333" style="stroke: #000000; stroke-width: 0.8"/>
      </g>
     </g>
     <g id="text_13">
      <!-- 2.0 -->
      <g transform="translate(25.607813 29.402552) scale(0.1 -0.1)">
       <use xlink:href="#DejaVuSans-32"/>
       <use xlink:href="#DejaVuSans-2e" x="63.623047"/>
       <use xlink:href="#DejaVuSans-30" x="95.410156"/>
      </g>
     </g>
    </g>
    <g id="text_14">
     <!-- $\partial E_{oc}/\partial T$ ($\times 10^{-4}$ V K$^{-1}$) -->
     <g transform="translate(15.920312 171.52) rotate(-90) scale(0.1 -0.1)">
      <defs>
       <path id="DejaVuSans-2202" d="M 1366 -91 
Q 925 -91 638 175 
Q 297 491 297 1063 
Q 297 1656 597 2119 
Q 906 2594 1463 2594 
Q 1828 2594 2116 2366 
Q 2284 2231 2400 2006 
Q 2441 2259 2441 2547 
Q 2441 2969 2341 3213 
Q 2119 3753 1531 3753 
Q 1309 3753 966 3616 
L 966 4141 
Q 1328 4238 1653 4238 
Q 2491 4238 2847 3469 
Q 3013 3106 3013 2566 
Q 3013 2213 2934 1803 
Q 2738 778 2228 291 
Q 1828 -91 1366 -91 
z
M 831 969 
Q 831 656 969 488 
Q 1116 309 1341 309 
Q 1541 309 1700 450 
Q 1925 644 2091 959 
Q 2228 1219 2297 1497 
Q 2019 2169 1538 2169 
Q 1125 2169 944 1625 
Q 831 1288 831 969 
z
" transform="scale(0.015625)"/>
       <path id="DejaVuSans-Oblique-45" d="M 1081 4666 
L 4031 4666 
L 3928 4134 
L 1606 4134 
L 1338 2753 
L 3566 2753 
L 3463 2222 
L 1234 2222 
L 909 531 
L 3284 531 
L 3181 0 
L 172 0 
L 1081 4666 
z
" transform="scale(0.015625)"/>
       <path id="DejaVuSans-Oblique-6f" d="M 1625 -91 
Q 1009 -91 651 289 
Q 294 669 294 1325 
Q 294 1706 417 2101 
Q 541 2497 738 2766 
Q 1047 3184 1428 3384 
Q 1809 3584 2291 3584 
Q 2888 3584 3255 3212 
Q 3622 2841 3622 2241 
Q 3622 1825 3500 1412 
Q 3378 1000 3181 728 
Q 2875 309 2494 109 
Q 2113 -91 1625 -91 
z
M 891 1344 
Q 891 869 1089 633 
Q 1288 397 1691 397 
Q 2269 397 2648 901 
Q 3028 1406 3028 2181 
Q 3028 2634 2825 2865 
Q 2622 3097 2228 3097 
Q 1903 3097 1650 2945 
Q 1397 2794 1197 2484 
Q 1050 2253 970 1956 
Q 891 1659 891 1344 
z
" transform="scale(0.015625)"/>
       <path id="DejaVuSans-Oblique-63" d="M 3431 3366 
L 3316 2797 
Q 3109 2947 2876 3022 
Q 2644 3097 2394 3097 
Q 2119 3097 1870 3000 
Q 1622 2903 1453 2725 
Q 1184 2453 1037 2087 
Q 891 1722 891 1331 
Q 891 859 1127 628 
Q 1363 397 1844 397 
Q 2081 397 2348 469 
Q 2616 541 2906 684 
L 2797 116 
Q 2547 13 2283 -39 
Q 2019 -91 1741 -91 
Q 1044 -91 669 257 
Q 294 606 294 1253 
Q 294 1797 489 2255 
Q 684 2713 1069 3078 
Q 1331 3328 1684 3456 
Q 2038 3584 2456 3584 
Q 2700 3584 2940 3529 
Q 3181 3475 3431 3366 
z
" transform="scale(0.015625)"/>
       <path id="DejaVuSans-2f" d="M 1625 4666 
L 2156 4666 
L 531 -594 
L 0 -594 
L 1625 4666 
z
" transform="scale(0.015625)"/>
       <path id="DejaVuSans-Oblique-54" d="M 378 4666 
L 4325 4666 
L 4225 4134 
L 2559 4134 
L 1759 0 
L 1125 0 
L 1925 4134 
L 275 4134 
L 378 4666 
z
" transform="scale(0.015625)"/>
       <path id="DejaVuSans-d7" d="M 4488 3438 
L 3059 2003 
L 4488 575 
L 4116 197 
L 2681 1631 
L 1247 197 
L 878 575 
L 2303 2003 
L 878 3438 
L 1247 3816 
L 2681 2381 
L 4116 3816 
L 4488 3438 
z
" transform="scale(0.015625)"/>
       <path id="DejaVuSans-2212" d="M 678 2272 
L 4684 2272 
L 4684 1741 
L 678 1741 
L 678 2272 
z
" transform="scale(0.015625)"/>
       <path id="DejaVuSans-56" d="M 1831 0 
L 50 4666 
L 709 4666 
L 2188 738 
L 3669 4666 
L 4325 4666 
L 2547 0 
L 1831 0 
z
" transform="scale(0.015625)"/>
       <path id="DejaVuSans-4b" d="M 628 4666 
L 1259 4666 
L 1259 2694 
L 3353 4666 
L 4166 4666 
L 1850 2491 
L 4331 0 
L 3500 0 
L 1259 2247 
L 1259 0 
L 628 0 
L 628 4666 
z
" transform="scale(0.015625)"/>
      </defs>
      <use xlink:href="#DejaVuSans-2202" transform="translate(0 0.684375)"/>
      <use xlink:href="#DejaVuSans-Oblique-45" transform="translate(51.708984 0.684375)"/>
      <use xlink:href="#DejaVuSans-Oblique-6f" transform="translate(114.892578 -15.721875) scale(0.7)"/>
      <use xlink:href="#DejaVuSans-Oblique-63" transform="translate(157.719727 -15.721875) scale(0.7)"/>
      <use xlink:href="#DejaVuSans-2f" transform="translate(198.94043 0.684375)"/>
      <use xlink:href="#DejaVuSans-2202" transform="translate(232.631836 0.684375)"/>
      <use xlink:href="#DejaVuSans-Oblique-54" transform="translate(284.34082 0.684375)"/>
      <use xlink:href="#DejaVuSans-20" transform="translate(345.424805 0.684375)"/>
      <use xlink:href="#DejaVuSans-28" transform="translate(377.211914 0.684375)"/>
      <use xlink:href="#DejaVuSans-d7" transform="translate(416.225586 0.684375)"/>
      <use xlink:href="#DejaVuSans-31" transform="translate(500.014648 0.684375)"/>
      <use xlink:href="#DejaVuSans-30" transform="translate(563.637695 0.684375)"/>
      <use xlink:href="#DejaVuSans-2212" transform="translate(628.217773 38.965625) scale(0.7)"/>
      <use xlink:href="#DejaVuSans-34" transform="translate(686.870117 38.965625) scale(0.7)"/>
      <use xlink:href="#DejaVuSans-20" transform="translate(734.140625 0.684375)"/>
      <use xlink:href="#DejaVuSans-56" transform="translate(765.927734 0.684375)"/>
      <use xlink:href="#DejaVuSans-20" transform="translate(834.335938 0.684375)"/>
      <use xlink:href="#DejaVuSans-4b" transform="translate(866.123047 0.684375)"/>
      <use xlink:href="#DejaVuSans-2212" transform="translate(932.65625 38.965625) scale(0.7)"/>
      <use xlink:href="#DejaVuSans-31" transform="translate(991.308594 38.965625) scale(0.7)"/>
      <use xlink:href="#DejaVuSans-29" transform="translate(1038.579102 0.684375)"/>
     </g>
    </g>
   </g>
   <g id="line2d_13">
    <path d="M 48.510938 99.216667 
L 475.945937 99.216667 
" clip-path="url(#p5f41dc7e0e)" style="fill: none; stroke-dasharray: 2.96,1.28; stroke-dashoffset: 0; stroke: #888888; stroke-width: 0.8"/>
   </g>
   <g id="line2d_14">
    <path d="M 48.510938 124.201998 
L 50.224104 127.268773 
L 51.93727 130.778298 
L 53.650436 134.744615 
L 55.363603 139.169491 
L 57.933352 146.633718 
L 60.503102 154.980305 
L 63.929434 167.102769 
L 69.925517 188.729053 
L 72.495266 197.003535 
L 74.208432 201.83016 
L 75.921599 205.945657 
L 77.634765 209.228148 
L 78.491348 210.523996 
L 79.347931 211.574767 
L 80.204515 212.371323 
L 81.061098 212.90623 
L 81.917681 213.173836 
L 82.774264 213.170328 
L 83.630847 212.893768 
L 84.48743 212.344102 
L 85.344014 211.523148 
L 86.200597 210.43456 
L 87.05718 209.083767 
L 87.913763 207.477892 
L 89.626929 203.53725 
L 91.340096 198.699254 
L 93.053262 193.069482 
L 94.766428 186.767257 
L 97.336178 176.33285 
L 100.762511 161.264606 
L 108.471759 126.846423 
L 111.898092 112.742285 
L 114.467841 102.937737 
L 117.037591 93.854392 
L 119.60734 85.512012 
L 122.17709 77.919212 
L 124.746839 71.087415 
L 127.316589 65.039577 
L 129.029755 61.461192 
L 130.742921 58.262072 
L 132.456088 55.458413 
L 134.169254 53.067171 
L 135.88242 51.104875 
L 137.595587 49.586379 
L 139.308753 48.523645 
L 141.021919 47.924639 
L 141.878503 47.800199 
L 142.735086 47.79241 
L 143.591669 47.900774 
L 145.304835 48.462067 
L 147.018002 49.472456 
L 148.731168 50.914232 
L 150.444334 52.76391 
L 152.157501 54.992789 
L 153.870667 57.567734 
L 156.440416 61.998275 
L 159.010166 66.992171 
L 162.436499 74.293169 
L 166.719414 84.031456 
L 178.711579 111.657277 
L 186.420827 128.663768 
L 203.552491 165.814616 
L 207.835406 174.504554 
L 211.261739 180.870717 
L 213.831489 185.159616 
L 216.401238 188.927835 
L 218.114404 191.106725 
L 219.827571 192.990983 
L 221.540737 194.559569 
L 223.253903 195.794707 
L 224.96707 196.682361 
L 226.680236 197.212617 
L 228.393402 197.379965 
L 230.106569 197.183476 
L 231.819735 196.626858 
L 233.532901 195.718404 
L 235.246068 194.470832 
L 236.959234 192.901015 
L 238.6724 191.029621 
L 240.385567 188.880666 
L 242.955316 185.196181 
L 245.525066 181.047684 
L 248.951398 174.978827 
L 254.090897 165.240833 
L 260.943563 152.275184 
L 264.369895 146.203175 
L 267.796228 140.557502 
L 271.222561 135.389978 
L 274.648893 130.706086 
L 278.075226 126.471866 
L 281.501559 122.622842 
L 285.784475 118.222501 
L 291.780557 112.492736 
L 300.346388 104.31805 
L 305.485887 99.065253 
L 310.625386 93.465134 
L 317.478052 85.61017 
L 324.330717 77.7914 
L 328.613633 73.253166 
L 332.039966 69.98317 
L 334.609715 67.809133 
L 337.179465 65.918611 
L 339.749214 64.347058 
L 342.318964 63.124026 
L 344.03213 62.513762 
L 345.745296 62.073403 
L 347.458463 61.806149 
L 349.171629 61.713562 
L 350.884795 61.79555 
L 352.597962 62.050399 
L 354.311128 62.474826 
L 356.024294 63.064067 
L 358.594044 64.243202 
L 361.163793 65.75341 
L 363.733543 67.564157 
L 366.303292 69.64156 
L 369.729625 72.764684 
L 373.155958 76.214937 
L 377.438873 80.8715 
L 382.578372 86.806503 
L 389.431038 95.102439 
L 396.283703 103.738811 
L 404.849535 114.932908 
L 412.558783 124.951338 
L 416.841699 130.117694 
L 420.268032 133.833432 
L 422.837781 136.287274 
L 425.407531 138.39598 
L 427.97728 140.114115 
L 429.690447 141.025232 
L 431.403613 141.740793 
L 433.116779 142.257344 
L 434.829946 142.574745 
L 436.543112 142.696237 
L 438.256278 142.6284 
L 439.969445 142.380996 
L 441.682611 141.96671 
L 444.25236 141.066354 
L 446.82211 139.88538 
L 450.248443 137.990698 
L 455.387942 134.798107 
L 460.527441 131.637753 
L 463.953773 129.747143 
L 467.380106 128.119488 
L 470.806439 126.792732 
L 474.232771 125.77413 
L 475.945937 125.375843 
L 475.945937 125.375843 
" clip-path="url(#p5f41dc7e0e)" style="fill: none; stroke: #1a1a2e; stroke-width: 1.8; stroke-linecap: square"/>
   </g>
   <g id="line2d_15">
    <path d="M 48.510938 99.216667 
L 475.945937 99.216667 
" clip-path="url(#p5f41dc7e0e)" style="fill: none; stroke-dasharray: 2.96,1.28; stroke-dashoffset: 0; stroke: #666666; stroke-width: 0.8"/>
   </g>
   <g id="line2d_16">
    <path d="M 112.626187 228.04 
L 112.626187 7.2 
" clip-path="url(#p5f41dc7e0e)" style="fill: none; stroke-dasharray: 0.6,0.99; stroke-dashoffset: 0; stroke: #aaaaaa; stroke-width: 0.6"/>
   </g>
   <g id="line2d_17">
    <path d="M 198.113187 228.04 
L 198.113187 7.2 
" clip-path="url(#p5f41dc7e0e)" style="fill: none; stroke-dasharray: 0.6,0.99; stroke-dashoffset: 0; stroke: #aaaaaa; stroke-width: 0.6"/>
   </g>
   <g id="line2d_18">
    <path d="M 283.600187 228.04 
L 283.600187 7.2 
" clip-path="url(#p5f41dc7e0e)" style="fill: none; stroke-dasharray: 0.6,0.99; stroke-dashoffset: 0; stroke: #aaaaaa; stroke-width: 0.6"/>
   </g>
   <g id="line2d_19">
    <path d="M 390.458937 228.04 
L 390.458937 7.2 
" clip-path="url(#p5f41dc7e0e)" style="fill: none; stroke-dasharray: 0.6,0.99; stroke-dashoffset: 0; stroke: #aaaaaa; stroke-width: 0.6"/>
   </g>
   <g id="patch_3">
    <path d="M 48.510938 228.04 
L 48.510938 7.2 
" style="fill: none; stroke: #000000; stroke-width: 0.8; stroke-linejoin: miter; stroke-linecap: square"/>
   </g>
   <g id="patch_4">
    <path d="M 48.510938 228.04 
L 475.945937 228.04 
" style="fill: none; stroke: #000000; stroke-width: 0.8; stroke-linejoin: miter; stroke-linecap: square"/>
   </g>
   <g id="text_15">
    <!-- Stage 4→3 -->
    <g style="fill: #555555" transform="translate(116.045668 226.381891) scale(0.065 -0.065)">
     <defs>
      <path id="DejaVuSans-74" d="M 1172 4494 
L 1172 3500 
L 2356 3500 
L 2356 3053 
L 1172 3053 
L 1172 1153 
Q 1172 725 1289 603 
Q 1406 481 1766 481 
L 2356 481 
L 2356 0 
L 1766 0 
Q 1100 0 847 248 
Q 594 497 594 1153 
L 594 3053 
L 172 3053 
L 172 3500 
L 594 3500 
L 594 4494 
L 1172 4494 
z
" transform="scale(0.015625)"/>
      <path id="DejaVuSans-61" d="M 2194 1759 
Q 1497 1759 1228 1600 
Q 959 1441 959 1056 
Q 959 750 1161 570 
Q 1363 391 1709 391 
Q 2188 391 2477 730 
Q 2766 1069 2766 1631 
L 2766 1759 
L 2194 1759 
z
M 3341 1997 
L 3341 0 
L 2766 0 
L 2766 531 
Q 2569 213 2275 61 
Q 1981 -91 1556 -91 
Q 1019 -91 701 211 
Q 384 513 384 1019 
Q 384 1609 779 1909 
Q 1175 2209 1959 2209 
L 2766 2209 
L 2766 2266 
Q 2766 2663 2505 2880 
Q 2244 3097 1772 3097 
Q 1472 3097 1187 3025 
Q 903 2953 641 2809 
L 641 3341 
Q 956 3463 1253 3523 
Q 1550 3584 1831 3584 
Q 2591 3584 2966 3190 
Q 3341 2797 3341 1997 
z
" transform="scale(0.015625)"/>
      <path id="DejaVuSans-67" d="M 2906 1791 
Q 2906 2416 2648 2759 
Q 2391 3103 1925 3103 
Q 1463 3103 1205 2759 
Q 947 2416 947 1791 
Q 947 1169 1205 825 
Q 1463 481 1925 481 
Q 2391 481 2648 825 
Q 2906 1169 2906 1791 
z
M 3481 434 
Q 3481 -459 3084 -895 
Q 2688 -1331 1869 -1331 
Q 1566 -1331 1297 -1286 
Q 1028 -1241 775 -1147 
L 775 -588 
Q 1028 -725 1275 -790 
Q 1522 -856 1778 -856 
Q 2344 -856 2625 -561 
Q 2906 -266 2906 331 
L 2906 616 
Q 2728 306 2450 153 
Q 2172 0 1784 0 
Q 1141 0 747 490 
Q 353 981 353 1791 
Q 353 2603 747 3093 
Q 1141 3584 1784 3584 
Q 2172 3584 2450 3431 
Q 2728 3278 2906 2969 
L 2906 3500 
L 3481 3500 
L 3481 434 
z
" transform="scale(0.015625)"/>
      <path id="DejaVuSans-65" d="M 3597 1894 
L 3597 1613 
L 953 1613 
Q 991 1019 1311 708 
Q 1631 397 2203 397 
Q 2534 397 2845 478 
Q 3156 559 3463 722 
L 3463 178 
Q 3153 47 2828 -22 
Q 2503 -91 2169 -91 
Q 1331 -91 842 396 
Q 353 884 353 1716 
Q 353 2575 817 3079 
Q 1281 3584 2069 3584 
Q 2775 3584 3186 3129 
Q 3597 2675 3597 1894 
z
M 3022 2063 
Q 3016 2534 2758 2815 
Q 2500 3097 2075 3097 
Q 1594 3097 1305 2825 
Q 1016 2553 972 2059 
L 3022 2063 
z
" transform="scale(0.015625)"/>
      <path id="DejaVuSans-2192" d="M 5050 2147 
L 5050 1866 
L 3822 638 
L 3447 1013 
L 4175 1741 
L 366 1741 
L 366 2272 
L 4175 2272 
L 3447 3000 
L 3822 3375 
L 5050 2147 
z
" transform="scale(0.015625)"/>
     </defs>
     <use xlink:href="#DejaVuSans-53"/>
     <use xlink:href="#DejaVuSans-74" x="63.476562"/>
     <use xlink:href="#DejaVuSans-61" x="102.685547"/>
     <use xlink:href="#DejaVuSans-67" x="163.964844"/>
     <use xlink:href="#DejaVuSans-65" x="227.441406"/>
     <use xlink:href="#DejaVuSans-20" x="288.964844"/>
     <use xlink:href="#DejaVuSans-34" x="320.751953"/>
     <use xlink:href="#DejaVuSans-2192" x="384.375"/>
     <use xlink:href="#DejaVuSans-33" x="468.164062"/>
    </g>
   </g>
   <g id="text_16">
    <!-- Stage 3→2 -->
    <g style="fill: #555555" transform="translate(201.532667 226.381891) scale(0.065 -0.065)">
     <use xlink:href="#DejaVuSans-53"/>
     <use xlink:href="#DejaVuSans-74" x="63.476562"/>
     <use xlink:href="#DejaVuSans-61" x="102.685547"/>
     <use xlink:href="#DejaVuSans-67" x="163.964844"/>
     <use xlink:href="#DejaVuSans-65" x="227.441406"/>
     <use xlink:href="#DejaVuSans-20" x="288.964844"/>
     <use xlink:href="#DejaVuSans-33" x="320.751953"/>
     <use xlink:href="#DejaVuSans-2192" x="384.375"/>
     <use xlink:href="#DejaVuSans-32" x="468.164062"/>
    </g>
   </g>
   <g id="text_17">
    <!-- Stage 2→1 -->
    <g style="fill: #555555" transform="translate(287.019667 226.381891) scale(0.065 -0.065)">
     <use xlink:href="#DejaVuSans-53"/>
     <use xlink:href="#DejaVuSans-74" x="63.476562"/>
     <use xlink:href="#DejaVuSans-61" x="102.685547"/>
     <use xlink:href="#DejaVuSans-67" x="163.964844"/>
     <use xlink:href="#DejaVuSans-65" x="227.441406"/>
     <use xlink:href="#DejaVuSans-20" x="288.964844"/>
     <use xlink:href="#DejaVuSans-32" x="320.751953"/>
     <use xlink:href="#DejaVuSans-2192" x="384.375"/>
     <use xlink:href="#DejaVuSans-31" x="468.164062"/>
    </g>
   </g>
   <g id="text_18">
    <!-- Stage 1 -->
    <g style="fill: #555555" transform="translate(393.878417 226.381891) scale(0.065 -0.065)">
     <use xlink:href="#DejaVuSans-53"/>
     <use xlink:href="#DejaVuSans-74" x="63.476562"/>
     <use xlink:href="#DejaVuSans-61" x="102.685547"/>
     <use xlink:href="#DejaVuSans-67" x="163.964844"/>
     <use xlink:href="#DejaVuSans-65" x="227.441406"/>
     <use xlink:href="#DejaVuSans-20" x="288.964844"/>
     <use xlink:href="#DejaVuSans-31" x="320.751953"/>
    </g>
    <!-- dilute -->
    <g style="fill: #555555" transform="translate(393.878417 233.660469) scale(0.065 -0.065)">
     <defs>
      <path id="DejaVuSans-64" d="M 2906 2969 
L 2906 4863 
L 3481 4863 
L 3481 0 
L 2906 0 
L 2906 525 
Q 2725 213 2448 61 
Q 2172 -91 1784 -91 
Q 1150 -91 751 415 
Q 353 922 353 1747 
Q 353 2572 751 3078 
Q 1150 3584 1784 3584 
Q 2172 3584 2448 3432 
Q 2725 3281 2906 2969 
z
M 947 1747 
Q 947 1113 1208 752 
Q 1469 391 1925 391 
Q 2381 391 2643 752 
Q 2906 1113 2906 1747 
Q 2906 2381 2643 2742 
Q 2381 3103 1925 3103 
Q 1469 3103 1208 2742 
Q 947 2381 947 1747 
z
" transform="scale(0.015625)"/>
      <path id="DejaVuSans-69" d="M 603 3500 
L 1178 3500 
L 1178 0 
L 603 0 
L 603 3500 
z
M 603 4863 
L 1178 4863 
L 1178 4134 
L 603 4134 
L 603 4863 
z
" transform="scale(0.015625)"/>
      <path id="DejaVuSans-6c" d="M 603 4863 
L 1178 4863 
L 1178 0 
L 603 0 
L 603 4863 
z
" transform="scale(0.015625)"/>
      <path id="DejaVuSans-75" d="M 544 1381 
L 544 3500 
L 1119 3500 
L 1119 1403 
Q 1119 906 1312 657 
Q 1506 409 1894 409 
Q 2359 409 2629 706 
Q 2900 1003 2900 1516 
L 2900 3500 
L 3475 3500 
L 3475 0 
L 2900 0 
L 2900 538 
Q 2691 219 2414 64 
Q 2138 -91 1772 -91 
Q 1169 -91 856 284 
Q 544 659 544 1381 
z
M 1991 3584 
L 1991 3584 
z
" transform="scale(0.015625)"/>
     </defs>
     <use xlink:href="#DejaVuSans-64"/>
     <use xlink:href="#DejaVuSans-69" x="63.476562"/>
     <use xlink:href="#DejaVuSans-6c" x="91.259766"/>
     <use xlink:href="#DejaVuSans-75" x="119.042969"/>
     <use xlink:href="#DejaVuSans-74" x="182.421875"/>
     <use xlink:href="#DejaVuSans-65" x="221.630859"/>
    </g>
   </g>
   <g id="legend_1">
    <g id="patch_5">
     <path d="M 311.785937 37.12 
L 470.345937 37.12 
Q 471.945937 37.12 471.945937 35.52 
L 471.945937 12.8 
Q 471.945937 11.2 470.345937 11.2 
L 311.785937 11.2 
Q 310.185937 11.2 310.185937 12.8 
L 310.185937 35.52 
Q 310.185937 37.12 311.785937 37.12 
z
" style="fill: #ffffff; opacity: 0.9; stroke: #cccccc; stroke-linejoin: miter"/>
    </g>
    <g id="patch_6">
     <path d="M 313.385937 20.48 
L 329.385937 20.48 
L 329.385937 14.88 
L 313.385937 14.88 
z
" style="fill: #e05c5c; opacity: 0.4"/>
    </g>
    <g id="text_19">
     <!-- $\partial E_{oc}/\partial T &gt; 0$: endothermic, $q_{rev}&lt;0$ -->
     <g transform="translate(335.785937 20.48) scale(0.08 -0.08)">
      <defs>
       <path id="DejaVuSans-3e" d="M 678 3150 
L 678 3719 
L 4684 2266 
L 4684 1747 
L 678 294 
L 678 863 
L 3897 2003 
L 678 3150 
z
" transform="scale(0.015625)"/>
       <path id="DejaVuSans-3a" d="M 750 794 
L 1409 794 
L 1409 0 
L 750 0 
L 750 794 
z
M 750 3309 
L 1409 3309 
L 1409 2516 
L 750 2516 
L 750 3309 
z
" transform="scale(0.015625)"/>
       <path id="DejaVuSans-6e" d="M 3513 2113 
L 3513 0 
L 2938 0 
L 2938 2094 
Q 2938 2591 2744 2837 
Q 2550 3084 2163 3084 
Q 1697 3084 1428 2787 
Q 1159 2491 1159 1978 
L 1159 0 
L 581 0 
L 581 3500 
L 1159 3500 
L 1159 2956 
Q 1366 3272 1645 3428 
Q 1925 3584 2291 3584 
Q 2894 3584 3203 3211 
Q 3513 2838 3513 2113 
z
" transform="scale(0.015625)"/>
       <path id="DejaVuSans-6f" d="M 1959 3097 
Q 1497 3097 1228 2736 
Q 959 2375 959 1747 
Q 959 1119 1226 758 
Q 1494 397 1959 397 
Q 2419 397 2687 759 
Q 2956 1122 2956 1747 
Q 2956 2369 2687 2733 
Q 2419 3097 1959 3097 
z
M 1959 3584 
Q 2709 3584 3137 3096 
Q 3566 2609 3566 1747 
Q 3566 888 3137 398 
Q 2709 -91 1959 -91 
Q 1206 -91 779 398 
Q 353 888 353 1747 
Q 353 2609 779 3096 
Q 1206 3584 1959 3584 
z
" transform="scale(0.015625)"/>
       <path id="DejaVuSans-68" d="M 3513 2113 
L 3513 0 
L 2938 0 
L 2938 2094 
Q 2938 2591 2744 2837 
Q 2550 3084 2163 3084 
Q 1697 3084 1428 2787 
Q 1159 2491 1159 1978 
L 1159 0 
L 581 0 
L 581 4863 
L 1159 4863 
L 1159 2956 
Q 1366 3272 1645 3428 
Q 1925 3584 2291 3584 
Q 2894 3584 3203 3211 
Q 3513 2838 3513 2113 
z
" transform="scale(0.015625)"/>
       <path id="DejaVuSans-72" d="M 2631 2963 
Q 2534 3019 2420 3045 
Q 2306 3072 2169 3072 
Q 1681 3072 1420 2755 
Q 1159 2438 1159 1844 
L 1159 0 
L 581 0 
L 581 3500 
L 1159 3500 
L 1159 2956 
Q 1341 3275 1631 3429 
Q 1922 3584 2338 3584 
Q 2397 3584 2469 3576 
Q 2541 3569 2628 3553 
L 2631 2963 
z
" transform="scale(0.015625)"/>
       <path id="DejaVuSans-6d" d="M 3328 2828 
Q 3544 3216 3844 3400 
Q 4144 3584 4550 3584 
Q 5097 3584 5394 3201 
Q 5691 2819 5691 2113 
L 5691 0 
L 5113 0 
L 5113 2094 
Q 5113 2597 4934 2840 
Q 4756 3084 4391 3084 
Q 3944 3084 3684 2787 
Q 3425 2491 3425 1978 
L 3425 0 
L 2847 0 
L 2847 2094 
Q 2847 2600 2669 2842 
Q 2491 3084 2119 3084 
Q 1678 3084 1418 2786 
Q 1159 2488 1159 1978 
L 1159 0 
L 581 0 
L 581 3500 
L 1159 3500 
L 1159 2956 
Q 1356 3278 1631 3431 
Q 1906 3584 2284 3584 
Q 2666 3584 2933 3390 
Q 3200 3197 3328 2828 
z
" transform="scale(0.015625)"/>
       <path id="DejaVuSans-63" d="M 3122 3366 
L 3122 2828 
Q 2878 2963 2633 3030 
Q 2388 3097 2138 3097 
Q 1578 3097 1268 2742 
Q 959 2388 959 1747 
Q 959 1106 1268 751 
Q 1578 397 2138 397 
Q 2388 397 2633 464 
Q 2878 531 3122 666 
L 3122 134 
Q 2881 22 2623 -34 
Q 2366 -91 2075 -91 
Q 1284 -91 818 406 
Q 353 903 353 1747 
Q 353 2603 823 3093 
Q 1294 3584 2113 3584 
Q 2378 3584 2631 3529 
Q 2884 3475 3122 3366 
z
" transform="scale(0.015625)"/>
       <path id="DejaVuSans-2c" d="M 750 794 
L 1409 794 
L 1409 256 
L 897 -744 
L 494 -744 
L 750 256 
L 750 794 
z
" transform="scale(0.015625)"/>
       <path id="DejaVuSans-Oblique-71" d="M 2669 525 
Q 2438 222 2123 65 
Q 1809 -91 1428 -91 
Q 897 -91 595 267 
Q 294 625 294 1253 
Q 294 1759 480 2231 
Q 666 2703 1013 3078 
Q 1238 3322 1530 3453 
Q 1822 3584 2144 3584 
Q 2531 3584 2781 3431 
Q 3031 3278 3144 2969 
L 3244 3494 
L 3822 3494 
L 2888 -1319 
L 2309 -1319 
L 2669 525 
z
M 891 1338 
Q 891 875 1084 633 
Q 1278 391 1644 391 
Q 2188 391 2572 911 
Q 2956 1431 2956 2175 
Q 2956 2625 2757 2864 
Q 2559 3103 2188 3103 
Q 1916 3103 1684 2976 
Q 1453 2850 1281 2606 
Q 1100 2350 995 2006 
Q 891 1663 891 1338 
z
" transform="scale(0.015625)"/>
       <path id="DejaVuSans-Oblique-72" d="M 2853 2969 
Q 2766 3016 2653 3041 
Q 2541 3066 2413 3066 
Q 1953 3066 1609 2717 
Q 1266 2369 1153 1784 
L 800 0 
L 225 0 
L 909 3500 
L 1484 3500 
L 1375 2956 
Q 1603 3259 1920 3421 
Q 2238 3584 2597 3584 
Q 2691 3584 2781 3573 
Q 2872 3563 2963 3538 
L 2853 2969 
z
" transform="scale(0.015625)"/>
       <path id="DejaVuSans-Oblique-65" d="M 3078 2063 
Q 3088 2113 3092 2166 
Q 3097 2219 3097 2272 
Q 3097 2653 2873 2875 
Q 2650 3097 2266 3097 
Q 1838 3097 1509 2826 
Q 1181 2556 1013 2059 
L 3078 2063 
z
M 3578 1613 
L 903 1613 
Q 884 1494 878 1425 
Q 872 1356 872 1306 
Q 872 872 1139 634 
Q 1406 397 1894 397 
Q 2269 397 2603 481 
Q 2938 566 3225 728 
L 3116 159 
Q 2806 34 2476 -28 
Q 2147 -91 1806 -91 
Q 1078 -91 686 257 
Q 294 606 294 1247 
Q 294 1794 489 2264 
Q 684 2734 1063 3103 
Q 1306 3334 1642 3459 
Q 1978 3584 2356 3584 
Q 2950 3584 3301 3228 
Q 3653 2872 3653 2272 
Q 3653 2128 3634 1964 
Q 3616 1800 3578 1613 
z
" transform="scale(0.015625)"/>
       <path id="DejaVuSans-Oblique-76" d="M 459 3500 
L 1069 3500 
L 1581 525 
L 3256 3500 
L 3866 3500 
L 1875 0 
L 1100 0 
L 459 3500 
z
" transform="scale(0.015625)"/>
       <path id="DejaVuSans-3c" d="M 4684 3150 
L 1459 2003 
L 4684 863 
L 4684 294 
L 678 1747 
L 678 2266 
L 4684 3719 
L 4684 3150 
z
" transform="scale(0.015625)"/>
      </defs>
      <use xlink:href="#DejaVuSans-2202" transform="translate(0 0.015625)"/>
      <use xlink:href="#DejaVuSans-Oblique-45" transform="translate(51.708984 0.015625)"/>
      <use xlink:href="#DejaVuSans-Oblique-6f" transform="translate(114.892578 -16.390625) scale(0.7)"/>
      <use xlink:href="#DejaVuSans-Oblique-63" transform="translate(157.719727 -16.390625) scale(0.7)"/>
      <use xlink:href="#DejaVuSans-2f" transform="translate(198.94043 0.015625)"/>
      <use xlink:href="#DejaVuSans-2202" transform="translate(232.631836 0.015625)"/>
      <use xlink:href="#DejaVuSans-Oblique-54" transform="translate(284.34082 0.015625)"/>
      <use xlink:href="#DejaVuSans-3e" transform="translate(364.907227 0.015625)"/>
      <use xlink:href="#DejaVuSans-30" transform="translate(468.178711 0.015625)"/>
      <use xlink:href="#DejaVuSans-3a" transform="translate(531.801758 0.015625)"/>
      <use xlink:href="#DejaVuSans-20" transform="translate(565.493164 0.015625)"/>
      <use xlink:href="#DejaVuSans-65" transform="translate(597.280273 0.015625)"/>
      <use xlink:href="#DejaVuSans-6e" transform="translate(658.803711 0.015625)"/>
      <use xlink:href="#DejaVuSans-64" transform="translate(722.182617 0.015625)"/>
      <use xlink:href="#DejaVuSans-6f" transform="translate(785.65918 0.015625)"/>
      <use xlink:href="#DejaVuSans-74" transform="translate(846.84082 0.015625)"/>
      <use xlink:href="#DejaVuSans-68" transform="translate(886.049805 0.015625)"/>
      <use xlink:href="#DejaVuSans-65" transform="translate(949.428711 0.015625)"/>
      <use xlink:href="#DejaVuSans-72" transform="translate(1010.952148 0.015625)"/>
      <use xlink:href="#DejaVuSans-6d" transform="translate(1052.06543 0.015625)"/>
      <use xlink:href="#DejaVuSans-69" transform="translate(1149.477539 0.015625)"/>
      <use xlink:href="#DejaVuSans-63" transform="translate(1177.260742 0.015625)"/>
      <use xlink:href="#DejaVuSans-2c" transform="translate(1232.241211 0.015625)"/>
      <use xlink:href="#DejaVuSans-20" transform="translate(1264.02832 0.015625)"/>
      <use xlink:href="#DejaVuSans-Oblique-71" transform="translate(1295.81543 0.015625)"/>
      <use xlink:href="#DejaVuSans-Oblique-72" transform="translate(1359.291992 -16.390625) scale(0.7)"/>
      <use xlink:href="#DejaVuSans-Oblique-65" transform="translate(1388.071289 -16.390625) scale(0.7)"/>
      <use xlink:href="#DejaVuSans-Oblique-76" transform="translate(1431.137695 -16.390625) scale(0.7)"/>
      <use xlink:href="#DejaVuSans-3c" transform="translate(1494.780273 0.015625)"/>
      <use xlink:href="#DejaVuSans-30" transform="translate(1598.051758 0.015625)"/>
     </g>
    </g>
    <g id="patch_7">
     <path d="M 313.385937 32.24 
L 329.385937 32.24 
L 329.385937 26.64 
L 313.385937 26.64 
z
" style="fill: #3b82f6; opacity: 0.4"/>
    </g>
    <g id="text_20">
     <!-- $\partial E_{oc}/\partial T &lt; 0$: exothermic, $q_{rev}&gt;0$ -->
     <g transform="translate(335.785937 32.24) scale(0.08 -0.08)">
      <defs>
       <path id="DejaVuSans-78" d="M 3513 3500 
L 2247 1797 
L 3578 0 
L 2900 0 
L 1881 1375 
L 863 0 
L 184 0 
L 1544 1831 
L 300 3500 
L 978 3500 
L 1906 2253 
L 2834 3500 
L 3513 3500 
z
" transform="scale(0.015625)"/>
      </defs>
      <use xlink:href="#DejaVuSans-2202" transform="translate(0 0.015625)"/>
      <use xlink:href="#DejaVuSans-Oblique-45" transform="translate(51.708984 0.015625)"/>
      <use xlink:href="#DejaVuSans-Oblique-6f" transform="translate(114.892578 -16.390625) scale(0.7)"/>
      <use xlink:href="#DejaVuSans-Oblique-63" transform="translate(157.719727 -16.390625) scale(0.7)"/>
      <use xlink:href="#DejaVuSans-2f" transform="translate(198.94043 0.015625)"/>
      <use xlink:href="#DejaVuSans-2202" transform="translate(232.631836 0.015625)"/>
      <use xlink:href="#DejaVuSans-Oblique-54" transform="translate(284.34082 0.015625)"/>
      <use xlink:href="#DejaVuSans-3c" transform="translate(364.907227 0.015625)"/>
      <use xlink:href="#DejaVuSans-30" transform="translate(468.178711 0.015625)"/>
      <use xlink:href="#DejaVuSans-3a" transform="translate(531.801758 0.015625)"/>
      <use xlink:href="#DejaVuSans-20" transform="translate(565.493164 0.015625)"/>
      <use xlink:href="#DejaVuSans-65" transform="translate(597.280273 0.015625)"/>
      <use xlink:href="#DejaVuSans-78" transform="translate(658.803711 0.015625)"/>
      <use xlink:href="#DejaVuSans-6f" transform="translate(717.983398 0.015625)"/>
      <use xlink:href="#DejaVuSans-74" transform="translate(779.165039 0.015625)"/>
      <use xlink:href="#DejaVuSans-68" transform="translate(818.374023 0.015625)"/>
      <use xlink:href="#DejaVuSans-65" transform="translate(881.75293 0.015625)"/>
      <use xlink:href="#DejaVuSans-72" transform="translate(943.276367 0.015625)"/>
      <use xlink:href="#DejaVuSans-6d" transform="translate(984.389648 0.015625)"/>
      <use xlink:href="#DejaVuSans-69" transform="translate(1081.801758 0.015625)"/>
      <use xlink:href="#DejaVuSans-63" transform="translate(1109.584961 0.015625)"/>
      <use xlink:href="#DejaVuSans-2c" transform="translate(1164.56543 0.015625)"/>
      <use xlink:href="#DejaVuSans-20" transform="translate(1196.352539 0.015625)"/>
      <use xlink:href="#DejaVuSans-Oblique-71" transform="translate(1228.139648 0.015625)"/>
      <use xlink:href="#DejaVuSans-Oblique-72" transform="translate(1291.616211 -16.390625) scale(0.7)"/>
      <use xlink:href="#DejaVuSans-Oblique-65" transform="translate(1320.395508 -16.390625) scale(0.7)"/>
      <use xlink:href="#DejaVuSans-Oblique-76" transform="translate(1363.461914 -16.390625) scale(0.7)"/>
      <use xlink:href="#DejaVuSans-3e" transform="translate(1427.104492 0.015625)"/>
      <use xlink:href="#DejaVuSans-30" transform="translate(1530.375977 0.015625)"/>
     </g>
    </g>
   </g>
  </g>
 </g>
 <defs>
  <clipPath id="p5f41dc7e0e">
   <rect x="48.510938" y="7.2" width="427.435" height="220.84"/>
  </clipPath>
 </defs>
</svg>
